VelekaWorld-Bold.ufo
<glyph name="numbersign" format="2">
  <advance width="741"/>
  <unicode hex="0023"/>
  <outline>
    <contour>
      <point x="62" y="219" type="line"/>
      <point x="62" y="282" type="line"/>
      <point x="216" y="282" type="line"/>
      <point x="259" y="414" type="line"/>
      <point x="111" y="414" type="line"/>
      <point x="111" y="480" type="line"/>
      <point x="280" y="480" type="line"/>
      <point x="357" y="710" type="line"/>
      <point x="424" y="692" type="line"/>
      <point x="350" y="480" type="line"/>
      <point x="480" y="480" type="line"/>
      <point x="554" y="710" type="line"/>
      <point x="623" y="691" type="line"/>
      <point x="548" y="480" type="line"/>
      <point x="679" y="480" type="line"/>
      <point x="679" y="414" type="line"/>
      <point x="527" y="414" type="line"/>
      <point x="484" y="282" type="line"/>
      <point x="639" y="282" type="line"/>
      <point x="639" y="219" type="line"/>
      <point x="462" y="219" type="line"/>
      <point x="386" y="-24" type="line"/>
      <point x="317" y="-7" type="line"/>
      <point x="391" y="219" type="line"/>
      <point x="266" y="219" type="line"/>
      <point x="188" y="-24" type="line"/>
      <point x="121" y="-6" type="line"/>
      <point x="196" y="219" type="line"/>
    </contour>
    <contour>
      <point x="287" y="282" type="line"/>
      <point x="411" y="282" type="line"/>
      <point x="457" y="414" type="line"/>
      <point x="331" y="414" type="line"/>
    </contour>
  </outline>
</glyph>
<glyph name="dollar" format="2">
  <advance width="586"/>
  <unicode hex="0024"/>
  <outline>
    <contour>
      <point x="54" y="33" type="curve"/>
      <point x="54" y="206" type="line"/>
      <point x="125" y="206" type="line"/>
      <point x="146" y="89" type="line"/>
      <point x="172" y="73"/>
      <point x="217" y="62"/>
      <point x="259" y="62" type="curve"/>
      <point x="259" y="282" type="line"/>
      <point x="184" y="304"/>
      <point x="60" y="342"/>
      <point x="60" y="477" type="curve" smooth="yes"/>
      <point x="60" y="660"/>
      <point x="259" y="668"/>
      <point x="259" y="668" type="curve"/>
      <point x="259" y="742" type="line"/>
      <point x="318" y="742" type="line"/>
      <point x="318" y="668" type="line"/>
      <point x="399" y="668"/>
      <point x="499" y="639"/>
      <point x="499" y="639" type="curve"/>
      <point x="499" y="472" type="line"/>
      <point x="430" y="472" type="line"/>
      <point x="411" y="583" type="line"/>
      <point x="401" y="590"/>
      <point x="336" y="607"/>
      <point x="318" y="607" type="curve"/>
      <point x="318" y="401" type="line"/>
      <point x="384" y="383"/>
      <point x="534" y="342"/>
      <point x="534" y="205" type="curve" smooth="yes"/>
      <point x="534" y="91"/>
      <point x="445" y="19"/>
      <point x="318" y="1" type="curve"/>
      <point x="318" y="-102" type="line"/>
      <point x="259" y="-102" type="line"/>
      <point x="259" y="0" type="line"/>
      <point x="259" y="0"/>
      <point x="140" y="5"/>
    </contour>
    <contour>
      <point x="187" y="513" type="curve" smooth="yes"/>
      <point x="187" y="469"/>
      <point x="221" y="422"/>
      <point x="259" y="415" type="curve"/>
      <point x="259" y="604" type="line"/>
      <point x="219" y="597"/>
      <point x="187" y="556"/>
    </contour>
    <contour>
      <point x="318" y="65" type="line"/>
      <point x="362" y="65"/>
      <point x="407" y="118"/>
      <point x="407" y="169" type="curve" smooth="yes"/>
      <point x="407" y="235"/>
      <point x="352" y="258"/>
      <point x="318" y="267" type="curve"/>
    </contour>
  </outline>
</glyph>
<glyph name="percent" format="2">
  <advance width="894"/>
  <unicode hex="0025"/>
  <outline>
    <contour>
      <point x="29" y="478" type="curve" smooth="yes"/>
      <point x="29" y="608"/>
      <point x="87" y="687"/>
      <point x="201" y="687" type="curve" smooth="yes"/>
      <point x="315" y="687"/>
      <point x="372" y="608"/>
      <point x="372" y="478" type="curve" smooth="yes"/>
      <point x="372" y="348"/>
      <point x="315" y="268"/>
      <point x="201" y="268" type="curve" smooth="yes"/>
      <point x="87" y="268"/>
      <point x="29" y="348"/>
    </contour>
    <contour>
      <point x="130" y="478" type="curve" smooth="yes"/>
      <point x="130" y="355"/>
      <point x="164" y="315"/>
      <point x="201" y="315" type="curve" smooth="yes"/>
      <point x="237" y="315"/>
      <point x="264" y="355"/>
      <point x="264" y="478" type="curve" smooth="yes"/>
      <point x="264" y="601"/>
      <point x="237" y="640"/>
      <point x="201" y="640" type="curve" smooth="yes"/>
      <point x="164" y="640"/>
      <point x="130" y="601"/>
    </contour>
    <contour>
      <point x="204" y="0" type="line"/>
      <point x="619" y="671" type="line"/>
      <point x="691" y="671" type="line"/>
      <point x="275" y="0" type="line"/>
    </contour>
    <contour>
      <point x="523" y="193" type="curve" smooth="yes"/>
      <point x="523" y="323"/>
      <point x="579" y="402"/>
      <point x="693" y="402" type="curve" smooth="yes"/>
      <point x="807" y="402"/>
      <point x="865" y="323"/>
      <point x="865" y="193" type="curve" smooth="yes"/>
      <point x="865" y="63"/>
      <point x="807" y="-16"/>
      <point x="693" y="-16" type="curve" smooth="yes"/>
      <point x="579" y="-16"/>
      <point x="523" y="63"/>
    </contour>
    <contour>
      <point x="625" y="193" type="curve" smooth="yes"/>
      <point x="625" y="70"/>
      <point x="657" y="31"/>
      <point x="693" y="31" type="curve" smooth="yes"/>
      <point x="730" y="31"/>
      <point x="756" y="70"/>
      <point x="756" y="193" type="curve" smooth="yes"/>
      <point x="756" y="316"/>
      <point x="730" y="355"/>
      <point x="693" y="355" type="curve" smooth="yes"/>
      <point x="657" y="355"/>
      <point x="625" y="316"/>
    </contour>
  </outline>
</glyph>
<glyph name="ampersand" format="2">
  <advance width="734"/>
  <unicode hex="0026"/>
  <outline>
    <contour>
      <point x="38" y="184" type="curve" smooth="yes"/>
      <point x="38" y="279"/>
      <point x="95" y="329"/>
      <point x="179" y="356" type="curve"/>
      <point x="132" y="383"/>
      <point x="86" y="461"/>
      <point x="86" y="514" type="curve" smooth="yes"/>
      <point x="86" y="625"/>
      <point x="185" y="684"/>
      <point x="303" y="684" type="curve" smooth="yes"/>
      <point x="381" y="684"/>
      <point x="501" y="651"/>
      <point x="501" y="527" type="curve" smooth="yes"/>
      <point x="501" y="393"/>
      <point x="364" y="364"/>
      <point x="351" y="362" type="curve"/>
      <point x="505" y="202" type="line"/>
      <point x="521" y="225"/>
      <point x="542" y="264"/>
      <point x="560" y="314" type="curve"/>
      <point x="562" y="319"/>
      <point x="562" y="320"/>
      <point x="562" y="321" type="curve"/>
      <point x="562" y="326"/>
      <point x="555" y="330"/>
      <point x="550" y="331" type="curve"/>
      <point x="496" y="340" type="line"/>
      <point x="496" y="387" type="line"/>
      <point x="706" y="387" type="line"/>
      <point x="706" y="340" type="line"/>
      <point x="637" y="326" type="line"/>
      <point x="605" y="221"/>
      <point x="544" y="160"/>
      <point x="544" y="160" type="curve"/>
      <point x="638" y="59" type="line"/>
      <point x="719" y="51" type="line"/>
      <point x="719" y="0" type="line"/>
      <point x="501" y="0" type="line"/>
      <point x="501" y="24" type="line"/>
      <point x="459" y="71" type="line"/>
      <point x="459" y="71"/>
      <point x="383" y="-12"/>
      <point x="254" y="-12" type="curve" smooth="yes"/>
      <point x="125" y="-12"/>
      <point x="38" y="66"/>
    </contour>
    <contour>
      <point x="173" y="230" type="curve" smooth="yes"/>
      <point x="173" y="116"/>
      <point x="249" y="74"/>
      <point x="320" y="74" type="curve" smooth="yes"/>
      <point x="387" y="74"/>
      <point x="418" y="114"/>
      <point x="418" y="114" type="curve"/>
      <point x="220" y="321" type="line"/>
      <point x="220" y="321"/>
      <point x="173" y="293"/>
    </contour>
    <contour>
      <point x="218" y="546" type="curve" smooth="yes"/>
      <point x="218" y="502"/>
      <point x="244" y="461"/>
      <point x="313" y="398" type="curve"/>
      <point x="354" y="435"/>
      <point x="377" y="468"/>
      <point x="377" y="525" type="curve" smooth="yes"/>
      <point x="377" y="580"/>
      <point x="347" y="624"/>
      <point x="298" y="624" type="curve" smooth="yes"/>
      <point x="252" y="624"/>
      <point x="218" y="592"/>
    </contour>
  </outline>
</glyph>
<glyph name="parenleft" format="2">
  <advance width="392"/>
  <unicode hex="0028"/>
  <outline>
    <contour>
      <point x="358" y="-142" type="line"/>
      <point x="161" y="-137"/>
      <point x="59" y="27"/>
      <point x="59" y="288" type="curve" smooth="yes"/>
      <point x="59" y="549"/>
      <point x="161" y="711"/>
      <point x="358" y="717" type="curve"/>
      <point x="358" y="663" type="line"/>
      <point x="217" y="644"/>
      <point x="186" y="493"/>
      <point x="186" y="288" type="curve" smooth="yes"/>
      <point x="186" y="83"/>
      <point x="217" y="-69"/>
      <point x="358" y="-88" type="curve"/>
    </contour>
  </outline>
</glyph>
<glyph name="one" format="2">
  <advance width="586"/>
  <unicode hex="0031"/>
  <outline>
    <contour>
      <point x="74" y="556" type="line"/>
      <point x="74" y="609" type="line"/>
      <point x="290" y="687" type="line"/>
      <point x="364" y="687" type="line"/>
      <point x="364" y="77" type="line" smooth="yes"/>
      <point x="364" y="65"/>
      <point x="374" y="56"/>
      <point x="386" y="55" type="curve"/>
      <point x="465" y="52" type="line"/>
      <point x="465" y="0" type="line"/>
      <point x="115" y="0" type="line"/>
      <point x="115" y="52" type="line"/>
      <point x="201" y="55" type="line"/>
      <point x="213" y="56"/>
      <point x="223" y="65"/>
      <point x="223" y="77" type="curve" smooth="yes"/>
      <point x="223" y="577" type="line"/>
    </contour>
  </outline>
</glyph>
<glyph name="seven" format="2">
  <advance width="586"/>
  <unicode hex="0037"/>
  <outline>
    <contour>
      <point x="37" y="458" type="line"/>
      <point x="37" y="671" type="line"/>
      <point x="549" y="671" type="line"/>
      <point x="549" y="600" type="line"/>
      <point x="212" y="14" type="line"/>
      <point x="212" y="-16" type="line"/>
      <point x="84" y="-16" type="line"/>
      <point x="411" y="551" type="line"/>
      <point x="122" y="551" type="line"/>
      <point x="106" y="458" type="line"/>
    </contour>
  </outline>
</glyph>
<glyph name="F" format="2">
  <advance width="559"/>
  <unicode hex="0046"/>
  <outline>
    <contour>
      <point x="24" y="620" type="line"/>
      <point x="24" y="671" type="line"/>
      <point x="532" y="671" type="line"/>
      <point x="532" y="500" type="line"/>
      <point x="460" y="500" type="line"/>
      <point x="446" y="591" type="line"/>
      <point x="444" y="601"/>
      <point x="437" y="610"/>
      <point x="428" y="610" type="curve" smooth="yes"/>
      <point x="247" y="610" type="line"/>
      <point x="247" y="364" type="line"/>
      <point x="371" y="364" type="line" smooth="yes"/>
      <point x="380" y="364"/>
      <point x="387" y="375"/>
      <point x="388" y="382" type="curve" smooth="yes"/>
      <point x="398" y="450" type="line"/>
      <point x="460" y="450" type="line"/>
      <point x="460" y="214" type="line"/>
      <point x="398" y="214" type="line"/>
      <point x="388" y="282" type="line" smooth="yes"/>
      <point x="387" y="289"/>
      <point x="379" y="300"/>
      <point x="371" y="300" type="curve" smooth="yes"/>
      <point x="247" y="300" type="line"/>
      <point x="247" y="78" type="line" smooth="yes"/>
      <point x="247" y="65"/>
      <point x="257" y="57"/>
      <point x="269" y="56" type="curve" smooth="yes"/>
      <point x="334" y="51" type="line"/>
      <point x="334" y="0" type="line"/>
      <point x="27" y="0" type="line"/>
      <point x="27" y="51" type="line"/>
      <point x="81" y="56" type="line" smooth="yes"/>
      <point x="93" y="57"/>
      <point x="104" y="65"/>
      <point x="104" y="78" type="curve" smooth="yes"/>
      <point x="104" y="593" type="line" smooth="yes"/>
      <point x="104" y="606"/>
      <point x="93" y="614"/>
      <point x="81" y="615" type="curve" smooth="yes"/>
    </contour>
  </outline>
</glyph>
<glyph name="Y" format="2">
  <advance width="663"/>
  <unicode hex="0059"/>
  <outline>
    <contour>
      <point x="10" y="620" type="line"/>
      <point x="10" y="671" type="line"/>
      <point x="294" y="671" type="line"/>
      <point x="294" y="620" type="line"/>
      <point x="241" y="615" type="line" smooth="yes"/>
      <point x="236.362" y="614.562"/>
      <point x="232.621" y="609.916"/>
      <point x="232.621" y="603.073" type="curve" smooth="yes"/>
      <point x="232.621" y="599.541"/>
      <point x="233.617" y="595.425"/>
      <point x="236" y="591" type="curve" smooth="yes"/>
      <point x="362" y="354" type="line"/>
      <point x="498" y="592" type="line" smooth="yes"/>
      <point x="500.654" y="596.55"/>
      <point x="501.875" y="601.016"/>
      <point x="501.875" y="604.838" type="curve" smooth="yes"/>
      <point x="501.875" y="611.097"/>
      <point x="498.604" y="615.633"/>
      <point x="493" y="616" type="curve" smooth="yes"/>
      <point x="432" y="620" type="line"/>
      <point x="432" y="671" type="line"/>
      <point x="653" y="671" type="line"/>
      <point x="653" y="620" type="line"/>
      <point x="595" y="611" type="line"/>
      <point x="410" y="290" type="line"/>
      <point x="410" y="78" type="line" smooth="yes"/>
      <point x="410" y="65"/>
      <point x="420" y="57"/>
      <point x="432" y="56" type="curve" smooth="yes"/>
      <point x="493" y="51" type="line"/>
      <point x="493" y="0" type="line"/>
      <point x="183" y="0" type="line"/>
      <point x="183" y="51" type="line"/>
      <point x="244" y="56" type="line" smooth="yes"/>
      <point x="255" y="57"/>
      <point x="267" y="65"/>
      <point x="267" y="78" type="curve" smooth="yes"/>
      <point x="267" y="262" type="line"/>
      <point x="74" y="611" type="line"/>
    </contour>
  </outline>
</glyph>
<glyph name="bracketleft" format="2">
  <advance width="547"/>
  <unicode hex="005B"/>
  <outline>
    <contour>
      <point x="234" y="-132" type="line"/>
      <point x="234" y="708" type="line"/>
      <point x="512" y="708" type="line"/>
      <point x="512" y="648" type="line"/>
      <point x="358" y="648" type="line"/>
      <point x="358" y="-74" type="line"/>
      <point x="512" y="-74" type="line"/>
      <point x="512" y="-132" type="line"/>
    </contour>
  </outline>
</glyph>
<glyph name="backslash" format="2">
  <advance width="494"/>
  <unicode hex="005C"/>
  <outline>
    <contour>
      <point x="0" y="671" type="line"/>
      <point x="78" y="671" type="line"/>
      <point x="494" y="-93" type="line"/>
      <point x="416" y="-93" type="line"/>
    </contour>
  </outline>
</glyph>
<glyph name="e" format="2">
  <advance width="528"/>
  <unicode hex="0065"/>
  <outline>
    <contour>
      <point x="32" y="238" type="curve" smooth="yes"/>
      <point x="32" y="389"/>
      <point x="132" y="500"/>
      <point x="284" y="500" type="curve" smooth="yes"/>
      <point x="441" y="500"/>
      <point x="498" y="388"/>
      <point x="498" y="272" type="curve" smooth="yes"/>
      <point x="498" y="248" type="line"/>
      <point x="170" y="248" type="line"/>
      <point x="170" y="139"/>
      <point x="226" y="71"/>
      <point x="324" y="71" type="curve" smooth="yes"/>
      <point x="425" y="71"/>
      <point x="498" y="127"/>
      <point x="498" y="127" type="curve"/>
      <point x="498" y="47" type="line"/>
      <point x="498" y="47"/>
      <point x="414" y="-12"/>
      <point x="287" y="-12" type="curve" smooth="yes"/>
      <point x="117" y="-12"/>
      <point x="32" y="99"/>
    </contour>
    <contour>
      <point x="175" y="304" type="curve"/>
      <point x="355" y="304" type="line"/>
      <point x="355" y="326" type="line" smooth="yes"/>
      <point x="355" y="390"/>
      <point x="332" y="441"/>
      <point x="273" y="441" type="curve" smooth="yes"/>
      <point x="199" y="441"/>
      <point x="175" y="367"/>
    </contour>
  </outline>
</glyph>
<glyph name="r" format="2">
  <advance width="432"/>
  <unicode hex="0072"/>
  <outline>
    <contour>
      <point x="17" y="408" type="line"/>
      <point x="17" y="449" type="line"/>
      <point x="172" y="500" type="line"/>
      <point x="224" y="500" type="line"/>
      <point x="224" y="394" type="line"/>
      <point x="249" y="426"/>
      <point x="313" y="500"/>
      <point x="359" y="500" type="curve" smooth="yes"/>
      <point x="382" y="500"/>
      <point x="410" y="491"/>
      <point x="422" y="482" type="curve"/>
      <point x="422" y="330" type="line"/>
      <point x="354" y="330" type="line"/>
      <point x="346" y="343"/>
      <point x="328" y="370"/>
      <point x="289" y="370" type="curve" smooth="yes"/>
      <point x="251" y="370"/>
      <point x="224" y="352"/>
      <point x="224" y="352" type="curve"/>
      <point x="224" y="72" type="line" smooth="yes"/>
      <point x="224" y="60"/>
      <point x="233" y="49"/>
      <point x="246" y="49" type="curve"/>
      <point x="310" y="46" type="line"/>
      <point x="310" y="-1" type="line"/>
      <point x="24" y="-1" type="line"/>
      <point x="24" y="46" type="line"/>
      <point x="68" y="49" type="line" smooth="yes"/>
      <point x="80" y="50"/>
      <point x="90" y="60"/>
      <point x="90" y="72" type="curve" smooth="yes"/>
      <point x="90" y="408" type="line"/>
    </contour>
  </outline>
</glyph>
<glyph name="x" format="2">
  <advance width="545"/>
  <unicode hex="0078"/>
  <outline>
    <contour>
      <point x="10" y="0" type="line"/>
      <point x="10" y="47" type="line"/>
      <point x="70" y="55" type="line"/>
      <point x="213" y="228" type="line"/>
      <point x="65" y="434" type="line"/>
      <point x="12" y="441" type="line"/>
      <point x="12" y="488" type="line"/>
      <point x="258" y="488" type="line"/>
      <point x="258" y="441" type="line"/>
      <point x="229" y="438" type="line" smooth="yes"/>
      <point x="222.033" y="437.367"/>
      <point x="218.676" y="433.122"/>
      <point x="218.676" y="428.317" type="curve" smooth="yes"/>
      <point x="218.676" y="425.536"/>
      <point x="219.8" y="422.566"/>
      <point x="222" y="420" type="curve"/>
      <point x="292" y="323" type="line"/>
      <point x="372" y="420" type="line"/>
      <point x="373.742" y="422.439"/>
      <point x="374.635" y="425.243"/>
      <point x="374.635" y="427.903" type="curve" smooth="yes"/>
      <point x="374.635" y="432.877"/>
      <point x="371.515" y="437.348"/>
      <point x="365" y="438" type="curve" smooth="yes"/>
      <point x="333" y="441" type="line"/>
      <point x="333" y="488" type="line"/>
      <point x="519" y="488" type="line"/>
      <point x="519" y="441" type="line"/>
      <point x="463" y="434" type="line"/>
      <point x="330" y="270" type="line"/>
      <point x="484" y="55" type="line"/>
      <point x="537" y="47" type="line"/>
      <point x="537" y="0" type="line"/>
      <point x="283" y="0" type="line"/>
      <point x="283" y="47" type="line"/>
      <point x="322" y="51" type="line" smooth="yes"/>
      <point x="328.796" y="51.6796"/>
      <point x="332.776" y="55.5595"/>
      <point x="332.776" y="60.5092" type="curve" smooth="yes"/>
      <point x="332.776" y="62.8428"/>
      <point x="331.892" y="65.4141"/>
      <point x="330" y="68" type="curve" smooth="yes"/>
      <point x="251" y="176" type="line"/>
      <point x="163" y="68" type="line" smooth="yes"/>
      <point x="160.92" y="65.5732"/>
      <point x="159.921" y="62.906"/>
      <point x="159.921" y="60.4151" type="curve" smooth="yes"/>
      <point x="159.921" y="55.7212"/>
      <point x="163.467" y="51.6533"/>
      <point x="170" y="51" type="curve" smooth="yes"/>
      <point x="205" y="47" type="line"/>
      <point x="205" y="0" type="line"/>
    </contour>
  </outline>
</glyph>
<glyph name="braceleft" format="2">
  <advance width="495"/>
  <unicode hex="007B"/>
  <outline>
    <contour>
      <point x="41" y="262" type="line"/>
      <point x="41" y="322" type="line"/>
      <point x="64" y="322" type="line" smooth="yes"/>
      <point x="143" y="322"/>
      <point x="176" y="363"/>
      <point x="176" y="462" type="curve" smooth="yes"/>
      <point x="176" y="496" type="line" smooth="yes"/>
      <point x="176" y="644"/>
      <point x="243" y="706"/>
      <point x="403" y="706" type="curve" smooth="yes"/>
      <point x="422" y="706" type="line"/>
      <point x="422" y="651" type="line"/>
      <point x="403" y="651" type="line" smooth="yes"/>
      <point x="334" y="651"/>
      <point x="300" y="602"/>
      <point x="300" y="504" type="curve" smooth="yes"/>
      <point x="300" y="477" type="line" smooth="yes"/>
      <point x="300" y="359"/>
      <point x="228" y="290"/>
      <point x="140" y="290" type="curve"/>
      <point x="140" y="294" type="line"/>
      <point x="241" y="294"/>
      <point x="300" y="206"/>
      <point x="300" y="98" type="curve" smooth="yes"/>
      <point x="300" y="76" type="line" smooth="yes"/>
      <point x="300" y="-27"/>
      <point x="329" y="-67"/>
      <point x="403" y="-67" type="curve" smooth="yes"/>
      <point x="422" y="-67" type="line"/>
      <point x="422" y="-122" type="line"/>
      <point x="403" y="-122" type="line" smooth="yes"/>
      <point x="243" y="-122"/>
      <point x="176" y="-59"/>
      <point x="176" y="90" type="curve" smooth="yes"/>
      <point x="176" y="126" type="line" smooth="yes"/>
      <point x="176" y="221"/>
      <point x="142" y="262"/>
      <point x="64" y="262" type="curve" smooth="yes"/>
    </contour>
  </outline>
</glyph>
<glyph name="section" format="2">
  <advance width="500"/>
  <unicode hex="00A7"/>
  <outline>
    <contour>
      <point x="42" y="286" type="curve" smooth="yes"/>
      <point x="42" y="395"/>
      <point x="139" y="435"/>
      <point x="159" y="443" type="curve"/>
      <point x="133" y="455"/>
      <point x="62" y="491"/>
      <point x="62" y="575" type="curve" smooth="yes"/>
      <point x="62" y="674"/>
      <point x="158" y="720"/>
      <point x="266" y="720" type="curve" smooth="yes"/>
      <point x="361" y="720"/>
      <point x="427" y="695"/>
      <point x="427" y="695" type="curve"/>
      <point x="427" y="557" type="line"/>
      <point x="372" y="557" type="line"/>
      <point x="361" y="639" type="line"/>
      <point x="355" y="644"/>
      <point x="324" y="666"/>
      <point x="269" y="666" type="curve" smooth="yes"/>
      <point x="224" y="666"/>
      <point x="178" y="639"/>
      <point x="178" y="589" type="curve" smooth="yes"/>
      <point x="178" y="555"/>
      <point x="209" y="531"/>
      <point x="250" y="509" type="curve"/>
      <point x="289" y="490" type="line" smooth="yes"/>
      <point x="367" y="452"/>
      <point x="458" y="407"/>
      <point x="458" y="306" type="curve" smooth="yes"/>
      <point x="458" y="186"/>
      <point x="352" y="146"/>
      <point x="337" y="143" type="curve"/>
      <point x="359" y="133"/>
      <point x="438" y="93"/>
      <point x="438" y="13" type="curve" smooth="yes"/>
      <point x="438" y="-103"/>
      <point x="328" y="-143"/>
      <point x="230" y="-143" type="curve" smooth="yes"/>
      <point x="135" y="-143"/>
      <point x="65" y="-110"/>
      <point x="65" y="-110" type="curve"/>
      <point x="65" y="29" type="line"/>
      <point x="126" y="29" type="line"/>
      <point x="139" y="-64" type="line"/>
      <point x="165" y="-80"/>
      <point x="210" y="-87"/>
      <point x="232" y="-87" type="curve" smooth="yes"/>
      <point x="282" y="-87"/>
      <point x="326" y="-56"/>
      <point x="326" y="-10" type="curve" smooth="yes"/>
      <point x="326" y="33"/>
      <point x="288" y="59"/>
      <point x="240" y="83" type="curve" smooth="yes"/>
      <point x="199" y="103" type="line" smooth="yes"/>
      <point x="123" y="140"/>
      <point x="42" y="184"/>
    </contour>
    <contour>
      <point x="131" y="318" type="curve" smooth="yes"/>
      <point x="131" y="283"/>
      <point x="148" y="254"/>
      <point x="173" y="232" type="curve" smooth="yes"/>
      <point x="206" y="202"/>
      <point x="252" y="184"/>
      <point x="285" y="173" type="curve"/>
      <point x="310" y="182"/>
      <point x="366" y="228"/>
      <point x="366" y="272" type="curve" smooth="yes"/>
      <point x="366" y="321"/>
      <point x="329" y="356"/>
      <point x="291" y="379" type="curve" smooth="yes"/>
      <point x="259" y="398"/>
      <point x="226" y="409"/>
      <point x="214" y="413" type="curve"/>
      <point x="196" y="408"/>
      <point x="131" y="378"/>
    </contour>
  </outline>
</glyph>
<glyph name="guillemotleft" format="2">
  <advance width="449"/>
  <unicode hex="00AB"/>
  <outline>
    <contour>
      <point x="24" y="215" type="line"/>
      <point x="24" y="266" type="line"/>
      <point x="186" y="482" type="line"/>
      <point x="259" y="482" type="line"/>
      <point x="134" y="241" type="line"/>
      <point x="259" y="0" type="line"/>
      <point x="186" y="0" type="line"/>
    </contour>
    <contour>
      <point x="210" y="215" type="line"/>
      <point x="210" y="266" type="line"/>
      <point x="371" y="482" type="line"/>
      <point x="444" y="482" type="line"/>
      <point x="320" y="241" type="line"/>
      <point x="444" y="0" type="line"/>
      <point x="371" y="0" type="line"/>
    </contour>
  </outline>
</glyph>
<glyph name="registered" format="2">
  <advance width="836"/>
  <unicode hex="00AE"/>
  <outline>
    <contour>
      <point x="32" y="350" type="curve" smooth="yes"/>
      <point x="32" y="564"/>
      <point x="205" y="739"/>
      <point x="419" y="739" type="curve" smooth="yes"/>
      <point x="631" y="739"/>
      <point x="806" y="565"/>
      <point x="806" y="350" type="curve" smooth="yes"/>
      <point x="806" y="135"/>
      <point x="632" y="-39"/>
      <point x="417" y="-39" type="curve" smooth="yes"/>
      <point x="206" y="-39"/>
      <point x="32" y="135"/>
    </contour>
    <contour>
      <point x="80" y="348" type="curve" smooth="yes"/>
      <point x="80" y="162"/>
      <point x="231" y="8"/>
      <point x="418" y="8" type="curve" smooth="yes"/>
      <point x="606" y="8"/>
      <point x="758" y="163"/>
      <point x="758" y="350" type="curve" smooth="yes"/>
      <point x="758" y="539"/>
      <point x="606" y="692"/>
      <point x="419" y="692" type="curve" smooth="yes"/>
      <point x="234" y="692"/>
      <point x="80" y="541"/>
    </contour>
    <contour>
      <point x="207" y="142" type="line"/>
      <point x="207" y="175" type="line"/>
      <point x="242" y="178" type="line"/>
      <point x="249" y="179"/>
      <point x="257" y="184"/>
      <point x="257" y="193" type="curve" smooth="yes"/>
      <point x="257" y="529" type="line" smooth="yes"/>
      <point x="257" y="537"/>
      <point x="249" y="542"/>
      <point x="242" y="543" type="curve"/>
      <point x="207" y="547" type="line"/>
      <point x="207" y="580" type="line"/>
      <point x="429" y="580" type="line" smooth="yes"/>
      <point x="477" y="580"/>
      <point x="573" y="564"/>
      <point x="573" y="471" type="curve" smooth="yes"/>
      <point x="573" y="383"/>
      <point x="492" y="362"/>
      <point x="457" y="357" type="curve"/>
      <point x="530" y="342"/>
      <point x="545" y="293"/>
      <point x="557" y="250" type="curve" smooth="yes"/>
      <point x="569" y="205"/>
      <point x="582" y="175"/>
      <point x="653" y="175" type="curve"/>
      <point x="653" y="142" type="line"/>
      <point x="623" y="138"/>
      <point x="607" y="138"/>
      <point x="591" y="138" type="curve" smooth="yes"/>
      <point x="498" y="138"/>
      <point x="478" y="194"/>
      <point x="459" y="246" type="curve" smooth="yes"/>
      <point x="443" y="291"/>
      <point x="427" y="334"/>
      <point x="366" y="334" type="curve" smooth="yes"/>
      <point x="353" y="334" type="line"/>
      <point x="353" y="193" type="line" smooth="yes"/>
      <point x="353" y="184"/>
      <point x="360" y="179"/>
      <point x="368" y="178" type="curve"/>
      <point x="405" y="175" type="line"/>
      <point x="405" y="142" type="line"/>
    </contour>
    <contour>
      <point x="353" y="362" type="line"/>
      <point x="364" y="361"/>
      <point x="371" y="361"/>
      <point x="375" y="361" type="curve" smooth="yes"/>
      <point x="415" y="361"/>
      <point x="473" y="374"/>
      <point x="473" y="448" type="curve" smooth="yes"/>
      <point x="473" y="503"/>
      <point x="438" y="530"/>
      <point x="374" y="530" type="curve" smooth="yes"/>
      <point x="353" y="530" type="line"/>
    </contour>
  </outline>
</glyph>
<glyph name="macron" format="2">
  <advance width="339"/>
  <unicode hex="00AF"/>
  <outline>
    <contour>
      <point x="0" y="586" type="line"/>
      <point x="0" y="667" type="line"/>
      <point x="340" y="667" type="line"/>
      <point x="340" y="586" type="line"/>
    </contour>
  </outline>
</glyph>
<glyph name="uni00B2" format="2">
  <advance width="420"/>
  <unicode hex="00B2"/>
  <outline>
    <contour>
      <point x="29" y="439" type="line"/>
      <point x="29" y="501" type="line"/>
      <point x="65" y="526" type="line" smooth="yes"/>
      <point x="134" y="574"/>
      <point x="266" y="672"/>
      <point x="266" y="757" type="curve" smooth="yes"/>
      <point x="266" y="808"/>
      <point x="232" y="847"/>
      <point x="180" y="847" type="curve" smooth="yes"/>
      <point x="161" y="847"/>
      <point x="154" y="845"/>
      <point x="141" y="839" type="curve"/>
      <point x="141" y="751" type="line"/>
      <point x="130" y="744"/>
      <point x="114" y="737"/>
      <point x="90" y="737" type="curve" smooth="yes"/>
      <point x="53" y="737"/>
      <point x="34" y="757"/>
      <point x="34" y="787" type="curve" smooth="yes"/>
      <point x="34" y="873"/>
      <point x="148" y="897"/>
      <point x="211" y="897" type="curve" smooth="yes"/>
      <point x="303" y="897"/>
      <point x="376" y="846"/>
      <point x="376" y="768" type="curve" smooth="yes"/>
      <point x="376" y="675"/>
      <point x="289" y="617"/>
      <point x="167" y="544" type="curve" smooth="yes"/>
      <point x="127" y="520" type="line"/>
      <point x="329" y="520" type="line"/>
      <point x="344" y="572" type="line"/>
      <point x="392" y="572" type="line"/>
      <point x="392" y="439" type="line"/>
    </contour>
  </outline>
</glyph>
<glyph name="uni00B3" format="2">
  <advance width="426"/>
  <unicode hex="00B3"/>
  <outline>
    <contour>
      <point x="29" y="516" type="curve" smooth="yes"/>
      <point x="29" y="553"/>
      <point x="60" y="563"/>
      <point x="83" y="563" type="curve" smooth="yes"/>
      <point x="96" y="563"/>
      <point x="107" y="560"/>
      <point x="115" y="557" type="curve"/>
      <point x="136" y="486" type="line"/>
      <point x="152" y="480"/>
      <point x="170" y="475"/>
      <point x="190" y="475" type="curve" smooth="yes"/>
      <point x="241" y="475"/>
      <point x="288" y="514"/>
      <point x="288" y="563" type="curve" smooth="yes"/>
      <point x="288" y="603"/>
      <point x="253" y="640"/>
      <point x="185" y="640" type="curve" smooth="yes"/>
      <point x="163" y="640"/>
      <point x="134" y="637"/>
      <point x="134" y="637" type="curve"/>
      <point x="134" y="694" type="line"/>
      <point x="142" y="693"/>
      <point x="148" y="693"/>
      <point x="155" y="693" type="curve" smooth="yes"/>
      <point x="210" y="693"/>
      <point x="271" y="710"/>
      <point x="271" y="771" type="curve" smooth="yes"/>
      <point x="271" y="812"/>
      <point x="230" y="847"/>
      <point x="177" y="847" type="curve" smooth="yes"/>
      <point x="163" y="847"/>
      <point x="139" y="841"/>
      <point x="139" y="841" type="curve"/>
      <point x="139" y="758" type="line"/>
      <point x="125" y="751"/>
      <point x="110" y="750"/>
      <point x="98" y="750" type="curve" smooth="yes"/>
      <point x="66" y="750"/>
      <point x="40" y="766"/>
      <point x="40" y="799" type="curve" smooth="yes"/>
      <point x="40" y="855"/>
      <point x="118" y="897"/>
      <point x="212" y="897" type="curve" smooth="yes"/>
      <point x="293" y="897"/>
      <point x="381" y="860"/>
      <point x="381" y="780" type="curve" smooth="yes"/>
      <point x="381" y="726"/>
      <point x="315" y="673"/>
      <point x="247" y="673" type="curve"/>
      <point x="247" y="677" type="line"/>
      <point x="329" y="677"/>
      <point x="398" y="627"/>
      <point x="398" y="567" type="curve" smooth="yes"/>
      <point x="398" y="480"/>
      <point x="295" y="428"/>
      <point x="185" y="428" type="curve" smooth="yes"/>
      <point x="89" y="428"/>
      <point x="29" y="472"/>
    </contour>
  </outline>
</glyph>
<glyph name="acute" format="2">
  <advance width="375"/>
  <unicode hex="00B4"/>
  <outline>
    <contour>
      <point x="117" y="551" type="line"/>
      <point x="254" y="702" type="line" smooth="yes"/>
      <point x="277" y="727"/>
      <point x="290" y="734"/>
      <point x="317" y="734" type="curve" smooth="yes"/>
      <point x="360" y="734"/>
      <point x="375" y="705"/>
      <point x="375" y="681" type="curve" smooth="yes"/>
      <point x="375" y="668"/>
      <point x="363" y="647"/>
      <point x="349" y="639" type="curve" smooth="yes"/>
      <point x="187" y="551" type="line"/>
    </contour>
  </outline>
</glyph>
<glyph name="uni00B9" format="2">
  <advance width="402"/>
  <unicode hex="00B9"/>
  <outline>
    <contour>
      <point x="49" y="806" type="line"/>
      <point x="49" y="840" type="line"/>
      <point x="199" y="897" type="line"/>
      <point x="254" y="897" type="line"/>
      <point x="254" y="496" type="line" smooth="yes"/>
      <point x="254" y="488"/>
      <point x="261" y="482"/>
      <point x="269" y="481" type="curve"/>
      <point x="321" y="478" type="line"/>
      <point x="321" y="439" type="line"/>
      <point x="73" y="439" type="line"/>
      <point x="73" y="478" type="line"/>
      <point x="133" y="481" type="line"/>
      <point x="141" y="482"/>
      <point x="148" y="488"/>
      <point x="148" y="496" type="curve" smooth="yes"/>
      <point x="148" y="819" type="line"/>
    </contour>
  </outline>
</glyph>
<glyph name="ordmasculine" format="2">
  <advance width="379"/>
  <unicode hex="00BA"/>
  <outline>
    <contour>
      <point x="21" y="528" type="curve" smooth="yes"/>
      <point x="21" y="626"/>
      <point x="92" y="683"/>
      <point x="193" y="683" type="curve" smooth="yes"/>
      <point x="300" y="683"/>
      <point x="359" y="619"/>
      <point x="359" y="527" type="curve" smooth="yes"/>
      <point x="359" y="438"/>
      <point x="296" y="376"/>
      <point x="188" y="376" type="curve" smooth="yes"/>
      <point x="89" y="376"/>
      <point x="21" y="433"/>
    </contour>
    <contour>
      <point x="41" y="299" type="line"/>
      <point x="41" y="334" type="line"/>
      <point x="340" y="334" type="line"/>
      <point x="340" y="299" type="line"/>
    </contour>
    <contour>
      <point x="118" y="530" type="curve" smooth="yes"/>
      <point x="118" y="479"/>
      <point x="130" y="409"/>
      <point x="191" y="409" type="curve" smooth="yes"/>
      <point x="250" y="409"/>
      <point x="263" y="475"/>
      <point x="263" y="528" type="curve" smooth="yes"/>
      <point x="263" y="579"/>
      <point x="249" y="649"/>
      <point x="190" y="649" type="curve" smooth="yes"/>
      <point x="131" y="649"/>
      <point x="118" y="582"/>
    </contour>
  </outline>
</glyph>
<glyph name="guillemotright" format="2">
  <advance width="449"/>
  <unicode hex="00BB"/>
  <outline>
    <contour>
      <point x="5" y="0" type="line"/>
      <point x="129" y="241" type="line"/>
      <point x="5" y="482" type="line"/>
      <point x="78" y="482" type="line"/>
      <point x="239" y="267" type="line"/>
      <point x="239" y="216" type="line"/>
      <point x="78" y="0" type="line"/>
    </contour>
    <contour>
      <point x="190" y="0" type="line"/>
      <point x="315" y="241" type="line"/>
      <point x="190" y="482" type="line"/>
      <point x="264" y="482" type="line"/>
      <point x="425" y="267" type="line"/>
      <point x="425" y="216" type="line"/>
      <point x="264" y="0" type="line"/>
    </contour>
  </outline>
</glyph>
<glyph name="Aacute" format="2">
  <advance width="686"/>
  <unicode hex="00C1"/>
  <outline>
    <contour>
      <point x="5" y="0" type="line"/>
      <point x="5" y="51" type="line"/>
      <point x="61" y="59" type="line"/>
      <point x="285" y="687" type="line"/>
      <point x="399" y="687" type="line"/>
      <point x="621" y="77" type="line"/>
      <point x="626" y="65"/>
      <point x="629" y="61"/>
      <point x="643" y="58" type="curve"/>
      <point x="681" y="51" type="line"/>
      <point x="681" y="0" type="line"/>
      <point x="405" y="0" type="line"/>
      <point x="405" y="51" type="line"/>
      <point x="464" y="58" type="line"/>
      <point x="469" y="59"/>
      <point x="474" y="65"/>
      <point x="474" y="71" type="curve"/>
      <point x="474" y="72"/>
      <point x="474" y="74"/>
      <point x="473" y="75" type="curve"/>
      <point x="419" y="234" type="line"/>
      <point x="205" y="234" type="line"/>
      <point x="150" y="79" type="line"/>
      <point x="149" y="78"/>
      <point x="149" y="76"/>
      <point x="149" y="75" type="curve"/>
      <point x="149" y="67"/>
      <point x="158" y="59"/>
      <point x="164" y="58" type="curve"/>
      <point x="220" y="51" type="line"/>
      <point x="220" y="0" type="line"/>
    </contour>
    <contour>
      <point x="224" y="293" type="line"/>
      <point x="394" y="293" type="line"/>
      <point x="308" y="533" type="line"/>
    </contour>
    <contour>
      <point x="307" y="747" type="line"/>
      <point x="444" y="898" type="line" smooth="yes"/>
      <point x="467" y="923"/>
      <point x="480" y="930"/>
      <point x="507" y="930" type="curve" smooth="yes"/>
      <point x="550" y="930"/>
      <point x="565" y="901"/>
      <point x="565" y="877" type="curve" smooth="yes"/>
      <point x="565" y="864"/>
      <point x="553" y="843"/>
      <point x="539" y="835" type="curve" smooth="yes"/>
      <point x="377" y="747" type="line"/>
    </contour>
  </outline>
</glyph>
<glyph name="Adieresis" format="2">
  <advance width="686"/>
  <unicode hex="00C4"/>
  <outline>
    <contour>
      <point x="5" y="0" type="line"/>
      <point x="5" y="51" type="line"/>
      <point x="61" y="59" type="line"/>
      <point x="285" y="687" type="line"/>
      <point x="399" y="687" type="line"/>
      <point x="621" y="77" type="line"/>
      <point x="626" y="65"/>
      <point x="629" y="61"/>
      <point x="643" y="58" type="curve"/>
      <point x="681" y="51" type="line"/>
      <point x="681" y="0" type="line"/>
      <point x="405" y="0" type="line"/>
      <point x="405" y="51" type="line"/>
      <point x="464" y="58" type="line"/>
      <point x="469" y="59"/>
      <point x="474" y="65"/>
      <point x="474" y="71" type="curve"/>
      <point x="474" y="72"/>
      <point x="474" y="74"/>
      <point x="473" y="75" type="curve"/>
      <point x="419" y="234" type="line"/>
      <point x="205" y="234" type="line"/>
      <point x="150" y="79" type="line"/>
      <point x="149" y="78"/>
      <point x="149" y="76"/>
      <point x="149" y="75" type="curve"/>
      <point x="149" y="67"/>
      <point x="158" y="59"/>
      <point x="164" y="58" type="curve"/>
      <point x="220" y="51" type="line"/>
      <point x="220" y="0" type="line"/>
    </contour>
    <contour>
      <point x="168" y="816" type="curve" smooth="yes"/>
      <point x="168" y="854"/>
      <point x="199" y="885"/>
      <point x="237" y="885" type="curve" smooth="yes"/>
      <point x="275" y="885"/>
      <point x="306" y="854"/>
      <point x="306" y="816" type="curve" smooth="yes"/>
      <point x="306" y="778"/>
      <point x="275" y="747"/>
      <point x="237" y="747" type="curve" smooth="yes"/>
      <point x="199" y="747"/>
      <point x="168" y="778"/>
    </contour>
    <contour>
      <point x="224" y="293" type="line"/>
      <point x="394" y="293" type="line"/>
      <point x="308" y="533" type="line"/>
    </contour>
    <contour>
      <point x="378" y="816" type="curve" smooth="yes"/>
      <point x="378" y="854"/>
      <point x="409" y="885"/>
      <point x="447" y="885" type="curve" smooth="yes"/>
      <point x="485" y="885"/>
      <point x="516" y="854"/>
      <point x="516" y="816" type="curve" smooth="yes"/>
      <point x="516" y="778"/>
      <point x="485" y="747"/>
      <point x="447" y="747" type="curve" smooth="yes"/>
      <point x="409" y="747"/>
      <point x="378" y="778"/>
    </contour>
  </outline>
</glyph>
<glyph name="Ccedilla" format="2">
  <advance width="636"/>
  <unicode hex="00C7"/>
  <outline>
    <contour>
      <point x="37" y="336" type="curve" smooth="yes"/>
      <point x="37" y="539"/>
      <point x="186" y="687"/>
      <point x="389" y="687" type="curve" smooth="yes"/>
      <point x="456" y="687"/>
      <point x="492" y="680"/>
      <point x="600" y="645" type="curve"/>
      <point x="600" y="475" type="line"/>
      <point x="522" y="475" type="line"/>
      <point x="500" y="587" type="line" smooth="yes"/>
      <point x="497" y="603"/>
      <point x="455" y="619"/>
      <point x="416" y="619" type="curve" smooth="yes"/>
      <point x="280" y="619"/>
      <point x="194" y="508"/>
      <point x="194" y="334" type="curve" smooth="yes"/>
      <point x="194" y="160"/>
      <point x="284" y="49"/>
      <point x="424" y="49" type="curve" smooth="yes"/>
      <point x="468" y="49"/>
      <point x="496" y="61"/>
      <point x="499" y="81" type="curve"/>
      <point x="521" y="199" type="line"/>
      <point x="600" y="199" type="line"/>
      <point x="600" y="24" type="line"/>
      <point x="542" y="1"/>
      <point x="454" y="-16"/>
      <point x="388" y="-16" type="curve" smooth="yes"/>
      <point x="183" y="-16"/>
      <point x="37" y="130"/>
    </contour>
    <contour>
      <point x="267" y="-252" type="curve"/>
      <point x="267" y="-202" type="line"/>
      <point x="286.5" y="-206"/>
      <point x="318" y="-210"/>
      <point x="330" y="-210" type="curve" smooth="yes"/>
      <point x="356" y="-210"/>
      <point x="389" y="-204"/>
      <point x="389" y="-176" type="curve" smooth="yes"/>
      <point x="389" y="-152"/>
      <point x="368" y="-142"/>
      <point x="345" y="-142" type="curve" smooth="yes"/>
      <point x="341.5" y="-142"/>
      <point x="330.5" y="-143"/>
      <point x="323" y="-144" type="curve"/>
      <point x="323" y="-7" type="line"/>
      <point x="373" y="-7" type="line"/>
      <point x="373" y="-89" type="line"/>
      <point x="376" y="-88"/>
      <point x="379" y="-87"/>
      <point x="387" y="-87" type="curve" smooth="yes"/>
      <point x="433" y="-87"/>
      <point x="471" y="-110"/>
      <point x="471" y="-163" type="curve" smooth="yes"/>
      <point x="471" y="-228"/>
      <point x="419" y="-263"/>
      <point x="348" y="-263" type="curve" smooth="yes"/>
      <point x="327.5" y="-263"/>
      <point x="287" y="-257.5"/>
    </contour>
  </outline>
</glyph>
<glyph name="Iacute" format="2">
  <advance width="358"/>
  <unicode hex="00CD"/>
  <outline>
    <contour>
      <point x="23" y="0" type="line"/>
      <point x="23" y="51" type="line"/>
      <point x="85" y="56" type="line" smooth="yes"/>
      <point x="97" y="57"/>
      <point x="107" y="65"/>
      <point x="107" y="78" type="curve" smooth="yes"/>
      <point x="107" y="593" type="line" smooth="yes"/>
      <point x="107" y="606"/>
      <point x="97" y="614"/>
      <point x="85" y="615" type="curve" smooth="yes"/>
      <point x="23" y="620" type="line"/>
      <point x="23" y="671" type="line"/>
      <point x="335" y="671" type="line"/>
      <point x="335" y="620" type="line"/>
      <point x="273" y="615" type="line" smooth="yes"/>
      <point x="262" y="614"/>
      <point x="250" y="606"/>
      <point x="250" y="593" type="curve" smooth="yes"/>
      <point x="250" y="78" type="line" smooth="yes"/>
      <point x="250" y="65"/>
      <point x="262" y="57"/>
      <point x="273" y="56" type="curve" smooth="yes"/>
      <point x="335" y="51" type="line"/>
      <point x="335" y="0" type="line"/>
    </contour>
    <contour>
      <point x="144" y="747" type="line"/>
      <point x="281" y="898" type="line" smooth="yes"/>
      <point x="304" y="923"/>
      <point x="317" y="930"/>
      <point x="344" y="930" type="curve" smooth="yes"/>
      <point x="387" y="930"/>
      <point x="402" y="901"/>
      <point x="402" y="877" type="curve" smooth="yes"/>
      <point x="402" y="864"/>
      <point x="390" y="843"/>
      <point x="376" y="835" type="curve" smooth="yes"/>
      <point x="214" y="747" type="line"/>
    </contour>
  </outline>
</glyph>
<glyph name="Eth" format="2">
  <advance width="724"/>
  <unicode hex="00D0"/>
  <outline>
    <contour>
      <point x="14" y="384" type="line"/>
      <point x="396" y="384" type="line"/>
      <point x="396" y="319" type="line"/>
      <point x="14" y="319" type="line"/>
    </contour>
    <contour>
      <point x="26" y="0" type="line"/>
      <point x="26" y="51" type="line"/>
      <point x="81" y="56" type="line" smooth="yes"/>
      <point x="93" y="57"/>
      <point x="104" y="65"/>
      <point x="104" y="78" type="curve" smooth="yes"/>
      <point x="104" y="593" type="line" smooth="yes"/>
      <point x="104" y="606"/>
      <point x="93" y="614"/>
      <point x="81" y="615" type="curve" smooth="yes"/>
      <point x="26" y="620" type="line"/>
      <point x="26" y="671" type="line"/>
      <point x="332" y="671" type="line" smooth="yes"/>
      <point x="560" y="671"/>
      <point x="687" y="538"/>
      <point x="687" y="343" type="curve" smooth="yes"/>
      <point x="687" y="114"/>
      <point x="550" y="0"/>
      <point x="338" y="0" type="curve" smooth="yes"/>
    </contour>
    <contour>
      <point x="247" y="59" type="line"/>
      <point x="330" y="59" type="line"/>
      <point x="416" y="60"/>
      <point x="526" y="116"/>
      <point x="526" y="332" type="curve" smooth="yes"/>
      <point x="526" y="562"/>
      <point x="413" y="613"/>
      <point x="310" y="613" type="curve" smooth="yes"/>
      <point x="247" y="613" type="line"/>
    </contour>
  </outline>
</glyph>
<glyph name="Ograve" format="2">
  <advance width="755"/>
  <unicode hex="00D2"/>
  <outline>
    <contour>
      <point x="153" y="877" type="curve" smooth="yes"/>
      <point x="153" y="901"/>
      <point x="167" y="930"/>
      <point x="210" y="930" type="curve" smooth="yes"/>
      <point x="237" y="930"/>
      <point x="250" y="923"/>
      <point x="273" y="898" type="curve" smooth="yes"/>
      <point x="410" y="747" type="line"/>
      <point x="340" y="747" type="line"/>
      <point x="178" y="835" type="line" smooth="yes"/>
      <point x="164" y="843"/>
      <point x="153" y="864"/>
    </contour>
    <contour>
      <point x="37" y="340" type="curve" smooth="yes"/>
      <point x="37" y="537"/>
      <point x="162" y="687"/>
      <point x="375" y="687" type="curve" smooth="yes"/>
      <point x="583" y="687"/>
      <point x="720" y="526"/>
      <point x="720" y="332" type="curve" smooth="yes"/>
      <point x="720" y="141"/>
      <point x="585" y="-16"/>
      <point x="384" y="-16" type="curve" smooth="yes"/>
      <point x="184" y="-16"/>
      <point x="37" y="113"/>
    </contour>
    <contour>
      <point x="197" y="337" type="curve" smooth="yes"/>
      <point x="197" y="195"/>
      <point x="251" y="47"/>
      <point x="374" y="47" type="curve" smooth="yes"/>
      <point x="508" y="47"/>
      <point x="559" y="199"/>
      <point x="559" y="328" type="curve" smooth="yes"/>
      <point x="559" y="485"/>
      <point x="500" y="620"/>
      <point x="384" y="620" type="curve" smooth="yes"/>
      <point x="245" y="620"/>
      <point x="197" y="471"/>
    </contour>
  </outline>
</glyph>
<glyph name="Ocircumflex" format="2">
  <advance width="755"/>
  <unicode hex="00D4"/>
  <outline>
    <contour>
      <point x="37" y="340" type="curve" smooth="yes"/>
      <point x="37" y="537"/>
      <point x="162" y="687"/>
      <point x="375" y="687" type="curve" smooth="yes"/>
      <point x="583" y="687"/>
      <point x="720" y="526"/>
      <point x="720" y="332" type="curve" smooth="yes"/>
      <point x="720" y="141"/>
      <point x="585" y="-16"/>
      <point x="384" y="-16" type="curve" smooth="yes"/>
      <point x="184" y="-16"/>
      <point x="37" y="113"/>
    </contour>
    <contour>
      <point x="197" y="337" type="curve" smooth="yes"/>
      <point x="197" y="195"/>
      <point x="251" y="47"/>
      <point x="374" y="47" type="curve" smooth="yes"/>
      <point x="508" y="47"/>
      <point x="559" y="199"/>
      <point x="559" y="328" type="curve" smooth="yes"/>
      <point x="559" y="485"/>
      <point x="500" y="620"/>
      <point x="384" y="620" type="curve" smooth="yes"/>
      <point x="245" y="620"/>
      <point x="197" y="471"/>
    </contour>
    <contour>
      <point x="205" y="747" type="line"/>
      <point x="316" y="918" type="line"/>
      <point x="434" y="918" type="line"/>
      <point x="545" y="747" type="line"/>
      <point x="462" y="747" type="line"/>
      <point x="375" y="842" type="line"/>
      <point x="288" y="747" type="line"/>
    </contour>
  </outline>
</glyph>
<glyph name="Oslash" format="2">
  <advance width="755"/>
  <unicode hex="00D8"/>
  <outline>
    <contour>
      <point x="37" y="340" type="curve" smooth="yes"/>
      <point x="37" y="537"/>
      <point x="162" y="687"/>
      <point x="375" y="687" type="curve" smooth="yes"/>
      <point x="431" y="687"/>
      <point x="482" y="675"/>
      <point x="526" y="655" type="curve"/>
      <point x="579" y="748" type="line"/>
      <point x="631" y="719" type="line"/>
      <point x="577" y="625" type="line"/>
      <point x="667" y="560"/>
      <point x="720" y="453"/>
      <point x="720" y="332" type="curve" smooth="yes"/>
      <point x="720" y="141"/>
      <point x="585" y="-16"/>
      <point x="384" y="-16" type="curve" smooth="yes"/>
      <point x="327" y="-16"/>
      <point x="274" y="-6"/>
      <point x="228" y="14" type="curve"/>
      <point x="170" y="-87" type="line"/>
      <point x="119" y="-57" type="line"/>
      <point x="176" y="43" type="line"/>
      <point x="90" y="102"/>
      <point x="37" y="203"/>
    </contour>
    <contour>
      <point x="197" y="337" type="curve" smooth="yes"/>
      <point x="197" y="269"/>
      <point x="209" y="200"/>
      <point x="235" y="146" type="curve"/>
      <point x="482" y="578" type="line"/>
      <point x="456" y="605"/>
      <point x="423" y="620"/>
      <point x="384" y="620" type="curve" smooth="yes"/>
      <point x="245" y="620"/>
      <point x="197" y="471"/>
    </contour>
    <contour>
      <point x="272" y="92" type="line"/>
      <point x="298" y="64"/>
      <point x="332" y="47"/>
      <point x="374" y="47" type="curve" smooth="yes"/>
      <point x="508" y="47"/>
      <point x="559" y="199"/>
      <point x="559" y="328" type="curve" smooth="yes"/>
      <point x="559" y="402"/>
      <point x="545" y="472"/>
      <point x="519" y="524" type="curve"/>
    </contour>
  </outline>
</glyph>
<glyph name="Udieresis" format="2">
  <advance width="729"/>
  <unicode hex="00DC"/>
  <outline>
    <contour>
      <point x="22" y="620" type="line"/>
      <point x="22" y="671" type="line"/>
      <point x="318" y="671" type="line"/>
      <point x="318" y="620" type="line"/>
      <point x="264" y="615" type="line" smooth="yes"/>
      <point x="253" y="614"/>
      <point x="242" y="606"/>
      <point x="242" y="593" type="curve" smooth="yes"/>
      <point x="242" y="246" type="line" smooth="yes"/>
      <point x="242" y="121"/>
      <point x="294" y="67"/>
      <point x="404" y="67" type="curve" smooth="yes"/>
      <point x="509" y="67"/>
      <point x="552" y="138"/>
      <point x="552" y="246" type="curve" smooth="yes"/>
      <point x="552" y="593" type="line" smooth="yes"/>
      <point x="552" y="606"/>
      <point x="542" y="614"/>
      <point x="530" y="615" type="curve" smooth="yes"/>
      <point x="473" y="620" type="line"/>
      <point x="473" y="671" type="line"/>
      <point x="703" y="671" type="line"/>
      <point x="703" y="620" type="line"/>
      <point x="650" y="615" type="line" smooth="yes"/>
      <point x="639" y="614"/>
      <point x="628" y="606"/>
      <point x="628" y="593" type="curve" smooth="yes"/>
      <point x="628" y="254" type="line" smooth="yes"/>
      <point x="628" y="57"/>
      <point x="541" y="-16"/>
      <point x="354" y="-16" type="curve" smooth="yes"/>
      <point x="182" y="-16"/>
      <point x="99" y="78"/>
      <point x="99" y="254" type="curve" smooth="yes"/>
      <point x="99" y="593" type="line" smooth="yes"/>
      <point x="99" y="606"/>
      <point x="88" y="614"/>
      <point x="76" y="615" type="curve" smooth="yes"/>
    </contour>
    <contour>
      <point x="188" y="816" type="curve" smooth="yes"/>
      <point x="188" y="854"/>
      <point x="220" y="885"/>
      <point x="258" y="885" type="curve" smooth="yes"/>
      <point x="296" y="885"/>
      <point x="326" y="854"/>
      <point x="326" y="816" type="curve" smooth="yes"/>
      <point x="326" y="778"/>
      <point x="296" y="747"/>
      <point x="258" y="747" type="curve" smooth="yes"/>
      <point x="220" y="747"/>
      <point x="188" y="778"/>
    </contour>
    <contour>
      <point x="398" y="816" type="curve" smooth="yes"/>
      <point x="398" y="854"/>
      <point x="430" y="885"/>
      <point x="468" y="885" type="curve" smooth="yes"/>
      <point x="506" y="885"/>
      <point x="536" y="854"/>
      <point x="536" y="816" type="curve" smooth="yes"/>
      <point x="536" y="778"/>
      <point x="506" y="747"/>
      <point x="468" y="747" type="curve" smooth="yes"/>
      <point x="430" y="747"/>
      <point x="398" y="778"/>
    </contour>
  </outline>
</glyph>
<glyph name="germandbls" format="2">
  <advance width="676"/>
  <unicode hex="00DF"/>
  <outline>
    <contour>
      <point x="27" y="0" type="line"/>
      <point x="27" y="47" type="line"/>
      <point x="67" y="50" type="line" smooth="yes"/>
      <point x="79" y="51"/>
      <point x="90" y="58"/>
      <point x="90" y="72" type="curve" smooth="yes"/>
      <point x="90" y="443" type="line" smooth="yes"/>
      <point x="90" y="538"/>
      <point x="131" y="747"/>
      <point x="372" y="747" type="curve" smooth="yes"/>
      <point x="473" y="747"/>
      <point x="575" y="687"/>
      <point x="575" y="560" type="curve" smooth="yes"/>
      <point x="575" y="528"/>
      <point x="572" y="497"/>
      <point x="565" y="472" type="curve"/>
      <point x="558" y="473"/>
      <point x="546" y="474"/>
      <point x="538" y="474" type="curve" smooth="yes"/>
      <point x="535" y="474" type="line" smooth="yes"/>
      <point x="494" y="474"/>
      <point x="445" y="453"/>
      <point x="445" y="403" type="curve" smooth="yes"/>
      <point x="445" y="365"/>
      <point x="483" y="340"/>
      <point x="527" y="312" type="curve" smooth="yes"/>
      <point x="583" y="277"/>
      <point x="646" y="235"/>
      <point x="646" y="157" type="curve" smooth="yes"/>
      <point x="646" y="53"/>
      <point x="553" y="-12"/>
      <point x="449" y="-12" type="curve" smooth="yes"/>
      <point x="378" y="-12"/>
      <point x="318" y="8"/>
      <point x="318" y="8" type="curve"/>
      <point x="318" y="153" type="line"/>
      <point x="384" y="153" type="line"/>
      <point x="392" y="59" type="line"/>
      <point x="392" y="59"/>
      <point x="407" y="45"/>
      <point x="444" y="45" type="curve" smooth="yes"/>
      <point x="492" y="45"/>
      <point x="521" y="85"/>
      <point x="521" y="121" type="curve" smooth="yes"/>
      <point x="521" y="173"/>
      <point x="475" y="199"/>
      <point x="427" y="225" type="curve" smooth="yes"/>
      <point x="373" y="255"/>
      <point x="315" y="286"/>
      <point x="315" y="359" type="curve" smooth="yes"/>
      <point x="315" y="434"/>
      <point x="364" y="477"/>
      <point x="428" y="493" type="curve"/>
      <point x="434" y="515"/>
      <point x="437" y="548"/>
      <point x="437" y="570" type="curve" smooth="yes"/>
      <point x="437" y="619"/>
      <point x="410" y="686"/>
      <point x="347" y="686" type="curve" smooth="yes"/>
      <point x="227" y="686"/>
      <point x="224" y="533"/>
      <point x="224" y="498" type="curve" smooth="yes"/>
      <point x="224" y="72" type="line" smooth="yes"/>
      <point x="224" y="58"/>
      <point x="235" y="51"/>
      <point x="247" y="50" type="curve" smooth="yes"/>
      <point x="287" y="47" type="line"/>
      <point x="287" y="0" type="line"/>
    </contour>
  </outline>
</glyph>
<glyph name="edieresis" format="2">
  <advance width="528"/>
  <unicode hex="00EB"/>
  <outline>
    <contour>
      <point x="32" y="238" type="curve" smooth="yes"/>
      <point x="32" y="389"/>
      <point x="132" y="500"/>
      <point x="284" y="500" type="curve" smooth="yes"/>
      <point x="441" y="500"/>
      <point x="498" y="388"/>
      <point x="498" y="272" type="curve" smooth="yes"/>
      <point x="498" y="248" type="line"/>
      <point x="170" y="248" type="line"/>
      <point x="170" y="139"/>
      <point x="226" y="71"/>
      <point x="324" y="71" type="curve" smooth="yes"/>
      <point x="425" y="71"/>
      <point x="498" y="127"/>
      <point x="498" y="127" type="curve"/>
      <point x="498" y="47" type="line"/>
      <point x="498" y="47"/>
      <point x="414" y="-12"/>
      <point x="287" y="-12" type="curve" smooth="yes"/>
      <point x="117" y="-12"/>
      <point x="32" y="99"/>
    </contour>
    <contour>
      <point x="110" y="629" type="curve" smooth="yes"/>
      <point x="110" y="667"/>
      <point x="141" y="698"/>
      <point x="179" y="698" type="curve" smooth="yes"/>
      <point x="217" y="698"/>
      <point x="248" y="667"/>
      <point x="248" y="629" type="curve" smooth="yes"/>
      <point x="248" y="591"/>
      <point x="217" y="560"/>
      <point x="179" y="560" type="curve" smooth="yes"/>
      <point x="141" y="560"/>
      <point x="110" y="591"/>
    </contour>
    <contour>
      <point x="175" y="304" type="curve"/>
      <point x="355" y="304" type="line"/>
      <point x="355" y="326" type="line" smooth="yes"/>
      <point x="355" y="390"/>
      <point x="332" y="441"/>
      <point x="273" y="441" type="curve" smooth="yes"/>
      <point x="199" y="441"/>
      <point x="175" y="367"/>
    </contour>
    <contour>
      <point x="320" y="629" type="curve" smooth="yes"/>
      <point x="320" y="667"/>
      <point x="351" y="698"/>
      <point x="389" y="698" type="curve" smooth="yes"/>
      <point x="427" y="698"/>
      <point x="458" y="667"/>
      <point x="458" y="629" type="curve" smooth="yes"/>
      <point x="458" y="591"/>
      <point x="427" y="560"/>
      <point x="389" y="560" type="curve" smooth="yes"/>
      <point x="351" y="560"/>
      <point x="320" y="591"/>
    </contour>
  </outline>
</glyph>
<glyph name="eth" format="2">
  <advance width="578"/>
  <unicode hex="00F0"/>
  <outline>
    <contour>
      <point x="32" y="239" type="curve" smooth="yes"/>
      <point x="32" y="373"/>
      <point x="119" y="500"/>
      <point x="271" y="500" type="curve" smooth="yes"/>
      <point x="299" y="500"/>
      <point x="330" y="492"/>
      <point x="344" y="488" type="curve"/>
      <point x="340" y="494"/>
      <point x="294" y="562"/>
      <point x="277" y="579" type="curve"/>
      <point x="157" y="515" type="line"/>
      <point x="133" y="561" type="line"/>
      <point x="241" y="618" type="line"/>
      <point x="208" y="653" type="line"/>
      <point x="119" y="656" type="line"/>
      <point x="119" y="700" type="line"/>
      <point x="276" y="752" type="line"/>
      <point x="353" y="677" type="line"/>
      <point x="467" y="738" type="line"/>
      <point x="492" y="692" type="line"/>
      <point x="385" y="635" type="line"/>
      <point x="385" y="635"/>
      <point x="546" y="464"/>
      <point x="546" y="262" type="curve" smooth="yes"/>
      <point x="546" y="85"/>
      <point x="441" y="-12"/>
      <point x="299" y="-12" type="curve" smooth="yes"/>
      <point x="118" y="-12"/>
      <point x="32" y="101"/>
    </contour>
    <contour>
      <point x="179" y="238" type="curve" smooth="yes"/>
      <point x="179" y="140"/>
      <point x="203" y="44"/>
      <point x="292" y="44" type="curve" smooth="yes"/>
      <point x="378" y="44"/>
      <point x="404" y="145"/>
      <point x="404" y="256" type="curve" smooth="yes"/>
      <point x="404" y="358"/>
      <point x="378" y="413"/>
      <point x="370" y="429" type="curve"/>
      <point x="370" y="429"/>
      <point x="341" y="448"/>
      <point x="312" y="448" type="curve" smooth="yes"/>
      <point x="215" y="448"/>
      <point x="179" y="346"/>
    </contour>
  </outline>
</glyph>
<glyph name="thorn" format="2">
  <advance width="604"/>
  <unicode hex="00FE"/>
  <outline>
    <contour>
      <point x="24" y="-172" type="line"/>
      <point x="68" y="-169" type="line"/>
      <point x="80" y="-169"/>
      <point x="90" y="-159"/>
      <point x="90" y="-146" type="curve" smooth="yes"/>
      <point x="90" y="649" type="line"/>
      <point x="24" y="649" type="line"/>
      <point x="24" y="690" type="line"/>
      <point x="172" y="740" type="line"/>
      <point x="224" y="740" type="line"/>
      <point x="224" y="437" type="line"/>
      <point x="224" y="437"/>
      <point x="304" y="500"/>
      <point x="385" y="500" type="curve" smooth="yes"/>
      <point x="507" y="500"/>
      <point x="572" y="377"/>
      <point x="572" y="258" type="curve" smooth="yes"/>
      <point x="572" y="96"/>
      <point x="467" y="-12"/>
      <point x="302" y="-12" type="curve" smooth="yes"/>
      <point x="262" y="-12"/>
      <point x="224" y="-2"/>
      <point x="224" y="-2" type="curve"/>
      <point x="224" y="-146" type="line" smooth="yes"/>
      <point x="224" y="-159"/>
      <point x="233" y="-169"/>
      <point x="246" y="-169" type="curve"/>
      <point x="299" y="-172" type="line"/>
      <point x="299" y="-219" type="line"/>
      <point x="24" y="-219" type="line"/>
    </contour>
    <contour>
      <point x="224" y="54" type="line"/>
      <point x="224" y="54"/>
      <point x="258" y="42"/>
      <point x="279" y="42" type="curve" smooth="yes"/>
      <point x="375" y="42"/>
      <point x="424" y="131"/>
      <point x="424" y="243" type="curve" smooth="yes"/>
      <point x="424" y="331"/>
      <point x="385" y="409"/>
      <point x="298" y="409" type="curve" smooth="yes"/>
      <point x="263" y="409"/>
      <point x="224" y="394"/>
      <point x="224" y="394" type="curve"/>
    </contour>
  </outline>
</glyph>
<glyph name="Abreve" format="2">
  <advance width="686"/>
  <unicode hex="0102"/>
  <outline>
    <contour>
      <point x="5" y="0" type="line"/>
      <point x="5" y="51" type="line"/>
      <point x="61" y="59" type="line"/>
      <point x="285" y="687" type="line"/>
      <point x="399" y="687" type="line"/>
      <point x="621" y="77" type="line"/>
      <point x="626" y="65"/>
      <point x="629" y="61"/>
      <point x="643" y="58" type="curve"/>
      <point x="681" y="51" type="line"/>
      <point x="681" y="0" type="line"/>
      <point x="405" y="0" type="line"/>
      <point x="405" y="51" type="line"/>
      <point x="464" y="58" type="line"/>
      <point x="469" y="59"/>
      <point x="474" y="65"/>
      <point x="474" y="71" type="curve"/>
      <point x="474" y="72"/>
      <point x="474" y="74"/>
      <point x="473" y="75" type="curve"/>
      <point x="419" y="234" type="line"/>
      <point x="205" y="234" type="line"/>
      <point x="150" y="79" type="line"/>
      <point x="149" y="78"/>
      <point x="149" y="76"/>
      <point x="149" y="75" type="curve"/>
      <point x="149" y="67"/>
      <point x="158" y="59"/>
      <point x="164" y="58" type="curve"/>
      <point x="220" y="51" type="line"/>
      <point x="220" y="0" type="line"/>
    </contour>
    <contour>
      <point x="186" y="910" type="curve"/>
      <point x="238" y="910" type="line"/>
      <point x="249" y="859"/>
      <point x="288" y="828"/>
      <point x="342" y="828" type="curve" smooth="yes"/>
      <point x="396" y="828"/>
      <point x="435" y="858"/>
      <point x="446" y="910" type="curve"/>
      <point x="498" y="910" type="line"/>
      <point x="498" y="810"/>
      <point x="438" y="747"/>
      <point x="342" y="747" type="curve" smooth="yes"/>
      <point x="246" y="747"/>
      <point x="186" y="810"/>
    </contour>
    <contour>
      <point x="224" y="293" type="line"/>
      <point x="394" y="293" type="line"/>
      <point x="308" y="533" type="line"/>
    </contour>
  </outline>
</glyph>
<glyph name="Ccaron" format="2">
  <advance width="636"/>
  <unicode hex="010C"/>
  <outline>
    <contour>
      <point x="37" y="336" type="curve" smooth="yes"/>
      <point x="37" y="539"/>
      <point x="186" y="687"/>
      <point x="389" y="687" type="curve" smooth="yes"/>
      <point x="456" y="687"/>
      <point x="492" y="680"/>
      <point x="600" y="645" type="curve"/>
      <point x="600" y="475" type="line"/>
      <point x="522" y="475" type="line"/>
      <point x="500" y="587" type="line" smooth="yes"/>
      <point x="497" y="603"/>
      <point x="455" y="619"/>
      <point x="416" y="619" type="curve" smooth="yes"/>
      <point x="280" y="619"/>
      <point x="194" y="508"/>
      <point x="194" y="334" type="curve" smooth="yes"/>
      <point x="194" y="160"/>
      <point x="284" y="49"/>
      <point x="424" y="49" type="curve" smooth="yes"/>
      <point x="468" y="49"/>
      <point x="496" y="61"/>
      <point x="499" y="81" type="curve"/>
      <point x="521" y="199" type="line"/>
      <point x="600" y="199" type="line"/>
      <point x="600" y="24" type="line"/>
      <point x="542" y="1"/>
      <point x="454" y="-16"/>
      <point x="388" y="-16" type="curve" smooth="yes"/>
      <point x="183" y="-16"/>
      <point x="37" y="130"/>
    </contour>
    <contour>
      <point x="219" y="918" type="line"/>
      <point x="302" y="918" type="line"/>
      <point x="389" y="824" type="line"/>
      <point x="476" y="918" type="line"/>
      <point x="559" y="918" type="line"/>
      <point x="448" y="747" type="line"/>
      <point x="330" y="747" type="line"/>
    </contour>
  </outline>
</glyph>
<glyph name="dcroat" format="2">
  <advance width="608"/>
  <unicode hex="0111"/>
  <outline>
    <contour>
      <point x="32" y="233" type="curve" smooth="yes"/>
      <point x="32" y="405"/>
      <point x="142" y="500"/>
      <point x="293" y="500" type="curve" smooth="yes"/>
      <point x="331" y="500"/>
      <point x="386" y="491"/>
      <point x="386" y="491" type="curve"/>
      <point x="386" y="535" type="line"/>
      <point x="241" y="535" type="line"/>
      <point x="241" y="598" type="line"/>
      <point x="386" y="598" type="line"/>
      <point x="386" y="649" type="line"/>
      <point x="312" y="649" type="line"/>
      <point x="312" y="690" type="line"/>
      <point x="468" y="740" type="line"/>
      <point x="519" y="740" type="line"/>
      <point x="519" y="598" type="line"/>
      <point x="609" y="598" type="line"/>
      <point x="609" y="535" type="line"/>
      <point x="519" y="535" type="line"/>
      <point x="519" y="73" type="line" smooth="yes"/>
      <point x="519" y="61"/>
      <point x="529" y="51"/>
      <point x="541" y="50" type="curve" smooth="yes"/>
      <point x="583" y="47" type="line"/>
      <point x="583" y="0" type="line"/>
      <point x="386" y="0" type="line"/>
      <point x="386" y="58" type="line"/>
      <point x="371" y="44"/>
      <point x="301" y="-12"/>
      <point x="228" y="-12" type="curve" smooth="yes"/>
      <point x="106" y="-12"/>
      <point x="32" y="92"/>
    </contour>
    <contour>
      <point x="178" y="256" type="curve" smooth="yes"/>
      <point x="178" y="151"/>
      <point x="221" y="80"/>
      <point x="308" y="80" type="curve" smooth="yes"/>
      <point x="344" y="80"/>
      <point x="386" y="99"/>
      <point x="386" y="99" type="curve"/>
      <point x="386" y="425" type="line"/>
      <point x="386" y="425"/>
      <point x="345" y="440"/>
      <point x="315" y="440" type="curve" smooth="yes"/>
      <point x="222" y="440"/>
      <point x="178" y="359"/>
    </contour>
  </outline>
</glyph>
<glyph name="ebreve" format="2">
  <advance width="528"/>
  <unicode hex="0115"/>
  <outline>
    <contour>
      <point x="32" y="238" type="curve" smooth="yes"/>
      <point x="32" y="389"/>
      <point x="132" y="500"/>
      <point x="284" y="500" type="curve" smooth="yes"/>
      <point x="441" y="500"/>
      <point x="498" y="388"/>
      <point x="498" y="272" type="curve" smooth="yes"/>
      <point x="498" y="248" type="line"/>
      <point x="170" y="248" type="line"/>
      <point x="170" y="139"/>
      <point x="226" y="71"/>
      <point x="324" y="71" type="curve" smooth="yes"/>
      <point x="425" y="71"/>
      <point x="498" y="127"/>
      <point x="498" y="127" type="curve"/>
      <point x="498" y="47" type="line"/>
      <point x="498" y="47"/>
      <point x="414" y="-12"/>
      <point x="287" y="-12" type="curve" smooth="yes"/>
      <point x="117" y="-12"/>
      <point x="32" y="99"/>
    </contour>
    <contour>
      <point x="128" y="723" type="curve"/>
      <point x="180" y="723" type="line"/>
      <point x="191" y="672"/>
      <point x="230" y="641"/>
      <point x="284" y="641" type="curve" smooth="yes"/>
      <point x="338" y="641"/>
      <point x="377" y="671"/>
      <point x="388" y="723" type="curve"/>
      <point x="440" y="723" type="line"/>
      <point x="440" y="623"/>
      <point x="380" y="560"/>
      <point x="284" y="560" type="curve" smooth="yes"/>
      <point x="188" y="560"/>
      <point x="128" y="623"/>
    </contour>
    <contour>
      <point x="175" y="304" type="curve"/>
      <point x="355" y="304" type="line"/>
      <point x="355" y="326" type="line" smooth="yes"/>
      <point x="355" y="390"/>
      <point x="332" y="441"/>
      <point x="273" y="441" type="curve" smooth="yes"/>
      <point x="199" y="441"/>
      <point x="175" y="367"/>
    </contour>
  </outline>
</glyph>
<glyph name="Eogonek" format="2">
  <advance width="598"/>
  <unicode hex="0118"/>
  <outline>
    <contour>
      <point x="26" y="0" type="line"/>
      <point x="26" y="51" type="line"/>
      <point x="81" y="56" type="line" smooth="yes"/>
      <point x="93" y="57"/>
      <point x="104" y="65"/>
      <point x="104" y="78" type="curve" smooth="yes"/>
      <point x="104" y="593" type="line" smooth="yes"/>
      <point x="104" y="606"/>
      <point x="93" y="614"/>
      <point x="81" y="615" type="curve" smooth="yes"/>
      <point x="26" y="620" type="line"/>
      <point x="26" y="671" type="line"/>
      <point x="536" y="671" type="line"/>
      <point x="536" y="511" type="line"/>
      <point x="464" y="511" type="line"/>
      <point x="448" y="594" type="line" smooth="yes"/>
      <point x="446" y="604"/>
      <point x="439" y="613"/>
      <point x="430" y="613" type="curve" smooth="yes"/>
      <point x="244" y="613" type="line"/>
      <point x="244" y="378" type="line"/>
      <point x="363" y="378" type="line" smooth="yes"/>
      <point x="372" y="378"/>
      <point x="379" y="389"/>
      <point x="380" y="396" type="curve" smooth="yes"/>
      <point x="389" y="464" type="line"/>
      <point x="451" y="464" type="line"/>
      <point x="451" y="229" type="line"/>
      <point x="389" y="229" type="line"/>
      <point x="380" y="297" type="line" smooth="yes"/>
      <point x="379" y="304"/>
      <point x="372" y="315"/>
      <point x="363" y="315" type="curve" smooth="yes"/>
      <point x="244" y="315" type="line"/>
      <point x="244" y="60" type="line"/>
      <point x="462" y="60" type="line" smooth="yes"/>
      <point x="470" y="60"/>
      <point x="479" y="72"/>
      <point x="480" y="79" type="curve" smooth="yes"/>
      <point x="495" y="183" type="line"/>
      <point x="568" y="183" type="line"/>
      <point x="568" y="0" type="line"/>
    </contour>
    <contour>
      <point x="259" y="-118" type="curve" smooth="yes"/>
      <point x="259" y="-76"/>
      <point x="290" y="-28"/>
      <point x="340" y="7" type="curve"/>
      <point x="403" y="7" type="line"/>
      <point x="361" y="-25"/>
      <point x="340" y="-57"/>
      <point x="340" y="-92" type="curve" smooth="yes"/>
      <point x="340" y="-124"/>
      <point x="360" y="-144"/>
      <point x="390" y="-144" type="curve" smooth="yes"/>
      <point x="406" y="-144"/>
      <point x="427" y="-135"/>
      <point x="437" y="-125" type="curve"/>
      <point x="465" y="-171" type="line"/>
      <point x="437" y="-192"/>
      <point x="407" y="-202"/>
      <point x="370" y="-202" type="curve" smooth="yes"/>
      <point x="303" y="-202"/>
      <point x="259" y="-168"/>
    </contour>
  </outline>
</glyph>
<glyph name="gcircumflex" format="2">
  <advance width="555"/>
  <unicode hex="011D"/>
  <outline>
    <contour>
      <point x="32" y="-76" type="curve" smooth="yes"/>
      <point x="32" y="2"/>
      <point x="96" y="29"/>
      <point x="132" y="29" type="curve"/>
      <point x="123" y="47"/>
      <point x="119" y="69"/>
      <point x="119" y="82" type="curve" smooth="yes"/>
      <point x="119" y="116"/>
      <point x="137" y="141"/>
      <point x="175" y="175" type="curve"/>
      <point x="140" y="183"/>
      <point x="52" y="221"/>
      <point x="52" y="325" type="curve" smooth="yes"/>
      <point x="52" y="445"/>
      <point x="151" y="500"/>
      <point x="273" y="500" type="curve" smooth="yes"/>
      <point x="336" y="500"/>
      <point x="383" y="482"/>
      <point x="416" y="469" type="curve"/>
      <point x="546" y="469" type="line"/>
      <point x="546" y="410" type="line"/>
      <point x="458" y="410" type="line"/>
      <point x="462" y="404"/>
      <point x="478" y="375"/>
      <point x="478" y="334" type="curve" smooth="yes"/>
      <point x="478" y="209"/>
      <point x="351" y="167"/>
      <point x="258" y="167" type="curve" smooth="yes"/>
      <point x="251" y="167"/>
      <point x="245" y="167"/>
      <point x="239" y="168" type="curve"/>
      <point x="221" y="156"/>
      <point x="208" y="143"/>
      <point x="208" y="126" type="curve" smooth="yes"/>
      <point x="208" y="120"/>
      <point x="209" y="115"/>
      <point x="212" y="108" type="curve"/>
      <point x="431" y="90"/>
      <point x="516" y="44"/>
      <point x="516" y="-40" type="curve" smooth="yes"/>
      <point x="516" y="-156"/>
      <point x="377" y="-231"/>
      <point x="246" y="-231" type="curve" smooth="yes"/>
      <point x="141" y="-231"/>
      <point x="32" y="-183"/>
    </contour>
    <contour>
      <point x="103" y="560" type="line"/>
      <point x="214" y="731" type="line"/>
      <point x="332" y="731" type="line"/>
      <point x="443" y="560" type="line"/>
      <point x="360" y="560" type="line"/>
      <point x="273" y="655" type="line"/>
      <point x="186" y="560" type="line"/>
    </contour>
    <contour>
      <point x="164" y="-64" type="curve" smooth="yes"/>
      <point x="164" y="-127"/>
      <point x="221" y="-176"/>
      <point x="274" y="-176" type="curve" smooth="yes"/>
      <point x="337" y="-176"/>
      <point x="387" y="-134"/>
      <point x="387" y="-69" type="curve" smooth="yes"/>
      <point x="387" y="-3"/>
      <point x="254" y="15"/>
      <point x="195" y="15" type="curve"/>
      <point x="179" y="-5"/>
      <point x="164" y="-24"/>
    </contour>
    <contour>
      <point x="190" y="335" type="curve" smooth="yes"/>
      <point x="190" y="276"/>
      <point x="214" y="215"/>
      <point x="269" y="215" type="curve" smooth="yes"/>
      <point x="323" y="215"/>
      <point x="346" y="277"/>
      <point x="346" y="336" type="curve" smooth="yes"/>
      <point x="346" y="391"/>
      <point x="321" y="451"/>
      <point x="271" y="451" type="curve" smooth="yes"/>
      <point x="211" y="451"/>
      <point x="190" y="392"/>
    </contour>
  </outline>
</glyph>
<glyph name="Itilde" format="2">
  <advance width="358"/>
  <unicode hex="0128"/>
  <outline>
    <contour>
      <point x="4" y="747" type="line"/>
      <point x="21" y="816"/>
      <point x="57" y="871"/>
      <point x="124" y="871" type="curve" smooth="yes"/>
      <point x="150" y="871"/>
      <point x="167" y="860"/>
      <point x="186" y="848" type="curve"/>
      <point x="205" y="835"/>
      <point x="226" y="824"/>
      <point x="256" y="824" type="curve" smooth="yes"/>
      <point x="277" y="824"/>
      <point x="297" y="845"/>
      <point x="300" y="871" type="curve"/>
      <point x="354" y="871" type="line"/>
      <point x="337" y="802"/>
      <point x="302" y="747"/>
      <point x="234" y="747" type="curve" smooth="yes"/>
      <point x="209" y="747"/>
      <point x="190" y="758"/>
      <point x="172" y="770" type="curve" smooth="yes"/>
      <point x="152" y="783"/>
      <point x="132" y="795"/>
      <point x="102" y="795" type="curve" smooth="yes"/>
      <point x="80" y="795"/>
      <point x="61" y="774"/>
      <point x="58" y="747" type="curve"/>
    </contour>
    <contour>
      <point x="23" y="0" type="line"/>
      <point x="23" y="51" type="line"/>
      <point x="85" y="56" type="line" smooth="yes"/>
      <point x="97" y="57"/>
      <point x="107" y="65"/>
      <point x="107" y="78" type="curve" smooth="yes"/>
      <point x="107" y="593" type="line" smooth="yes"/>
      <point x="107" y="606"/>
      <point x="97" y="614"/>
      <point x="85" y="615" type="curve" smooth="yes"/>
      <point x="23" y="620" type="line"/>
      <point x="23" y="671" type="line"/>
      <point x="335" y="671" type="line"/>
      <point x="335" y="620" type="line"/>
      <point x="273" y="615" type="line" smooth="yes"/>
      <point x="262" y="614"/>
      <point x="250" y="606"/>
      <point x="250" y="593" type="curve" smooth="yes"/>
      <point x="250" y="78" type="line" smooth="yes"/>
      <point x="250" y="65"/>
      <point x="262" y="57"/>
      <point x="273" y="56" type="curve" smooth="yes"/>
      <point x="335" y="51" type="line"/>
      <point x="335" y="0" type="line"/>
    </contour>
  </outline>
</glyph>
<glyph name="itilde" format="2">
  <advance width="333"/>
  <unicode hex="0129"/>
  <outline>
    <contour>
      <point x="-10" y="560" type="line"/>
      <point x="7" y="629"/>
      <point x="43" y="684"/>
      <point x="110" y="684" type="curve" smooth="yes"/>
      <point x="136" y="684"/>
      <point x="154" y="673"/>
      <point x="173" y="661" type="curve"/>
      <point x="192" y="648"/>
      <point x="214" y="637"/>
      <point x="244" y="637" type="curve" smooth="yes"/>
      <point x="265" y="637"/>
      <point x="285" y="658"/>
      <point x="288" y="684" type="curve"/>
      <point x="342" y="684" type="line"/>
      <point x="325" y="615"/>
      <point x="288" y="560"/>
      <point x="220" y="560" type="curve" smooth="yes"/>
      <point x="195" y="560"/>
      <point x="177" y="571"/>
      <point x="159" y="583" type="curve" smooth="yes"/>
      <point x="139" y="596"/>
      <point x="118" y="608"/>
      <point x="88" y="608" type="curve" smooth="yes"/>
      <point x="66" y="608"/>
      <point x="47" y="587"/>
      <point x="44" y="560" type="curve"/>
    </contour>
    <contour>
      <point x="32" y="0" type="line"/>
      <point x="32" y="47" type="line"/>
      <point x="78" y="50" type="line" smooth="yes"/>
      <point x="90" y="51"/>
      <point x="100" y="61"/>
      <point x="100" y="73" type="curve" smooth="yes"/>
      <point x="100" y="409" type="line"/>
      <point x="36" y="409" type="line"/>
      <point x="36" y="450" type="line"/>
      <point x="182" y="500" type="line"/>
      <point x="233" y="500" type="line"/>
      <point x="233" y="73" type="line" smooth="yes"/>
      <point x="233" y="61"/>
      <point x="244" y="51"/>
      <point x="256" y="50" type="curve" smooth="yes"/>
      <point x="304" y="47" type="line"/>
      <point x="304" y="0" type="line"/>
    </contour>
  </outline>
</glyph>
<glyph name="ibreve" format="2">
  <advance width="333"/>
  <unicode hex="012D"/>
  <outline>
    <contour>
      <point x="10" y="723" type="curve"/>
      <point x="62" y="723" type="line"/>
      <point x="73" y="672"/>
      <point x="112" y="641"/>
      <point x="166" y="641" type="curve" smooth="yes"/>
      <point x="220" y="641"/>
      <point x="259" y="671"/>
      <point x="270" y="723" type="curve"/>
      <point x="322" y="723" type="line"/>
      <point x="322" y="623"/>
      <point x="262" y="560"/>
      <point x="166" y="560" type="curve" smooth="yes"/>
      <point x="70" y="560"/>
      <point x="10" y="623"/>
    </contour>
    <contour>
      <point x="32" y="0" type="line"/>
      <point x="32" y="47" type="line"/>
      <point x="78" y="50" type="line" smooth="yes"/>
      <point x="90" y="51"/>
      <point x="100" y="61"/>
      <point x="100" y="73" type="curve" smooth="yes"/>
      <point x="100" y="409" type="line"/>
      <point x="36" y="409" type="line"/>
      <point x="36" y="450" type="line"/>
      <point x="182" y="500" type="line"/>
      <point x="233" y="500" type="line"/>
      <point x="233" y="73" type="line" smooth="yes"/>
      <point x="233" y="61"/>
      <point x="244" y="51"/>
      <point x="256" y="50" type="curve" smooth="yes"/>
      <point x="304" y="47" type="line"/>
      <point x="304" y="0" type="line"/>
    </contour>
  </outline>
</glyph>
<glyph name="Iogonek" format="2">
  <advance width="358"/>
  <unicode hex="012E"/>
  <outline>
    <contour>
      <point x="23" y="0" type="line"/>
      <point x="23" y="51" type="line"/>
      <point x="85" y="56" type="line" smooth="yes"/>
      <point x="97" y="57"/>
      <point x="107" y="65"/>
      <point x="107" y="78" type="curve" smooth="yes"/>
      <point x="107" y="593" type="line" smooth="yes"/>
      <point x="107" y="606"/>
      <point x="97" y="614"/>
      <point x="85" y="615" type="curve" smooth="yes"/>
      <point x="23" y="620" type="line"/>
      <point x="23" y="671" type="line"/>
      <point x="335" y="671" type="line"/>
      <point x="335" y="620" type="line"/>
      <point x="273" y="615" type="line" smooth="yes"/>
      <point x="262" y="614"/>
      <point x="250" y="606"/>
      <point x="250" y="593" type="curve" smooth="yes"/>
      <point x="250" y="78" type="line" smooth="yes"/>
      <point x="250" y="65"/>
      <point x="262" y="57"/>
      <point x="273" y="56" type="curve" smooth="yes"/>
      <point x="335" y="51" type="line"/>
      <point x="335" y="0" type="line"/>
    </contour>
    <contour>
      <point x="66" y="-118" type="curve" smooth="yes"/>
      <point x="66" y="-76"/>
      <point x="98" y="-28"/>
      <point x="148" y="7" type="curve"/>
      <point x="210" y="7" type="line"/>
      <point x="168" y="-25"/>
      <point x="148" y="-57"/>
      <point x="148" y="-92" type="curve" smooth="yes"/>
      <point x="148" y="-124"/>
      <point x="168" y="-144"/>
      <point x="198" y="-144" type="curve" smooth="yes"/>
      <point x="214" y="-144"/>
      <point x="234" y="-135"/>
      <point x="244" y="-125" type="curve"/>
      <point x="272" y="-171" type="line"/>
      <point x="244" y="-192"/>
      <point x="215" y="-202"/>
      <point x="178" y="-202" type="curve" smooth="yes"/>
      <point x="111" y="-202"/>
      <point x="66" y="-168"/>
    </contour>
  </outline>
</glyph>
<glyph name="Lcommaaccent" format="2">
  <advance width="554"/>
  <unicode hex="013B"/>
  <outline>
    <contour>
      <point x="27" y="0" type="line"/>
      <point x="27" y="51" type="line"/>
      <point x="82" y="56" type="line" smooth="yes"/>
      <point x="94" y="57"/>
      <point x="104" y="65"/>
      <point x="104" y="78" type="curve" smooth="yes"/>
      <point x="104" y="593" type="line" smooth="yes"/>
      <point x="104" y="606"/>
      <point x="94" y="614"/>
      <point x="82" y="615" type="curve" smooth="yes"/>
      <point x="27" y="620" type="line"/>
      <point x="27" y="671" type="line"/>
      <point x="325" y="671" type="line"/>
      <point x="325" y="620" type="line"/>
      <point x="269" y="615" type="line" smooth="yes"/>
      <point x="257" y="614"/>
      <point x="247" y="606"/>
      <point x="247" y="593" type="curve" smooth="yes"/>
      <point x="247" y="61" type="line"/>
      <point x="421" y="61" type="line" smooth="yes"/>
      <point x="435" y="61"/>
      <point x="444" y="76"/>
      <point x="445" y="84" type="curve" smooth="yes"/>
      <point x="458" y="199" type="line"/>
      <point x="538" y="199" type="line"/>
      <point x="538" y="0" type="line"/>
    </contour>
    <contour>
      <point x="206" y="-118" type="curve" smooth="yes"/>
      <point x="206" y="-79"/>
      <point x="239" y="-60"/>
      <point x="274" y="-60" type="curve" smooth="yes"/>
      <point x="325" y="-60"/>
      <point x="360" y="-98"/>
      <point x="360" y="-145" type="curve" smooth="yes"/>
      <point x="360" y="-213"/>
      <point x="295" y="-261"/>
      <point x="218" y="-276" type="curve"/>
      <point x="218" y="-236" type="line"/>
      <point x="257" y="-225"/>
      <point x="288" y="-194"/>
      <point x="288" y="-162" type="curve"/>
      <point x="226" y="-162" type="line"/>
      <point x="213" y="-150"/>
      <point x="206" y="-134"/>
    </contour>
  </outline>
</glyph>
<glyph name="Lcaron" format="2">
  <advance width="554"/>
  <unicode hex="013D"/>
  <outline>
    <contour>
      <point x="27" y="0" type="line"/>
      <point x="27" y="51" type="line"/>
      <point x="82" y="56" type="line" smooth="yes"/>
      <point x="94" y="57"/>
      <point x="104" y="65"/>
      <point x="104" y="78" type="curve" smooth="yes"/>
      <point x="104" y="593" type="line" smooth="yes"/>
      <point x="104" y="606"/>
      <point x="94" y="614"/>
      <point x="82" y="615" type="curve" smooth="yes"/>
      <point x="27" y="620" type="line"/>
      <point x="27" y="671" type="line"/>
      <point x="325" y="671" type="line"/>
      <point x="325" y="620" type="line"/>
      <point x="269" y="615" type="line" smooth="yes"/>
      <point x="257" y="614"/>
      <point x="247" y="606"/>
      <point x="247" y="593" type="curve" smooth="yes"/>
      <point x="247" y="61" type="line"/>
      <point x="421" y="61" type="line" smooth="yes"/>
      <point x="435" y="61"/>
      <point x="444" y="76"/>
      <point x="445" y="84" type="curve" smooth="yes"/>
      <point x="458" y="199" type="line"/>
      <point x="538" y="199" type="line"/>
      <point x="538" y="0" type="line"/>
    </contour>
    <contour>
      <point x="358" y="413" type="line"/>
      <point x="435" y="456"/>
      <point x="453" y="500"/>
      <point x="453" y="549" type="curve" smooth="yes"/>
      <point x="453" y="559" type="line"/>
      <point x="394" y="559" type="line"/>
      <point x="389" y="565"/>
      <point x="374" y="583"/>
      <point x="374" y="614" type="curve" smooth="yes"/>
      <point x="374" y="656"/>
      <point x="397" y="687"/>
      <point x="447" y="687" type="curve" smooth="yes"/>
      <point x="500" y="687"/>
      <point x="537" y="642"/>
      <point x="537" y="583" type="curve" smooth="yes"/>
      <point x="537" y="435"/>
      <point x="422" y="386"/>
      <point x="373" y="375" type="curve"/>
    </contour>
  </outline>
</glyph>
<glyph name="Eng" format="2">
  <advance width="757"/>
  <unicode hex="014A"/>
  <outline>
    <contour>
      <point x="27" y="0" type="line"/>
      <point x="27" y="51" type="line"/>
      <point x="82" y="56" type="line" smooth="yes"/>
      <point x="93" y="57"/>
      <point x="104" y="70"/>
      <point x="104" y="83" type="curve" smooth="yes"/>
      <point x="104" y="602" type="line" smooth="yes"/>
      <point x="104" y="608"/>
      <point x="96" y="615"/>
      <point x="89" y="615" type="curve"/>
      <point x="29" y="620" type="line"/>
      <point x="29" y="671" type="line"/>
      <point x="248" y="671" type="line"/>
      <point x="248" y="609" type="line"/>
      <point x="266" y="642"/>
      <point x="389" y="687"/>
      <point x="460" y="687" type="curve" smooth="yes"/>
      <point x="594" y="687"/>
      <point x="668" y="609"/>
      <point x="668" y="467" type="curve" smooth="yes"/>
      <point x="668" y="-37" type="line" smooth="yes"/>
      <point x="668" y="-138"/>
      <point x="597" y="-231"/>
      <point x="503" y="-231" type="curve" smooth="yes"/>
      <point x="398" y="-231"/>
      <point x="326" y="-203"/>
      <point x="326" y="-128" type="curve" smooth="yes"/>
      <point x="326" y="-83"/>
      <point x="360" y="-47"/>
      <point x="399" y="-47" type="curve"/>
      <point x="461" y="-154" type="line"/>
      <point x="507" y="-154"/>
      <point x="525" y="-116"/>
      <point x="525" y="-65" type="curve" smooth="yes"/>
      <point x="525" y="462" type="line" smooth="yes"/>
      <point x="525" y="530"/>
      <point x="471" y="597"/>
      <point x="416" y="597" type="curve" smooth="yes"/>
      <point x="365" y="597"/>
      <point x="265" y="564"/>
      <point x="247" y="541" type="curve"/>
      <point x="247" y="83" type="line" smooth="yes"/>
      <point x="247" y="70"/>
      <point x="259" y="64"/>
      <point x="270" y="62" type="curve" smooth="yes"/>
      <point x="325" y="51" type="line"/>
      <point x="325" y="0" type="line"/>
    </contour>
  </outline>
</glyph>
<glyph name="Obreve" format="2">
  <advance width="755"/>
  <unicode hex="014E"/>
  <outline>
    <contour>
      <point x="218.5" y="910" type="curve"/>
      <point x="270.5" y="910" type="line"/>
      <point x="281.5" y="859"/>
      <point x="320.5" y="828"/>
      <point x="374.5" y="828" type="curve" smooth="yes"/>
      <point x="428.5" y="828"/>
      <point x="467.5" y="858"/>
      <point x="478.5" y="910" type="curve"/>
      <point x="531.5" y="910" type="line"/>
      <point x="531.5" y="810"/>
      <point x="470.5" y="747"/>
      <point x="374.5" y="747" type="curve" smooth="yes"/>
      <point x="278.5" y="747"/>
      <point x="218.5" y="810"/>
    </contour>
    <contour>
      <point x="37" y="340" type="curve" smooth="yes"/>
      <point x="37" y="537"/>
      <point x="162" y="687"/>
      <point x="375" y="687" type="curve" smooth="yes"/>
      <point x="583" y="687"/>
      <point x="720" y="526"/>
      <point x="720" y="332" type="curve" smooth="yes"/>
      <point x="720" y="141"/>
      <point x="585" y="-16"/>
      <point x="384" y="-16" type="curve" smooth="yes"/>
      <point x="184" y="-16"/>
      <point x="37" y="113"/>
    </contour>
    <contour>
      <point x="197" y="337" type="curve" smooth="yes"/>
      <point x="197" y="195"/>
      <point x="251" y="47"/>
      <point x="374" y="47" type="curve" smooth="yes"/>
      <point x="508" y="47"/>
      <point x="559" y="199"/>
      <point x="559" y="328" type="curve" smooth="yes"/>
      <point x="559" y="485"/>
      <point x="500" y="620"/>
      <point x="384" y="620" type="curve" smooth="yes"/>
      <point x="245" y="620"/>
      <point x="197" y="471"/>
    </contour>
  </outline>
</glyph>
<glyph name="Ohungarumlaut" format="2">
  <advance width="755"/>
  <unicode hex="0150"/>
  <outline>
    <contour>
      <point x="182" y="747" type="line"/>
      <point x="320" y="898" type="line" smooth="yes"/>
      <point x="342" y="923"/>
      <point x="355" y="930"/>
      <point x="382" y="930" type="curve" smooth="yes"/>
      <point x="425" y="930"/>
      <point x="440" y="901"/>
      <point x="440" y="877" type="curve" smooth="yes"/>
      <point x="440" y="864"/>
      <point x="429" y="843"/>
      <point x="414" y="835" type="curve" smooth="yes"/>
      <point x="252" y="747" type="line"/>
    </contour>
    <contour>
      <point x="398" y="747" type="line"/>
      <point x="534" y="898" type="line" smooth="yes"/>
      <point x="556" y="923"/>
      <point x="571" y="930"/>
      <point x="598" y="930" type="curve" smooth="yes"/>
      <point x="641" y="930"/>
      <point x="654" y="901"/>
      <point x="654" y="877" type="curve" smooth="yes"/>
      <point x="654" y="864"/>
      <point x="643" y="843"/>
      <point x="628" y="835" type="curve" smooth="yes"/>
      <point x="468" y="747" type="line"/>
    </contour>
    <contour>
      <point x="37" y="340" type="curve" smooth="yes"/>
      <point x="37" y="537"/>
      <point x="162" y="687"/>
      <point x="375" y="687" type="curve" smooth="yes"/>
      <point x="583" y="687"/>
      <point x="720" y="526"/>
      <point x="720" y="332" type="curve" smooth="yes"/>
      <point x="720" y="141"/>
      <point x="585" y="-16"/>
      <point x="384" y="-16" type="curve" smooth="yes"/>
      <point x="184" y="-16"/>
      <point x="37" y="113"/>
    </contour>
    <contour>
      <point x="197" y="337" type="curve" smooth="yes"/>
      <point x="197" y="195"/>
      <point x="251" y="47"/>
      <point x="374" y="47" type="curve" smooth="yes"/>
      <point x="508" y="47"/>
      <point x="559" y="199"/>
      <point x="559" y="328" type="curve" smooth="yes"/>
      <point x="559" y="485"/>
      <point x="500" y="620"/>
      <point x="384" y="620" type="curve" smooth="yes"/>
      <point x="245" y="620"/>
      <point x="197" y="471"/>
    </contour>
  </outline>
</glyph>
<glyph name="OE" format="2">
  <advance width="1012"/>
  <unicode hex="0152"/>
  <outline>
    <contour>
      <point x="37" y="335" type="curve" smooth="yes"/>
      <point x="37" y="469"/>
      <point x="93" y="682"/>
      <point x="354" y="682" type="curve" smooth="yes"/>
      <point x="483" y="682"/>
      <point x="533" y="591"/>
      <point x="535" y="586" type="curve"/>
      <point x="535" y="671" type="line"/>
      <point x="950" y="671" type="line"/>
      <point x="950" y="511" type="line"/>
      <point x="876" y="511" type="line"/>
      <point x="863" y="594" type="line"/>
      <point x="861" y="604"/>
      <point x="855" y="613"/>
      <point x="846" y="613" type="curve" smooth="yes"/>
      <point x="666" y="613" type="line"/>
      <point x="666" y="378" type="line"/>
      <point x="776" y="378" type="line" smooth="yes"/>
      <point x="785" y="378"/>
      <point x="793" y="389"/>
      <point x="793" y="396" type="curve"/>
      <point x="801" y="464" type="line"/>
      <point x="863" y="464" type="line"/>
      <point x="863" y="229" type="line"/>
      <point x="802" y="229" type="line"/>
      <point x="793" y="297" type="line"/>
      <point x="793" y="304"/>
      <point x="784" y="315"/>
      <point x="775" y="315" type="curve" smooth="yes"/>
      <point x="666" y="315" type="line"/>
      <point x="666" y="60" type="line"/>
      <point x="875" y="60" type="line" smooth="yes"/>
      <point x="883" y="60"/>
      <point x="892" y="72"/>
      <point x="894" y="79" type="curve"/>
      <point x="909" y="183" type="line"/>
      <point x="981" y="183" type="line"/>
      <point x="981" y="0" type="line"/>
      <point x="535" y="0" type="line"/>
      <point x="535" y="92" type="line"/>
      <point x="532" y="87"/>
      <point x="469" y="-12"/>
      <point x="333" y="-12" type="curve" smooth="yes"/>
      <point x="140" y="-12"/>
      <point x="37" y="160"/>
    </contour>
    <contour>
      <point x="194" y="337" type="curve" smooth="yes"/>
      <point x="194" y="205"/>
      <point x="244" y="58"/>
      <point x="365" y="58" type="curve" smooth="yes"/>
      <point x="473" y="58"/>
      <point x="537" y="172"/>
      <point x="537" y="330" type="curve" smooth="yes"/>
      <point x="537" y="479"/>
      <point x="482" y="614"/>
      <point x="372" y="614" type="curve" smooth="yes"/>
      <point x="233" y="614"/>
      <point x="194" y="459"/>
    </contour>
  </outline>
</glyph>
<glyph name="Racute" format="2">
  <advance width="704"/>
  <unicode hex="0154"/>
  <outline>
    <contour>
      <point x="28" y="0" type="line"/>
      <point x="28" y="51" type="line"/>
      <point x="81" y="56" type="line" smooth="yes"/>
      <point x="95" y="57"/>
      <point x="104" y="66"/>
      <point x="104" y="78" type="curve" smooth="yes"/>
      <point x="104" y="593" type="line" smooth="yes"/>
      <point x="104" y="605"/>
      <point x="95" y="614"/>
      <point x="81" y="615" type="curve" smooth="yes"/>
      <point x="28" y="620" type="line"/>
      <point x="28" y="671" type="line"/>
      <point x="360" y="671" type="line" smooth="yes"/>
      <point x="490" y="671"/>
      <point x="578" y="604"/>
      <point x="578" y="505" type="curve" smooth="yes"/>
      <point x="578" y="414"/>
      <point x="510" y="346"/>
      <point x="404" y="330" type="curve"/>
      <point x="483" y="315"/>
      <point x="521" y="273"/>
      <point x="552" y="170" type="curve" smooth="yes"/>
      <point x="579" y="78"/>
      <point x="614" y="51"/>
      <point x="704" y="51" type="curve"/>
      <point x="704" y="0" type="line"/>
      <point x="680" y="-3"/>
      <point x="664" y="-5"/>
      <point x="650" y="-9" type="curve"/>
      <point x="634" y="-13"/>
      <point x="619" y="-16"/>
      <point x="605" y="-16" type="curve" smooth="yes"/>
      <point x="502" y="-16"/>
      <point x="450" y="30"/>
      <point x="407" y="155" type="curve" smooth="yes"/>
      <point x="372" y="259"/>
      <point x="337" y="294"/>
      <point x="267" y="294" type="curve" smooth="yes"/>
      <point x="263.162" y="294"/>
      <point x="250.011" y="294"/>
      <point x="247" y="294" type="curve"/>
      <point x="247" y="78" type="line" smooth="yes"/>
      <point x="247" y="66"/>
      <point x="256" y="57"/>
      <point x="269" y="56" type="curve" smooth="yes"/>
      <point x="324" y="51" type="line"/>
      <point x="324" y="0" type="line"/>
    </contour>
    <contour>
      <point x="159" y="747" type="line"/>
      <point x="296" y="898" type="line" smooth="yes"/>
      <point x="319" y="923"/>
      <point x="332" y="930"/>
      <point x="359" y="930" type="curve" smooth="yes"/>
      <point x="402" y="930"/>
      <point x="417" y="901"/>
      <point x="417" y="877" type="curve" smooth="yes"/>
      <point x="417" y="864"/>
      <point x="405" y="843"/>
      <point x="391" y="835" type="curve" smooth="yes"/>
      <point x="229" y="747" type="line"/>
    </contour>
    <contour>
      <point x="247" y="353" type="line"/>
      <point x="280" y="353" type="line" smooth="yes"/>
      <point x="375" y="353"/>
      <point x="428" y="401"/>
      <point x="428" y="486" type="curve" smooth="yes"/>
      <point x="428" y="569"/>
      <point x="378" y="611"/>
      <point x="279" y="611" type="curve" smooth="yes"/>
      <point x="247" y="611" type="line"/>
    </contour>
  </outline>
</glyph>
<glyph name="Rcommaaccent" format="2">
  <advance width="704"/>
  <unicode hex="0156"/>
  <outline>
    <contour>
      <point x="28" y="0" type="line"/>
      <point x="28" y="51" type="line"/>
      <point x="81" y="56" type="line" smooth="yes"/>
      <point x="95" y="57"/>
      <point x="104" y="66"/>
      <point x="104" y="78" type="curve" smooth="yes"/>
      <point x="104" y="593" type="line" smooth="yes"/>
      <point x="104" y="605"/>
      <point x="95" y="614"/>
      <point x="81" y="615" type="curve" smooth="yes"/>
      <point x="28" y="620" type="line"/>
      <point x="28" y="671" type="line"/>
      <point x="360" y="671" type="line" smooth="yes"/>
      <point x="490" y="671"/>
      <point x="578" y="604"/>
      <point x="578" y="505" type="curve" smooth="yes"/>
      <point x="578" y="414"/>
      <point x="510" y="346"/>
      <point x="404" y="330" type="curve"/>
      <point x="483" y="315"/>
      <point x="521" y="273"/>
      <point x="552" y="170" type="curve" smooth="yes"/>
      <point x="579" y="78"/>
      <point x="614" y="51"/>
      <point x="704" y="51" type="curve"/>
      <point x="704" y="0" type="line"/>
      <point x="680" y="-3"/>
      <point x="664" y="-5"/>
      <point x="650" y="-9" type="curve"/>
      <point x="634" y="-13"/>
      <point x="619" y="-16"/>
      <point x="605" y="-16" type="curve" smooth="yes"/>
      <point x="502" y="-16"/>
      <point x="450" y="30"/>
      <point x="407" y="155" type="curve" smooth="yes"/>
      <point x="372" y="259"/>
      <point x="337" y="294"/>
      <point x="267" y="294" type="curve" smooth="yes"/>
      <point x="263.162" y="294"/>
      <point x="250.011" y="294"/>
      <point x="247" y="294" type="curve"/>
      <point x="247" y="78" type="line" smooth="yes"/>
      <point x="247" y="66"/>
      <point x="256" y="57"/>
      <point x="269" y="56" type="curve" smooth="yes"/>
      <point x="324" y="51" type="line"/>
      <point x="324" y="0" type="line"/>
    </contour>
    <contour>
      <point x="247" y="353" type="line"/>
      <point x="280" y="353" type="line" smooth="yes"/>
      <point x="375" y="353"/>
      <point x="428" y="401"/>
      <point x="428" y="486" type="curve" smooth="yes"/>
      <point x="428" y="569"/>
      <point x="378" y="611"/>
      <point x="279" y="611" type="curve" smooth="yes"/>
      <point x="247" y="611" type="line"/>
    </contour>
    <contour>
      <point x="318" y="-134" type="curve" smooth="yes"/>
      <point x="318" y="-95"/>
      <point x="351" y="-76"/>
      <point x="386" y="-76" type="curve" smooth="yes"/>
      <point x="437" y="-76"/>
      <point x="472" y="-114"/>
      <point x="472" y="-161" type="curve" smooth="yes"/>
      <point x="472" y="-229"/>
      <point x="408" y="-277"/>
      <point x="331" y="-292" type="curve"/>
      <point x="331" y="-252" type="line"/>
      <point x="370" y="-241"/>
      <point x="401" y="-210"/>
      <point x="401" y="-178" type="curve"/>
      <point x="338" y="-178" type="line"/>
      <point x="325" y="-166"/>
      <point x="318" y="-150"/>
    </contour>
  </outline>
</glyph>
<glyph name="Sacute" format="2">
  <advance width="536"/>
  <unicode hex="015A"/>
  <outline>
    <contour>
      <point x="37" y="22" type="curve"/>
      <point x="37" y="205" type="line"/>
      <point x="116" y="205" type="line"/>
      <point x="133" y="84" type="line"/>
      <point x="135" y="65"/>
      <point x="173" y="52"/>
      <point x="223" y="52" type="curve" smooth="yes"/>
      <point x="298" y="52"/>
      <point x="352" y="91"/>
      <point x="352" y="146" type="curve" smooth="yes"/>
      <point x="352" y="203"/>
      <point x="310" y="248"/>
      <point x="213" y="294" type="curve" smooth="yes"/>
      <point x="187" y="306" type="line" smooth="yes"/>
      <point x="95" y="350"/>
      <point x="51" y="407"/>
      <point x="51" y="484" type="curve" smooth="yes"/>
      <point x="51" y="603"/>
      <point x="150" y="687"/>
      <point x="292" y="687" type="curve" smooth="yes"/>
      <point x="394" y="687"/>
      <point x="481" y="647"/>
      <point x="481" y="647" type="curve"/>
      <point x="481" y="483" type="line"/>
      <point x="404" y="483" type="line"/>
      <point x="387" y="590" type="line"/>
      <point x="383" y="609"/>
      <point x="356" y="620"/>
      <point x="313" y="620" type="curve" smooth="yes"/>
      <point x="240" y="620"/>
      <point x="190" y="584"/>
      <point x="190" y="530" type="curve" smooth="yes"/>
      <point x="190" y="476"/>
      <point x="225" y="440"/>
      <point x="325" y="391" type="curve" smooth="yes"/>
      <point x="350" y="379" type="line" smooth="yes"/>
      <point x="455" y="328"/>
      <point x="499" y="273"/>
      <point x="499" y="196" type="curve" smooth="yes"/>
      <point x="499" y="70"/>
      <point x="391" y="-16"/>
      <point x="232" y="-16" type="curve" smooth="yes"/>
      <point x="128" y="-16"/>
      <point x="37" y="22"/>
    </contour>
    <contour>
      <point x="177" y="747" type="line"/>
      <point x="314" y="898" type="line" smooth="yes"/>
      <point x="337" y="923"/>
      <point x="350" y="930"/>
      <point x="377" y="930" type="curve" smooth="yes"/>
      <point x="420" y="930"/>
      <point x="435" y="901"/>
      <point x="435" y="877" type="curve" smooth="yes"/>
      <point x="435" y="864"/>
      <point x="423" y="843"/>
      <point x="409" y="835" type="curve" smooth="yes"/>
      <point x="247" y="747" type="line"/>
    </contour>
  </outline>
</glyph>
<glyph name="uni0162" format="2">
  <advance width="608"/>
  <unicode hex="0162"/>
  <outline>
    <contour>
      <point x="16" y="488" type="line"/>
      <point x="16" y="671" type="line"/>
      <point x="593" y="671" type="line"/>
      <point x="593" y="488" type="line"/>
      <point x="520" y="488" type="line"/>
      <point x="502" y="599" type="line"/>
      <point x="501" y="607"/>
      <point x="496" y="611"/>
      <point x="488" y="611" type="curve" smooth="yes"/>
      <point x="376" y="611" type="line"/>
      <point x="376" y="78" type="line" smooth="yes"/>
      <point x="376" y="65"/>
      <point x="386" y="57"/>
      <point x="398" y="56" type="curve" smooth="yes"/>
      <point x="457" y="51" type="line"/>
      <point x="457" y="0" type="line"/>
      <point x="152" y="0" type="line"/>
      <point x="152" y="51" type="line"/>
      <point x="210" y="56" type="line" smooth="yes"/>
      <point x="222" y="57"/>
      <point x="233" y="65"/>
      <point x="233" y="78" type="curve" smooth="yes"/>
      <point x="233" y="611" type="line"/>
      <point x="121" y="611" type="line" smooth="yes"/>
      <point x="113" y="611"/>
      <point x="107" y="607"/>
      <point x="106" y="599" type="curve"/>
      <point x="88" y="488" type="line"/>
    </contour>
    <contour>
      <point x="224" y="-236" type="curve"/>
      <point x="224" y="-186" type="line"/>
      <point x="224" y="-186"/>
      <point x="262" y="-194"/>
      <point x="286" y="-194" type="curve" smooth="yes"/>
      <point x="312" y="-194"/>
      <point x="346" y="-188"/>
      <point x="346" y="-160" type="curve" smooth="yes"/>
      <point x="346" y="-136"/>
      <point x="325" y="-126"/>
      <point x="302" y="-126" type="curve" smooth="yes"/>
      <point x="295" y="-126"/>
      <point x="280" y="-128"/>
      <point x="280" y="-128" type="curve"/>
      <point x="280" y="9" type="line"/>
      <point x="330" y="9" type="line"/>
      <point x="330" y="-73" type="line"/>
      <point x="333" y="-72"/>
      <point x="336" y="-71"/>
      <point x="344" y="-71" type="curve" smooth="yes"/>
      <point x="390" y="-71"/>
      <point x="428" y="-94"/>
      <point x="428" y="-147" type="curve" smooth="yes"/>
      <point x="428" y="-212"/>
      <point x="375" y="-247"/>
      <point x="304" y="-247" type="curve" smooth="yes"/>
      <point x="263" y="-247"/>
      <point x="224" y="-236"/>
    </contour>
  </outline>
</glyph>
<glyph name="tcaron" format="2">
  <advance width="375"/>
  <unicode hex="0165"/>
  <outline>
    <contour>
      <point x="24" y="424" type="line"/>
      <point x="24" y="464" type="line"/>
      <point x="101" y="510" type="line"/>
      <point x="155" y="616" type="line"/>
      <point x="224" y="616" type="line"/>
      <point x="224" y="488" type="line"/>
      <point x="363" y="488" type="line"/>
      <point x="363" y="424" type="line"/>
      <point x="224" y="424" type="line"/>
      <point x="224" y="152" type="line" smooth="yes"/>
      <point x="224" y="88"/>
      <point x="253" y="65"/>
      <point x="306" y="65" type="curve" smooth="yes"/>
      <point x="338" y="65"/>
      <point x="371" y="72"/>
      <point x="371" y="72" type="curve"/>
      <point x="371" y="22" type="line"/>
      <point x="371" y="22"/>
      <point x="292" y="-12"/>
      <point x="211" y="-12" type="curve" smooth="yes"/>
      <point x="122" y="-12"/>
      <point x="90" y="27"/>
      <point x="90" y="111" type="curve" smooth="yes"/>
      <point x="90" y="424" type="line"/>
    </contour>
    <contour>
      <point x="263" y="704" type="curve" smooth="yes"/>
      <point x="263" y="744"/>
      <point x="296" y="762"/>
      <point x="331" y="762" type="curve" smooth="yes"/>
      <point x="382" y="762"/>
      <point x="417" y="725"/>
      <point x="417" y="678" type="curve" smooth="yes"/>
      <point x="417" y="609"/>
      <point x="352" y="561"/>
      <point x="275" y="546" type="curve"/>
      <point x="275" y="586" type="line"/>
      <point x="314" y="597"/>
      <point x="346" y="628"/>
      <point x="346" y="660" type="curve"/>
      <point x="283" y="660" type="line"/>
      <point x="270" y="672"/>
      <point x="263" y="688"/>
    </contour>
  </outline>
</glyph>
<glyph name="Ubreve" format="2">
  <advance width="729"/>
  <unicode hex="016C"/>
  <outline>
    <contour>
      <point x="22" y="620" type="line"/>
      <point x="22" y="671" type="line"/>
      <point x="318" y="671" type="line"/>
      <point x="318" y="620" type="line"/>
      <point x="264" y="615" type="line" smooth="yes"/>
      <point x="253" y="614"/>
      <point x="242" y="606"/>
      <point x="242" y="593" type="curve" smooth="yes"/>
      <point x="242" y="246" type="line" smooth="yes"/>
      <point x="242" y="121"/>
      <point x="294" y="67"/>
      <point x="404" y="67" type="curve" smooth="yes"/>
      <point x="509" y="67"/>
      <point x="552" y="138"/>
      <point x="552" y="246" type="curve" smooth="yes"/>
      <point x="552" y="593" type="line" smooth="yes"/>
      <point x="552" y="606"/>
      <point x="542" y="614"/>
      <point x="530" y="615" type="curve" smooth="yes"/>
      <point x="473" y="620" type="line"/>
      <point x="473" y="671" type="line"/>
      <point x="703" y="671" type="line"/>
      <point x="703" y="620" type="line"/>
      <point x="650" y="615" type="line" smooth="yes"/>
      <point x="639" y="614"/>
      <point x="628" y="606"/>
      <point x="628" y="593" type="curve" smooth="yes"/>
      <point x="628" y="254" type="line" smooth="yes"/>
      <point x="628" y="57"/>
      <point x="541" y="-16"/>
      <point x="354" y="-16" type="curve" smooth="yes"/>
      <point x="182" y="-16"/>
      <point x="99" y="78"/>
      <point x="99" y="254" type="curve" smooth="yes"/>
      <point x="99" y="593" type="line" smooth="yes"/>
      <point x="99" y="606"/>
      <point x="88" y="614"/>
      <point x="76" y="615" type="curve" smooth="yes"/>
    </contour>
    <contour>
      <point x="206" y="910" type="curve"/>
      <point x="258" y="910" type="line"/>
      <point x="269" y="859"/>
      <point x="308" y="828"/>
      <point x="362" y="828" type="curve" smooth="yes"/>
      <point x="416" y="828"/>
      <point x="455" y="858"/>
      <point x="466" y="910" type="curve"/>
      <point x="519" y="910" type="line"/>
      <point x="519" y="810"/>
      <point x="458" y="747"/>
      <point x="362" y="747" type="curve" smooth="yes"/>
      <point x="266" y="747"/>
      <point x="206" y="810"/>
    </contour>
  </outline>
</glyph>
<glyph name="uring" format="2">
  <advance width="620"/>
  <unicode hex="016F"/>
  <outline>
    <contour>
      <point x="25" y="396" type="line"/>
      <point x="25" y="437" type="line"/>
      <point x="172" y="488" type="line"/>
      <point x="224" y="488" type="line"/>
      <point x="224" y="190" type="line" smooth="yes"/>
      <point x="224" y="141"/>
      <point x="231" y="79"/>
      <point x="316" y="79" type="curve" smooth="yes"/>
      <point x="358" y="79"/>
      <point x="396" y="96"/>
      <point x="396" y="96" type="curve"/>
      <point x="396" y="396" type="line"/>
      <point x="333" y="396" type="line"/>
      <point x="333" y="437" type="line"/>
      <point x="479" y="488" type="line"/>
      <point x="530" y="488" type="line"/>
      <point x="530" y="73" type="line" smooth="yes"/>
      <point x="530" y="61"/>
      <point x="541" y="51"/>
      <point x="553" y="50" type="curve" smooth="yes"/>
      <point x="597" y="47" type="line"/>
      <point x="597" y="0" type="line"/>
      <point x="396" y="0" type="line"/>
      <point x="396" y="55" type="line"/>
      <point x="396" y="55"/>
      <point x="311" y="-12"/>
      <point x="238" y="-12" type="curve" smooth="yes"/>
      <point x="124" y="-12"/>
      <point x="90" y="49"/>
      <point x="90" y="151" type="curve" smooth="yes"/>
      <point x="90" y="396" type="line"/>
    </contour>
    <contour>
      <point x="164" y="686" type="curve" smooth="yes"/>
      <point x="164" y="756"/>
      <point x="221" y="812"/>
      <point x="290" y="812" type="curve" smooth="yes"/>
      <point x="360" y="812"/>
      <point x="418" y="756"/>
      <point x="418" y="686" type="curve" smooth="yes"/>
      <point x="418" y="616"/>
      <point x="360" y="560"/>
      <point x="290" y="560" type="curve" smooth="yes"/>
      <point x="221" y="560"/>
      <point x="164" y="616"/>
    </contour>
    <contour>
      <point x="228" y="686" type="curve" smooth="yes"/>
      <point x="228" y="651"/>
      <point x="256" y="623"/>
      <point x="290" y="623" type="curve" smooth="yes"/>
      <point x="325" y="623"/>
      <point x="354" y="651"/>
      <point x="354" y="686" type="curve" smooth="yes"/>
      <point x="354" y="721"/>
      <point x="325" y="749"/>
      <point x="290" y="749" type="curve" smooth="yes"/>
      <point x="256" y="749"/>
      <point x="228" y="721"/>
    </contour>
  </outline>
</glyph>
<glyph name="Uhungarumlaut" format="2">
  <advance width="729"/>
  <unicode hex="0170"/>
  <outline>
    <contour>
      <point x="22" y="620" type="line"/>
      <point x="22" y="671" type="line"/>
      <point x="318" y="671" type="line"/>
      <point x="318" y="620" type="line"/>
      <point x="264" y="615" type="line" smooth="yes"/>
      <point x="253" y="614"/>
      <point x="242" y="606"/>
      <point x="242" y="593" type="curve" smooth="yes"/>
      <point x="242" y="246" type="line" smooth="yes"/>
      <point x="242" y="121"/>
      <point x="294" y="67"/>
      <point x="404" y="67" type="curve" smooth="yes"/>
      <point x="509" y="67"/>
      <point x="552" y="138"/>
      <point x="552" y="246" type="curve" smooth="yes"/>
      <point x="552" y="593" type="line" smooth="yes"/>
      <point x="552" y="606"/>
      <point x="542" y="614"/>
      <point x="530" y="615" type="curve" smooth="yes"/>
      <point x="473" y="620" type="line"/>
      <point x="473" y="671" type="line"/>
      <point x="703" y="671" type="line"/>
      <point x="703" y="620" type="line"/>
      <point x="650" y="615" type="line" smooth="yes"/>
      <point x="639" y="614"/>
      <point x="628" y="606"/>
      <point x="628" y="593" type="curve" smooth="yes"/>
      <point x="628" y="254" type="line" smooth="yes"/>
      <point x="628" y="57"/>
      <point x="541" y="-16"/>
      <point x="354" y="-16" type="curve" smooth="yes"/>
      <point x="182" y="-16"/>
      <point x="99" y="78"/>
      <point x="99" y="254" type="curve" smooth="yes"/>
      <point x="99" y="593" type="line" smooth="yes"/>
      <point x="99" y="606"/>
      <point x="88" y="614"/>
      <point x="76" y="615" type="curve" smooth="yes"/>
    </contour>
    <contour>
      <point x="160" y="747" type="line"/>
      <point x="297" y="898" type="line" smooth="yes"/>
      <point x="319" y="923"/>
      <point x="333" y="930"/>
      <point x="360" y="930" type="curve" smooth="yes"/>
      <point x="403" y="930"/>
      <point x="417" y="901"/>
      <point x="417" y="877" type="curve" smooth="yes"/>
      <point x="417" y="864"/>
      <point x="406" y="843"/>
      <point x="391" y="835" type="curve" smooth="yes"/>
      <point x="230" y="747" type="line"/>
    </contour>
    <contour>
      <point x="375" y="747" type="line"/>
      <point x="512" y="898" type="line" smooth="yes"/>
      <point x="534" y="923"/>
      <point x="548" y="930"/>
      <point x="575" y="930" type="curve" smooth="yes"/>
      <point x="618" y="930"/>
      <point x="632" y="901"/>
      <point x="632" y="877" type="curve" smooth="yes"/>
      <point x="632" y="864"/>
      <point x="621" y="843"/>
      <point x="606" y="835" type="curve" smooth="yes"/>
      <point x="445" y="747" type="line"/>
    </contour>
  </outline>
</glyph>
<glyph name="Ycircumflex" format="2">
  <advance width="663"/>
  <unicode hex="0176"/>
  <outline>
    <contour>
      <point x="10" y="620" type="line"/>
      <point x="10" y="671" type="line"/>
      <point x="294" y="671" type="line"/>
      <point x="294" y="620" type="line"/>
      <point x="241" y="615" type="line"/>
      <point x="234" y="615"/>
      <point x="229" y="604"/>
      <point x="236" y="591" type="curve" smooth="yes"/>
      <point x="362" y="354" type="line"/>
      <point x="498" y="592" type="line" smooth="yes"/>
      <point x="505" y="604"/>
      <point x="502" y="616"/>
      <point x="493" y="616" type="curve"/>
      <point x="432" y="620" type="line"/>
      <point x="432" y="671" type="line"/>
      <point x="653" y="671" type="line"/>
      <point x="653" y="620" type="line"/>
      <point x="595" y="611" type="line"/>
      <point x="410" y="290" type="line"/>
      <point x="410" y="78" type="line" smooth="yes"/>
      <point x="410" y="65"/>
      <point x="420" y="57"/>
      <point x="432" y="56" type="curve" smooth="yes"/>
      <point x="493" y="51" type="line"/>
      <point x="493" y="0" type="line"/>
      <point x="183" y="0" type="line"/>
      <point x="183" y="51" type="line"/>
      <point x="244" y="56" type="line" smooth="yes"/>
      <point x="255" y="57"/>
      <point x="267" y="65"/>
      <point x="267" y="78" type="curve" smooth="yes"/>
      <point x="267" y="262" type="line"/>
      <point x="74" y="611" type="line"/>
    </contour>
    <contour>
      <point x="162" y="747" type="line"/>
      <point x="272" y="918" type="line"/>
      <point x="390" y="918" type="line"/>
      <point x="502" y="747" type="line"/>
      <point x="418" y="747" type="line"/>
      <point x="332" y="842" type="line"/>
      <point x="244" y="747" type="line"/>
    </contour>
  </outline>
</glyph>
<glyph name="zacute" format="2">
  <advance width="491"/>
  <unicode hex="017A"/>
  <outline>
    <contour>
      <point x="32" y="0" type="line"/>
      <point x="32" y="65" type="line"/>
      <point x="288" y="431" type="line"/>
      <point x="137" y="431" type="line" smooth="yes"/>
      <point x="127" y="431"/>
      <point x="118" y="419"/>
      <point x="118" y="410" type="curve"/>
      <point x="111" y="333" type="line"/>
      <point x="40" y="333" type="line"/>
      <point x="40" y="488" type="line"/>
      <point x="445" y="488" type="line"/>
      <point x="445" y="432" type="line"/>
      <point x="183" y="59" type="line"/>
      <point x="355" y="59" type="line" smooth="yes"/>
      <point x="364" y="59"/>
      <point x="375" y="73"/>
      <point x="377" y="83" type="curve"/>
      <point x="390" y="168" type="line"/>
      <point x="459" y="168" type="line"/>
      <point x="459" y="0" type="line"/>
    </contour>
    <contour>
      <point x="208" y="560" type="line"/>
      <point x="344" y="711" type="line" smooth="yes"/>
      <point x="367" y="736"/>
      <point x="381" y="743"/>
      <point x="408" y="743" type="curve" smooth="yes"/>
      <point x="451" y="743"/>
      <point x="466" y="714"/>
      <point x="466" y="690" type="curve" smooth="yes"/>
      <point x="466" y="677"/>
      <point x="454" y="656"/>
      <point x="440" y="648" type="curve" smooth="yes"/>
      <point x="278" y="560" type="line"/>
    </contour>
  </outline>
</glyph>
<glyph name="zcaron" format="2">
  <advance width="491"/>
  <unicode hex="017E"/>
  <outline>
    <contour>
      <point x="32" y="0" type="line"/>
      <point x="32" y="65" type="line"/>
      <point x="288" y="431" type="line"/>
      <point x="137" y="431" type="line" smooth="yes"/>
      <point x="127" y="431"/>
      <point x="118" y="419"/>
      <point x="118" y="410" type="curve"/>
      <point x="111" y="333" type="line"/>
      <point x="40" y="333" type="line"/>
      <point x="40" y="488" type="line"/>
      <point x="445" y="488" type="line"/>
      <point x="445" y="432" type="line"/>
      <point x="183" y="59" type="line"/>
      <point x="355" y="59" type="line" smooth="yes"/>
      <point x="364" y="59"/>
      <point x="375" y="73"/>
      <point x="377" y="83" type="curve"/>
      <point x="390" y="168" type="line"/>
      <point x="459" y="168" type="line"/>
      <point x="459" y="0" type="line"/>
    </contour>
    <contour>
      <point x="72" y="731" type="line"/>
      <point x="156" y="731" type="line"/>
      <point x="242" y="637" type="line"/>
      <point x="330" y="731" type="line"/>
      <point x="412" y="731" type="line"/>
      <point x="302" y="560" type="line"/>
      <point x="184" y="560" type="line"/>
    </contour>
  </outline>
</glyph>
<glyph name="uni0181" format="2">
  <advance width="709"/>
  <unicode hex="0181"/>
  <outline>
    <contour>
      <point x="318" y="375" type="line"/>
      <point x="323" y="374"/>
      <point x="333" y="374"/>
      <point x="343" y="374" type="curve" smooth="yes"/>
      <point x="457" y="374"/>
      <point x="487" y="429"/>
      <point x="487" y="500" type="curve" smooth="yes"/>
      <point x="487" y="559"/>
      <point x="466" y="615"/>
      <point x="359" y="615" type="curve" smooth="yes"/>
      <point x="344" y="615"/>
      <point x="334" y="615"/>
      <point x="318" y="613" type="curve"/>
    </contour>
    <contour>
      <point x="318" y="59" type="line"/>
      <point x="326" y="58"/>
      <point x="355" y="57"/>
      <point x="365" y="57" type="curve" smooth="yes"/>
      <point x="468" y="57"/>
      <point x="523" y="92"/>
      <point x="523" y="188" type="curve" smooth="yes"/>
      <point x="523" y="274"/>
      <point x="476" y="315"/>
      <point x="368" y="315" type="curve" smooth="yes"/>
      <point x="358" y="315"/>
      <point x="346" y="315"/>
      <point x="318" y="314" type="curve"/>
    </contour>
    <contour>
      <point x="-20" y="563" type="curve" smooth="yes"/>
      <point x="-20" y="637"/>
      <point x="38" y="671"/>
      <point x="144" y="671" type="curve" smooth="yes"/>
      <point x="421" y="671" type="line" smooth="yes"/>
      <point x="493" y="671"/>
      <point x="634" y="656"/>
      <point x="634" y="516" type="curve" smooth="yes"/>
      <point x="634" y="396"/>
      <point x="525" y="364"/>
      <point x="492" y="357" type="curve"/>
      <point x="566" y="355"/>
      <point x="673" y="327"/>
      <point x="673" y="195" type="curve" smooth="yes"/>
      <point x="673" y="8"/>
      <point x="541" y="0"/>
      <point x="442" y="0" type="curve" smooth="yes"/>
      <point x="99" y="0" type="line"/>
      <point x="99" y="51" type="line"/>
      <point x="153" y="56" type="line" smooth="yes"/>
      <point x="165" y="57"/>
      <point x="175" y="65"/>
      <point x="175" y="78" type="curve" smooth="yes"/>
      <point x="175" y="591" type="line" smooth="yes"/>
      <point x="175" y="604"/>
      <point x="167" y="612"/>
      <point x="154" y="612" type="curve" smooth="yes"/>
      <point x="122" y="612" type="line" smooth="yes"/>
      <point x="101" y="612"/>
      <point x="89" y="608"/>
      <point x="78" y="589" type="curve"/>
      <point x="119" y="518" type="line"/>
      <point x="93" y="493"/>
      <point x="86" y="487"/>
      <point x="46" y="487" type="curve" smooth="yes"/>
      <point x="1" y="487"/>
      <point x="-20" y="519"/>
    </contour>
  </outline>
</glyph>
<glyph name="uni0185" format="2">
  <advance width="598"/>
  <unicode hex="0185"/>
  <outline>
    <contour>
      <point x="5" y="524" type="line"/>
      <point x="224" y="760" type="line"/>
      <point x="224" y="454" type="line"/>
      <point x="232" y="461"/>
      <point x="290" y="500"/>
      <point x="369" y="500" type="curve" smooth="yes"/>
      <point x="476" y="500"/>
      <point x="566" y="417"/>
      <point x="566" y="274" type="curve" smooth="yes"/>
      <point x="566" y="120"/>
      <point x="460" y="0"/>
      <point x="273" y="0" type="curve" smooth="yes"/>
      <point x="90" y="0" type="line"/>
      <point x="90" y="473" type="line"/>
    </contour>
    <contour>
      <point x="224" y="56" type="line"/>
      <point x="233" y="55"/>
      <point x="239" y="55"/>
      <point x="245" y="55" type="curve" smooth="yes"/>
      <point x="356" y="55"/>
      <point x="421" y="102"/>
      <point x="421" y="244" type="curve" smooth="yes"/>
      <point x="421" y="352"/>
      <point x="371" y="417"/>
      <point x="277" y="417" type="curve" smooth="yes"/>
      <point x="253" y="417"/>
      <point x="232" y="413"/>
      <point x="224" y="411" type="curve"/>
    </contour>
  </outline>
</glyph>
<glyph name="uni0188" format="2">
  <advance width="512"/>
  <unicode hex="0188"/>
  <outline>
    <contour>
      <point x="32" y="234" type="curve" smooth="yes"/>
      <point x="32" y="392"/>
      <point x="147" y="500"/>
      <point x="290" y="500" type="curve" smooth="yes"/>
      <point x="310" y="500"/>
      <point x="328" y="498"/>
      <point x="346" y="495" type="curve"/>
      <point x="362" y="551"/>
      <point x="406" y="594"/>
      <point x="469" y="594" type="curve" smooth="yes"/>
      <point x="531" y="594"/>
      <point x="583" y="567"/>
      <point x="583" y="523" type="curve" smooth="yes"/>
      <point x="583" y="467"/>
      <point x="525" y="465"/>
      <point x="525" y="465" type="curve"/>
      <point x="485" y="554" type="line"/>
      <point x="438" y="554"/>
      <point x="423" y="519"/>
      <point x="423" y="464" type="curve"/>
      <point x="449" y="445"/>
      <point x="463" y="419"/>
      <point x="463" y="390" type="curve" smooth="yes"/>
      <point x="463" y="345"/>
      <point x="428" y="315"/>
      <point x="392" y="315" type="curve" smooth="yes"/>
      <point x="357" y="315"/>
      <point x="339" y="324"/>
      <point x="325" y="336" type="curve"/>
      <point x="325" y="448" type="line"/>
      <point x="325" y="448"/>
      <point x="313" y="449"/>
      <point x="306" y="449" type="curve" smooth="yes"/>
      <point x="245" y="449"/>
      <point x="179" y="387"/>
      <point x="179" y="263" type="curve" smooth="yes"/>
      <point x="179" y="146"/>
      <point x="237" y="72"/>
      <point x="331" y="72" type="curve" smooth="yes"/>
      <point x="392" y="72"/>
      <point x="458" y="111"/>
      <point x="471" y="121" type="curve"/>
      <point x="471" y="44" type="line"/>
      <point x="437" y="22"/>
      <point x="375" y="-12"/>
      <point x="274" y="-12" type="curve" smooth="yes"/>
      <point x="118" y="-12"/>
      <point x="32" y="103"/>
    </contour>
  </outline>
</glyph>
<glyph name="uni018A" format="2">
  <advance width="796"/>
  <unicode hex="018A"/>
  <outline>
    <contour>
      <point x="-17" y="563" type="curve" smooth="yes"/>
      <point x="-17" y="637"/>
      <point x="41" y="671"/>
      <point x="146" y="671" type="curve" smooth="yes"/>
      <point x="406" y="671" type="line" smooth="yes"/>
      <point x="634" y="671"/>
      <point x="761" y="538"/>
      <point x="761" y="343" type="curve" smooth="yes"/>
      <point x="761" y="114"/>
      <point x="624" y="0"/>
      <point x="412" y="0" type="curve" smooth="yes"/>
      <point x="100" y="0" type="line"/>
      <point x="100" y="51" type="line"/>
      <point x="164" y="57" type="line"/>
      <point x="171" y="58"/>
      <point x="178" y="65"/>
      <point x="178" y="70" type="curve" smooth="yes"/>
      <point x="178" y="591" type="line" smooth="yes"/>
      <point x="178" y="604"/>
      <point x="170" y="612"/>
      <point x="157" y="612" type="curve" smooth="yes"/>
      <point x="124" y="612" type="line" smooth="yes"/>
      <point x="103" y="612"/>
      <point x="91" y="608"/>
      <point x="80" y="589" type="curve"/>
      <point x="121" y="518" type="line"/>
      <point x="93" y="490"/>
      <point x="85" y="487"/>
      <point x="38" y="487" type="curve" smooth="yes"/>
      <point x="9" y="487"/>
      <point x="-17" y="517"/>
    </contour>
    <contour>
      <point x="321" y="59" type="line"/>
      <point x="404" y="59" type="line" smooth="yes"/>
      <point x="490" y="59"/>
      <point x="600" y="116"/>
      <point x="600" y="332" type="curve" smooth="yes"/>
      <point x="600" y="562"/>
      <point x="487" y="613"/>
      <point x="384" y="613" type="curve" smooth="yes"/>
      <point x="321" y="613" type="line"/>
    </contour>
  </outline>
</glyph>
<glyph name="uni018B" format="2">
  <advance width="627"/>
  <unicode hex="018B"/>
  <outline>
    <contour>
      <point x="27" y="180" type="curve" smooth="yes"/>
      <point x="27" y="326"/>
      <point x="155" y="376"/>
      <point x="329" y="376" type="curve" smooth="yes"/>
      <point x="354" y="376"/>
      <point x="373" y="373"/>
      <point x="381" y="371" type="curve"/>
      <point x="381" y="599" type="line" smooth="yes"/>
      <point x="381" y="605"/>
      <point x="376" y="614"/>
      <point x="366" y="614" type="curve" smooth="yes"/>
      <point x="214" y="614" type="line" smooth="yes"/>
      <point x="201" y="614"/>
      <point x="195" y="608"/>
      <point x="192" y="592" type="curve"/>
      <point x="179" y="507" type="line"/>
      <point x="107" y="507" type="line"/>
      <point x="107" y="671" type="line"/>
      <point x="607" y="671" type="line"/>
      <point x="607" y="620" type="line"/>
      <point x="546" y="615" type="line" smooth="yes"/>
      <point x="534" y="614"/>
      <point x="524" y="606"/>
      <point x="524" y="593" type="curve" smooth="yes"/>
      <point x="524" y="78" type="line" smooth="yes"/>
      <point x="524" y="65"/>
      <point x="534" y="57"/>
      <point x="546" y="56" type="curve" smooth="yes"/>
      <point x="607" y="51" type="line"/>
      <point x="607" y="0" type="line"/>
      <point x="346" y="0" type="line" smooth="yes"/>
      <point x="158" y="0"/>
      <point x="27" y="34"/>
    </contour>
    <contour>
      <point x="176" y="185" type="curve" smooth="yes"/>
      <point x="176" y="92"/>
      <point x="237" y="56"/>
      <point x="351" y="56" type="curve" smooth="yes"/>
      <point x="356.153" y="56"/>
      <point x="376.321" y="56"/>
      <point x="381" y="56" type="curve"/>
      <point x="381" y="312" type="line"/>
      <point x="368" y="315"/>
      <point x="354" y="317"/>
      <point x="338" y="317" type="curve" smooth="yes"/>
      <point x="255" y="317"/>
      <point x="176" y="304"/>
    </contour>
  </outline>
</glyph>
<glyph name="uni018C" format="2">
  <advance width="608"/>
  <unicode hex="018C"/>
  <outline>
    <contour>
      <point x="32" y="233" type="curve" smooth="yes"/>
      <point x="32" y="405"/>
      <point x="142" y="500"/>
      <point x="293" y="500" type="curve" smooth="yes"/>
      <point x="322" y="500"/>
      <point x="355" y="496"/>
      <point x="386" y="488" type="curve"/>
      <point x="386" y="668" type="line" smooth="yes"/>
      <point x="386" y="672"/>
      <point x="380" y="683"/>
      <point x="370" y="683" type="curve" smooth="yes"/>
      <point x="195" y="683" type="line" smooth="yes"/>
      <point x="183" y="683"/>
      <point x="175" y="677"/>
      <point x="173" y="661" type="curve"/>
      <point x="160" y="576" type="line"/>
      <point x="88" y="576" type="line"/>
      <point x="88" y="740" type="line"/>
      <point x="519" y="740" type="line"/>
      <point x="519" y="73" type="line" smooth="yes"/>
      <point x="519" y="61"/>
      <point x="529" y="51"/>
      <point x="541" y="50" type="curve" smooth="yes"/>
      <point x="583" y="47" type="line"/>
      <point x="583" y="0" type="line"/>
      <point x="386" y="0" type="line"/>
      <point x="386" y="58" type="line"/>
      <point x="346" y="20"/>
      <point x="273" y="-12"/>
      <point x="228" y="-12" type="curve" smooth="yes"/>
      <point x="106" y="-12"/>
      <point x="32" y="92"/>
    </contour>
    <contour>
      <point x="178" y="256" type="curve" smooth="yes"/>
      <point x="178" y="151"/>
      <point x="221" y="80"/>
      <point x="308" y="80" type="curve" smooth="yes"/>
      <point x="342" y="80"/>
      <point x="371" y="87"/>
      <point x="386" y="99" type="curve"/>
      <point x="386" y="422" type="line"/>
      <point x="366" y="433"/>
      <point x="337" y="440"/>
      <point x="315" y="440" type="curve" smooth="yes"/>
      <point x="222" y="440"/>
      <point x="178" y="359"/>
    </contour>
  </outline>
</glyph>
<glyph name="uni0190" format="2">
  <advance width="618"/>
  <unicode hex="0190"/>
  <outline>
    <contour>
      <point x="37" y="189" type="curve" smooth="yes"/>
      <point x="37" y="303"/>
      <point x="114" y="353"/>
      <point x="220" y="357" type="curve"/>
      <point x="142" y="381"/>
      <point x="76" y="422"/>
      <point x="76" y="518" type="curve" smooth="yes"/>
      <point x="76" y="652"/>
      <point x="181" y="687"/>
      <point x="336" y="687" type="curve" smooth="yes"/>
      <point x="489" y="687"/>
      <point x="556" y="639"/>
      <point x="556" y="568" type="curve" smooth="yes"/>
      <point x="556" y="517"/>
      <point x="520" y="501"/>
      <point x="483" y="501" type="curve" smooth="yes"/>
      <point x="468" y="501"/>
      <point x="442" y="506"/>
      <point x="430" y="510" type="curve"/>
      <point x="430" y="609" type="line"/>
      <point x="409" y="623"/>
      <point x="377" y="632"/>
      <point x="353" y="632" type="curve" smooth="yes"/>
      <point x="258" y="632"/>
      <point x="223" y="584"/>
      <point x="223" y="508" type="curve" smooth="yes"/>
      <point x="223" y="440"/>
      <point x="252" y="372"/>
      <point x="371" y="372" type="curve" smooth="yes"/>
      <point x="383" y="372"/>
      <point x="396" y="372"/>
      <point x="408" y="374" type="curve"/>
      <point x="408" y="314" type="line"/>
      <point x="403" y="315"/>
      <point x="359" y="316"/>
      <point x="343" y="316" type="curve" smooth="yes"/>
      <point x="233" y="316"/>
      <point x="188" y="264"/>
      <point x="188" y="170" type="curve" smooth="yes"/>
      <point x="188" y="111"/>
      <point x="206" y="46"/>
      <point x="343" y="46" type="curve" smooth="yes"/>
      <point x="388" y="46"/>
      <point x="415" y="53"/>
      <point x="430" y="69" type="curve"/>
      <point x="477" y="197" type="line"/>
      <point x="488" y="200"/>
      <point x="496" y="202"/>
      <point x="518" y="202" type="curve" smooth="yes"/>
      <point x="552" y="202"/>
      <point x="584" y="182"/>
      <point x="584" y="130" type="curve" smooth="yes"/>
      <point x="584" y="39"/>
      <point x="466" y="-16"/>
      <point x="313" y="-16" type="curve" smooth="yes"/>
      <point x="120" y="-16"/>
      <point x="37" y="71"/>
    </contour>
  </outline>
</glyph>
<glyph name="uni019E" format="2">
  <advance width="625"/>
  <unicode hex="019E"/>
  <outline>
    <contour>
      <point x="32" y="0" type="line"/>
      <point x="32" y="47" type="line"/>
      <point x="68" y="50" type="line" smooth="yes"/>
      <point x="80" y="51"/>
      <point x="90" y="61"/>
      <point x="90" y="73" type="curve" smooth="yes"/>
      <point x="90" y="408" type="line"/>
      <point x="21" y="408" type="line"/>
      <point x="21" y="449" type="line"/>
      <point x="172" y="500" type="line"/>
      <point x="224" y="500" type="line"/>
      <point x="224" y="439" type="line"/>
      <point x="276" y="475"/>
      <point x="348" y="500"/>
      <point x="399" y="500" type="curve" smooth="yes"/>
      <point x="491" y="500"/>
      <point x="535" y="443"/>
      <point x="535" y="326" type="curve" smooth="yes"/>
      <point x="535" y="-146" type="line" smooth="yes"/>
      <point x="535" y="-158"/>
      <point x="546" y="-168"/>
      <point x="558" y="-169" type="curve" smooth="yes"/>
      <point x="589" y="-172" type="line"/>
      <point x="589" y="-219" type="line"/>
      <point x="343" y="-219" type="line"/>
      <point x="343" y="-172" type="line"/>
      <point x="380" y="-169" type="line" smooth="yes"/>
      <point x="392" y="-168"/>
      <point x="402" y="-158"/>
      <point x="402" y="-146" type="curve" smooth="yes"/>
      <point x="402" y="308" type="line" smooth="yes"/>
      <point x="402" y="370"/>
      <point x="371" y="408"/>
      <point x="320" y="408" type="curve" smooth="yes"/>
      <point x="285" y="408"/>
      <point x="242" y="402"/>
      <point x="224" y="395" type="curve"/>
      <point x="224" y="73" type="line" smooth="yes"/>
      <point x="224" y="61"/>
      <point x="235" y="51"/>
      <point x="247" y="50" type="curve" smooth="yes"/>
      <point x="277" y="47" type="line"/>
      <point x="277" y="0" type="line"/>
    </contour>
  </outline>
</glyph>
<glyph name="uni01A3" format="2">
  <advance width="858"/>
  <unicode hex="01A3"/>
  <outline>
    <contour>
      <point x="32" y="240" type="curve" smooth="yes"/>
      <point x="32" y="400"/>
      <point x="133" y="500"/>
      <point x="296" y="500" type="curve" smooth="yes"/>
      <point x="346" y="500"/>
      <point x="402" y="493"/>
      <point x="468" y="478" type="curve" smooth="yes"/>
      <point x="511" y="468"/>
      <point x="543" y="463"/>
      <point x="566" y="463" type="curve" smooth="yes"/>
      <point x="613" y="463"/>
      <point x="648" y="472"/>
      <point x="708" y="500" type="curve"/>
      <point x="759" y="500" type="line"/>
      <point x="759" y="-145" type="line" smooth="yes"/>
      <point x="759" y="-157"/>
      <point x="768" y="-168"/>
      <point x="780" y="-168" type="curve"/>
      <point x="832" y="-171" type="line"/>
      <point x="832" y="-218" type="line"/>
      <point x="555" y="-218" type="line"/>
      <point x="555" y="-171" type="line"/>
      <point x="605" y="-168" type="line"/>
      <point x="617" y="-168"/>
      <point x="626" y="-157"/>
      <point x="626" y="-145" type="curve" smooth="yes"/>
      <point x="626" y="384" type="line"/>
      <point x="614" y="382"/>
      <point x="593" y="380"/>
      <point x="569" y="380" type="curve" smooth="yes"/>
      <point x="545" y="380"/>
      <point x="524" y="382"/>
      <point x="512" y="384" type="curve"/>
      <point x="512" y="126" type="line" smooth="yes"/>
      <point x="512" y="47"/>
      <point x="403" y="-12"/>
      <point x="289" y="-12" type="curve" smooth="yes"/>
      <point x="132" y="-12"/>
      <point x="32" y="88"/>
    </contour>
    <contour>
      <point x="182" y="246" type="curve" smooth="yes"/>
      <point x="182" y="138"/>
      <point x="210" y="44"/>
      <point x="293" y="44" type="curve" smooth="yes"/>
      <point x="339" y="44"/>
      <point x="386" y="81"/>
      <point x="386" y="135" type="curve" smooth="yes"/>
      <point x="386" y="410" type="line"/>
      <point x="344" y="437"/>
      <point x="328" y="443"/>
      <point x="292" y="443" type="curve" smooth="yes"/>
      <point x="212" y="443"/>
      <point x="182" y="355"/>
    </contour>
  </outline>
</glyph>
<glyph name="uni01A4" format="2">
  <advance width="689"/>
  <unicode hex="01A4"/>
  <outline>
    <contour>
      <point x="-21" y="537" type="curve" smooth="yes"/>
      <point x="-21" y="608"/>
      <point x="45" y="671"/>
      <point x="120" y="671" type="curve" smooth="yes"/>
      <point x="382" y="671" type="line" smooth="yes"/>
      <point x="567" y="671"/>
      <point x="654" y="606"/>
      <point x="654" y="468" type="curve" smooth="yes"/>
      <point x="654" y="328"/>
      <point x="557" y="246"/>
      <point x="392" y="246" type="curve" smooth="yes"/>
      <point x="360" y="246"/>
      <point x="341" y="247"/>
      <point x="326" y="248" type="curve"/>
      <point x="326" y="78" type="line" smooth="yes"/>
      <point x="326" y="65"/>
      <point x="336" y="57"/>
      <point x="348" y="56" type="curve" smooth="yes"/>
      <point x="411" y="51" type="line"/>
      <point x="411" y="0" type="line"/>
      <point x="104" y="0" type="line"/>
      <point x="104" y="51" type="line"/>
      <point x="160" y="56" type="line" smooth="yes"/>
      <point x="171" y="57"/>
      <point x="183" y="65"/>
      <point x="183" y="78" type="curve" smooth="yes"/>
      <point x="183" y="599" type="line" smooth="yes"/>
      <point x="183" y="608"/>
      <point x="178" y="613"/>
      <point x="168" y="613" type="curve" smooth="yes"/>
      <point x="125" y="613" type="line" smooth="yes"/>
      <point x="91" y="613"/>
      <point x="55" y="609"/>
      <point x="46" y="591" type="curve"/>
      <point x="113" y="495" type="line"/>
      <point x="104" y="467"/>
      <point x="79" y="448"/>
      <point x="49" y="448" type="curve" smooth="yes"/>
      <point x="20" y="448"/>
      <point x="-21" y="467"/>
    </contour>
    <contour>
      <point x="326" y="308" type="line"/>
      <point x="339" y="307"/>
      <point x="343" y="307"/>
      <point x="353" y="307" type="curve"/>
      <point x="455" y="308"/>
      <point x="505" y="360"/>
      <point x="505" y="463" type="curve" smooth="yes"/>
      <point x="505" y="553"/>
      <point x="457" y="610"/>
      <point x="382" y="610" type="curve" smooth="yes"/>
      <point x="326" y="610" type="line"/>
    </contour>
  </outline>
</glyph>
<glyph name="uni01A9" format="2">
  <advance width="581"/>
  <unicode hex="01A9"/>
  <outline>
    <contour>
      <point x="37" y="0" type="line"/>
      <point x="37" y="59" type="line"/>
      <point x="230" y="349" type="line"/>
      <point x="57" y="612" type="line"/>
      <point x="57" y="671" type="line"/>
      <point x="537" y="671" type="line"/>
      <point x="537" y="489" type="line"/>
      <point x="463" y="489" type="line"/>
      <point x="446" y="598" type="line"/>
      <point x="445" y="606"/>
      <point x="440" y="610"/>
      <point x="432" y="610" type="curve" smooth="yes"/>
      <point x="216" y="610" type="line"/>
      <point x="385" y="349" type="line"/>
      <point x="192" y="62" type="line"/>
      <point x="435" y="62" type="line" smooth="yes"/>
      <point x="444" y="62"/>
      <point x="449" y="66"/>
      <point x="451" y="73" type="curve"/>
      <point x="471" y="197" type="line"/>
      <point x="544" y="197" type="line"/>
      <point x="544" y="0" type="line"/>
    </contour>
  </outline>
</glyph>
<glyph name="uni01AA" format="2">
  <advance width="547"/>
  <unicode hex="01AA"/>
  <outline>
    <contour>
      <point x="32" y="501" type="curve" smooth="yes"/>
      <point x="32" y="613"/>
      <point x="118" y="687"/>
      <point x="238" y="687" type="curve" smooth="yes"/>
      <point x="357" y="687"/>
      <point x="444" y="613"/>
      <point x="444" y="501" type="curve" smooth="yes"/>
      <point x="444" y="-23" type="line" smooth="yes"/>
      <point x="444" y="-108"/>
      <point x="480" y="-165"/>
      <point x="503" y="-179" type="curve"/>
      <point x="587" y="-80" type="line"/>
      <point x="646" y="-80"/>
      <point x="660" y="-123"/>
      <point x="660" y="-157" type="curve" smooth="yes"/>
      <point x="660" y="-208"/>
      <point x="599" y="-231"/>
      <point x="555" y="-231" type="curve" smooth="yes"/>
      <point x="421" y="-231"/>
      <point x="311" y="-158"/>
      <point x="311" y="-23" type="curve" smooth="yes"/>
      <point x="311" y="323" type="line"/>
      <point x="288" y="317"/>
      <point x="265" y="315"/>
      <point x="239" y="315" type="curve" smooth="yes"/>
      <point x="119" y="315"/>
      <point x="32" y="390"/>
    </contour>
    <contour>
      <point x="165" y="501" type="curve" smooth="yes"/>
      <point x="165" y="438"/>
      <point x="167" y="352"/>
      <point x="239" y="352" type="curve" smooth="yes"/>
      <point x="310" y="352"/>
      <point x="311" y="438"/>
      <point x="311" y="501" type="curve" smooth="yes"/>
      <point x="311" y="564"/>
      <point x="310" y="649"/>
      <point x="238" y="649" type="curve" smooth="yes"/>
      <point x="167" y="649"/>
      <point x="165" y="564"/>
    </contour>
  </outline>
</glyph>
<glyph name="uni01AC" format="2">
  <advance width="608"/>
  <unicode hex="01AC"/>
  <outline>
    <contour>
      <point x="5" y="536" type="curve" smooth="yes"/>
      <point x="5" y="651"/>
      <point x="86" y="671"/>
      <point x="162" y="671" type="curve" smooth="yes"/>
      <point x="593" y="671" type="line"/>
      <point x="593" y="488" type="line"/>
      <point x="521" y="488" type="line"/>
      <point x="503" y="599" type="line"/>
      <point x="502" y="607"/>
      <point x="496" y="611"/>
      <point x="488" y="611" type="curve" smooth="yes"/>
      <point x="376" y="611" type="line"/>
      <point x="376" y="78" type="line" smooth="yes"/>
      <point x="376" y="65"/>
      <point x="387" y="57"/>
      <point x="399" y="56" type="curve" smooth="yes"/>
      <point x="457" y="51" type="line"/>
      <point x="457" y="0" type="line"/>
      <point x="152" y="0" type="line"/>
      <point x="152" y="51" type="line"/>
      <point x="211" y="56" type="line" smooth="yes"/>
      <point x="222" y="57"/>
      <point x="233" y="65"/>
      <point x="233" y="78" type="curve" smooth="yes"/>
      <point x="233" y="611" type="line"/>
      <point x="136" y="611" type="line" smooth="yes"/>
      <point x="107" y="611"/>
      <point x="89" y="593"/>
      <point x="89" y="559" type="curve"/>
      <point x="155" y="499" type="line"/>
      <point x="155" y="453"/>
      <point x="122" y="432"/>
      <point x="96" y="432" type="curve" smooth="yes"/>
      <point x="40" y="432"/>
      <point x="5" y="478"/>
    </contour>
  </outline>
</glyph>
<glyph name="uni01AE" format="2">
  <advance width="608"/>
  <unicode hex="01AE"/>
  <outline>
    <contour>
      <point x="16" y="488" type="line"/>
      <point x="16" y="671" type="line"/>
      <point x="593" y="671" type="line"/>
      <point x="593" y="488" type="line"/>
      <point x="520" y="488" type="line"/>
      <point x="502" y="599" type="line"/>
      <point x="501" y="607"/>
      <point x="496" y="611"/>
      <point x="488" y="611" type="curve" smooth="yes"/>
      <point x="376" y="611" type="line"/>
      <point x="376" y="-77" type="line" smooth="yes"/>
      <point x="376" y="-128"/>
      <point x="394" y="-166"/>
      <point x="441" y="-166" type="curve"/>
      <point x="503" y="-59" type="line"/>
      <point x="541" y="-59"/>
      <point x="566" y="-94"/>
      <point x="566" y="-140" type="curve" smooth="yes"/>
      <point x="566" y="-202"/>
      <point x="499" y="-231"/>
      <point x="423" y="-231" type="curve" smooth="yes"/>
      <point x="319" y="-231"/>
      <point x="233" y="-174"/>
      <point x="233" y="-24" type="curve" smooth="yes"/>
      <point x="233" y="611" type="line"/>
      <point x="121" y="611" type="line" smooth="yes"/>
      <point x="113" y="611"/>
      <point x="107" y="607"/>
      <point x="106" y="599" type="curve"/>
      <point x="88" y="488" type="line"/>
    </contour>
  </outline>
</glyph>
<glyph name="uni01B3" format="2">
  <advance width="758"/>
  <unicode hex="01B3"/>
  <outline>
    <contour>
      <point x="-53" y="579" type="curve" smooth="yes"/>
      <point x="-53" y="635"/>
      <point x="10" y="687"/>
      <point x="133" y="687" type="curve" smooth="yes"/>
      <point x="198" y="687"/>
      <point x="242" y="668"/>
      <point x="271" y="607" type="curve"/>
      <point x="388" y="370" type="line"/>
      <point x="502" y="592" type="line"/>
      <point x="505" y="597"/>
      <point x="506" y="602"/>
      <point x="506" y="606" type="curve" smooth="yes"/>
      <point x="506" y="612"/>
      <point x="503" y="616"/>
      <point x="498" y="616" type="curve"/>
      <point x="437" y="620" type="line"/>
      <point x="437" y="671" type="line"/>
      <point x="658" y="671" type="line"/>
      <point x="658" y="620" type="line"/>
      <point x="600" y="611" type="line"/>
      <point x="434" y="290" type="line"/>
      <point x="434" y="78" type="line" smooth="yes"/>
      <point x="434" y="65"/>
      <point x="445" y="57"/>
      <point x="456" y="56" type="curve" smooth="yes"/>
      <point x="517" y="51" type="line"/>
      <point x="517" y="0" type="line"/>
      <point x="207" y="0" type="line"/>
      <point x="207" y="51" type="line"/>
      <point x="268" y="56" type="line" smooth="yes"/>
      <point x="280" y="57"/>
      <point x="291" y="65"/>
      <point x="291" y="78" type="curve" smooth="yes"/>
      <point x="291" y="262" type="line"/>
      <point x="129" y="592" type="line" smooth="yes"/>
      <point x="115" y="621"/>
      <point x="105" y="628"/>
      <point x="88" y="628" type="curve" smooth="yes"/>
      <point x="65" y="628"/>
      <point x="56" y="624"/>
      <point x="44" y="605" type="curve"/>
      <point x="85" y="534" type="line"/>
      <point x="60" y="509"/>
      <point x="52" y="503"/>
      <point x="13" y="503" type="curve" smooth="yes"/>
      <point x="-33.0109" y="503"/>
      <point x="-53" y="535"/>
    </contour>
  </outline>
</glyph>
<glyph name="uni01B4" format="2">
  <advance width="674"/>
  <unicode hex="01B4"/>
  <outline>
    <contour>
      <point x="10" y="441" type="line"/>
      <point x="10" y="488" type="line"/>
      <point x="273" y="488" type="line"/>
      <point x="273" y="441" type="line"/>
      <point x="227" y="438" type="line" smooth="yes"/>
      <point x="215.982" y="437.281"/>
      <point x="211" y="431"/>
      <point x="211" y="423" type="curve"/>
      <point x="211" y="421"/>
      <point x="211.171" y="418.069"/>
      <point x="212" y="416" type="curve" smooth="yes"/>
      <point x="315" y="159" type="line"/>
      <point x="416" y="404" type="line" smooth="yes"/>
      <point x="453.087" y="493.964"/>
      <point x="512" y="634"/>
      <point x="629" y="634" type="curve" smooth="yes"/>
      <point x="668" y="634"/>
      <point x="717" y="602"/>
      <point x="717" y="554" type="curve" smooth="yes"/>
      <point x="717" y="516"/>
      <point x="688" y="493"/>
      <point x="659" y="479" type="curve"/>
      <point x="574" y="544" type="line"/>
      <point x="529" y="493"/>
      <point x="500.334" y="424.455"/>
      <point x="474" y="360" type="curve" smooth="yes"/>
      <point x="331" y="10" type="line" smooth="yes"/>
      <point x="293.846" y="-80.937"/>
      <point x="232" y="-231"/>
      <point x="118" y="-231" type="curve" smooth="yes"/>
      <point x="79" y="-231"/>
      <point x="30" y="-200"/>
      <point x="30" y="-151" type="curve" smooth="yes"/>
      <point x="30" y="-114"/>
      <point x="59" y="-91"/>
      <point x="88" y="-77" type="curve"/>
      <point x="173" y="-142" type="line"/>
      <point x="209" y="-108"/>
      <point x="238" y="-43"/>
      <point x="247" y="-9" type="curve"/>
      <point x="69" y="435" type="line"/>
    </contour>
  </outline>
</glyph>
<glyph name="uni01BA" format="2">
  <advance width="508"/>
  <unicode hex="01BA"/>
  <outline>
    <contour>
      <point x="32" y="264" type="line"/>
      <point x="32" y="488" type="line"/>
      <point x="478" y="488" type="line"/>
      <point x="478" y="442" type="line"/>
      <point x="333" y="255" type="line"/>
      <point x="426" y="247"/>
      <point x="467" y="208"/>
      <point x="467" y="128" type="curve" smooth="yes"/>
      <point x="467" y="73"/>
      <point x="429" y="34"/>
      <point x="322" y="-21" type="curve" smooth="yes"/>
      <point x="240" y="-64"/>
      <point x="214" y="-87"/>
      <point x="214" y="-118" type="curve" smooth="yes"/>
      <point x="214" y="-153"/>
      <point x="237" y="-177"/>
      <point x="271" y="-177" type="curve" smooth="yes"/>
      <point x="302" y="-177"/>
      <point x="326" y="-168"/>
      <point x="339" y="-152" type="curve"/>
      <point x="368" y="-71" type="line"/>
      <point x="378" y="-66"/>
      <point x="408" y="-57"/>
      <point x="415" y="-57" type="curve" smooth="yes"/>
      <point x="448" y="-57"/>
      <point x="471" y="-81"/>
      <point x="471" y="-117" type="curve" smooth="yes"/>
      <point x="471" y="-186"/>
      <point x="389" y="-231"/>
      <point x="262" y="-231" type="curve" smooth="yes"/>
      <point x="159" y="-231"/>
      <point x="102" y="-181"/>
      <point x="102" y="-91" type="curve" smooth="yes"/>
      <point x="102" y="-46"/>
      <point x="140" y="-8"/>
      <point x="239" y="49" type="curve" smooth="yes"/>
      <point x="321" y="96"/>
      <point x="349" y="123"/>
      <point x="349" y="153" type="curve" smooth="yes"/>
      <point x="349" y="181"/>
      <point x="321" y="203"/>
      <point x="285" y="203" type="curve" smooth="yes"/>
      <point x="265" y="203"/>
      <point x="233" y="186"/>
      <point x="198" y="158" type="curve"/>
      <point x="173" y="189" type="line"/>
      <point x="336" y="374" type="line"/>
      <point x="129" y="374" type="line" smooth="yes"/>
      <point x="121" y="374"/>
      <point x="110" y="363"/>
      <point x="109" y="353" type="curve"/>
      <point x="103" y="264" type="line"/>
    </contour>
  </outline>
</glyph>
<glyph name="uni01BC" format="2">
  <advance width="583"/>
  <unicode hex="01BC"/>
  <outline>
    <contour>
      <point x="22" y="620" type="line"/>
      <point x="22" y="671" type="line"/>
      <point x="515" y="671" type="line"/>
      <point x="515" y="507" type="line"/>
      <point x="443" y="507" type="line"/>
      <point x="431" y="592" type="line"/>
      <point x="430" y="602"/>
      <point x="418" y="614"/>
      <point x="409" y="614" type="curve" smooth="yes"/>
      <point x="269" y="614" type="line" smooth="yes"/>
      <point x="257" y="614"/>
      <point x="247" y="604"/>
      <point x="247" y="593" type="curve" smooth="yes"/>
      <point x="247" y="459" type="line"/>
      <point x="414" y="459"/>
      <point x="543" y="356"/>
      <point x="543" y="222" type="curve" smooth="yes"/>
      <point x="543" y="75"/>
      <point x="431" y="-16"/>
      <point x="251" y="-16" type="curve" smooth="yes"/>
      <point x="126" y="-16"/>
      <point x="37" y="33"/>
      <point x="37" y="102" type="curve" smooth="yes"/>
      <point x="37" y="142"/>
      <point x="67" y="170"/>
      <point x="109" y="170" type="curve" smooth="yes"/>
      <point x="121" y="170"/>
      <point x="148" y="164"/>
      <point x="155" y="160" type="curve"/>
      <point x="194" y="52" type="line"/>
      <point x="208" y="47"/>
      <point x="234" y="45"/>
      <point x="269" y="45" type="curve" smooth="yes"/>
      <point x="343" y="45"/>
      <point x="398" y="110"/>
      <point x="398" y="198" type="curve" smooth="yes"/>
      <point x="398" y="313"/>
      <point x="282" y="388"/>
      <point x="104" y="388" type="curve"/>
      <point x="104" y="594" type="line" smooth="yes"/>
      <point x="104" y="604"/>
      <point x="95" y="613"/>
      <point x="83" y="615" type="curve"/>
    </contour>
  </outline>
</glyph>
<glyph name="uni01BE" format="2">
  <advance width="479"/>
  <unicode hex="01BE"/>
  <outline>
    <contour>
      <point x="31" y="421" type="line"/>
      <point x="31" y="484" type="line"/>
      <point x="134" y="484" type="line"/>
      <point x="134" y="596" type="line" smooth="yes"/>
      <point x="134" y="608"/>
      <point x="126" y="617"/>
      <point x="112" y="618" type="curve" smooth="yes"/>
      <point x="48" y="624" type="line"/>
      <point x="48" y="675" type="line"/>
      <point x="354" y="675" type="line"/>
      <point x="354" y="624" type="line"/>
      <point x="290" y="618" type="line" smooth="yes"/>
      <point x="276" y="617"/>
      <point x="268" y="608"/>
      <point x="268" y="596" type="curve" smooth="yes"/>
      <point x="268" y="484" type="line"/>
      <point x="372" y="484" type="line"/>
      <point x="372" y="421" type="line"/>
      <point x="268" y="421" type="line"/>
      <point x="268" y="387" type="line"/>
      <point x="363" y="371"/>
      <point x="443" y="276"/>
      <point x="443" y="178" type="curve" smooth="yes"/>
      <point x="443" y="66"/>
      <point x="350" y="-12"/>
      <point x="216" y="-12" type="curve" smooth="yes"/>
      <point x="107" y="-12"/>
      <point x="37" y="32"/>
      <point x="37" y="101" type="curve" smooth="yes"/>
      <point x="37" y="132"/>
      <point x="59" y="153"/>
      <point x="92" y="153" type="curve" smooth="yes"/>
      <point x="112" y="153"/>
      <point x="123" y="151"/>
      <point x="136" y="145" type="curve"/>
      <point x="171" y="60" type="line"/>
      <point x="185" y="50"/>
      <point x="194" y="48"/>
      <point x="217" y="48" type="curve"/>
      <point x="268" y="49"/>
      <point x="307" y="104"/>
      <point x="307" y="176" type="curve" smooth="yes"/>
      <point x="307" y="259"/>
      <point x="228" y="349"/>
      <point x="134" y="372" type="curve"/>
      <point x="134" y="421" type="line"/>
    </contour>
  </outline>
</glyph>
<glyph name="uni01BF" format="2">
  <advance width="597"/>
  <unicode hex="01BF"/>
  <outline>
    <contour>
      <point x="24" y="-172" type="line"/>
      <point x="68" y="-169" type="line"/>
      <point x="82" y="-169"/>
      <point x="90" y="-158"/>
      <point x="90" y="-146" type="curve" smooth="yes"/>
      <point x="90" y="408" type="line"/>
      <point x="24" y="408" type="line"/>
      <point x="24" y="449" type="line"/>
      <point x="172" y="500" type="line"/>
      <point x="225" y="500" type="line"/>
      <point x="225" y="417" type="line"/>
      <point x="225" y="417"/>
      <point x="308" y="500"/>
      <point x="395" y="500" type="curve" smooth="yes"/>
      <point x="525" y="500"/>
      <point x="565" y="416"/>
      <point x="565" y="322" type="curve" smooth="yes"/>
      <point x="565" y="140"/>
      <point x="395" y="6"/>
      <point x="225" y="-82" type="curve"/>
      <point x="225" y="-146" type="line" smooth="yes"/>
      <point x="225" y="-159"/>
      <point x="233" y="-169"/>
      <point x="247" y="-169" type="curve"/>
      <point x="299" y="-172" type="line"/>
      <point x="299" y="-219" type="line"/>
      <point x="24" y="-219" type="line"/>
    </contour>
    <contour>
      <point x="225" y="-9" type="line"/>
      <point x="375" y="85"/>
      <point x="419" y="201"/>
      <point x="419" y="293" type="curve" smooth="yes"/>
      <point x="419" y="376"/>
      <point x="394" y="409"/>
      <point x="340" y="409" type="curve" smooth="yes"/>
      <point x="284" y="409"/>
      <point x="239" y="361"/>
      <point x="225" y="345" type="curve"/>
    </contour>
  </outline>
</glyph>
<glyph name="uni01C0" format="2">
  <advance width="221"/>
  <unicode hex="01C0"/>
  <outline>
    <contour>
      <point x="70" y="-215" type="line"/>
      <point x="70" y="736" type="line"/>
      <point x="151" y="736" type="line"/>
      <point x="151" y="-215" type="line"/>
    </contour>
  </outline>
</glyph>
<glyph name="uni01C1" format="2">
  <advance width="367"/>
  <unicode hex="01C1"/>
  <outline>
    <contour>
      <point x="70" y="-215" type="line"/>
      <point x="70" y="736" type="line"/>
      <point x="151" y="736" type="line"/>
      <point x="151" y="-215" type="line"/>
    </contour>
    <contour>
      <point x="217" y="-215" type="line"/>
      <point x="217" y="736" type="line"/>
      <point x="297" y="736" type="line"/>
      <point x="297" y="-215" type="line"/>
    </contour>
  </outline>
</glyph>
<glyph name="uni01C2" format="2">
  <advance width="416"/>
  <unicode hex="01C2"/>
  <outline>
    <contour>
      <point x="24" y="158" type="line"/>
      <point x="24" y="228" type="line"/>
      <point x="392" y="228" type="line"/>
      <point x="392" y="158" type="line"/>
    </contour>
    <contour>
      <point x="24" y="292" type="line"/>
      <point x="24" y="363" type="line"/>
      <point x="392" y="363" type="line"/>
      <point x="392" y="292" type="line"/>
    </contour>
    <contour>
      <point x="168" y="-215" type="line"/>
      <point x="168" y="736" type="line"/>
      <point x="249" y="736" type="line"/>
      <point x="249" y="-215" type="line"/>
    </contour>
  </outline>
</glyph>
<glyph name="uni01C3" format="2">
  <advance width="207"/>
  <unicode hex="01C3"/>
  <outline>
    <contour>
      <point x="23" y="70" type="curve" smooth="yes"/>
      <point x="23" y="122"/>
      <point x="67" y="149"/>
      <point x="104" y="149" type="curve" smooth="yes"/>
      <point x="141" y="149"/>
      <point x="184" y="119"/>
      <point x="184" y="70" type="curve" smooth="yes"/>
      <point x="184" y="24"/>
      <point x="147" y="-12"/>
      <point x="104" y="-12" type="curve" smooth="yes"/>
      <point x="71" y="-12"/>
      <point x="23" y="11"/>
    </contour>
    <contour>
      <point x="22" y="606" type="line"/>
      <point x="22" y="662"/>
      <point x="59" y="687"/>
      <point x="104" y="687" type="curve" smooth="yes"/>
      <point x="149" y="687"/>
      <point x="185" y="663"/>
      <point x="185" y="606" type="curve"/>
      <point x="131" y="208" type="line"/>
      <point x="77" y="208" type="line"/>
    </contour>
  </outline>
</glyph>
<glyph name="uni01F4" format="2">
  <advance width="715"/>
  <unicode hex="01F4"/>
  <outline>
    <contour>
      <point x="37" y="337" type="curve" smooth="yes"/>
      <point x="37" y="546"/>
      <point x="181" y="687"/>
      <point x="395" y="687" type="curve" smooth="yes"/>
      <point x="526" y="687"/>
      <point x="620" y="648"/>
      <point x="620" y="648" type="curve"/>
      <point x="620" y="475" type="line"/>
      <point x="542" y="475" type="line"/>
      <point x="522" y="583" type="line"/>
      <point x="521" y="590"/>
      <point x="512" y="600"/>
      <point x="503" y="604" type="curve"/>
      <point x="497" y="607" type="line"/>
      <point x="482" y="614"/>
      <point x="450" y="621"/>
      <point x="432" y="621" type="curve" smooth="yes"/>
      <point x="284" y="621"/>
      <point x="192" y="513"/>
      <point x="192" y="341" type="curve" smooth="yes"/>
      <point x="192" y="164"/>
      <point x="283" y="59"/>
      <point x="436" y="59" type="curve" smooth="yes"/>
      <point x="451" y="59"/>
      <point x="473" y="61"/>
      <point x="481" y="63" type="curve"/>
      <point x="481" y="254" type="line" smooth="yes"/>
      <point x="481" y="266"/>
      <point x="471" y="275"/>
      <point x="458" y="276" type="curve" smooth="yes"/>
      <point x="391" y="281" type="line"/>
      <point x="391" y="332" type="line"/>
      <point x="693" y="332" type="line"/>
      <point x="693" y="281" type="line"/>
      <point x="642" y="276" type="line"/>
      <point x="628" y="275"/>
      <point x="619" y="266"/>
      <point x="619" y="254" type="curve" smooth="yes"/>
      <point x="619" y="31" type="line"/>
      <point x="619" y="31"/>
      <point x="521" y="-16"/>
      <point x="387" y="-16" type="curve" smooth="yes"/>
      <point x="181" y="-16"/>
      <point x="37" y="130"/>
    </contour>
    <contour>
      <point x="325" y="747" type="line"/>
      <point x="462" y="898" type="line" smooth="yes"/>
      <point x="485" y="923"/>
      <point x="498" y="930"/>
      <point x="525" y="930" type="curve" smooth="yes"/>
      <point x="568" y="930"/>
      <point x="583" y="901"/>
      <point x="583" y="877" type="curve" smooth="yes"/>
      <point x="583" y="864"/>
      <point x="571" y="843"/>
      <point x="557" y="835" type="curve" smooth="yes"/>
      <point x="395" y="747" type="line"/>
    </contour>
  </outline>
</glyph>
<glyph name="uni01F7" format="2">
  <advance width="628"/>
  <unicode hex="01F7"/>
  <outline>
    <contour>
      <point x="29" y="579" type="line"/>
      <point x="29" y="620" type="line"/>
      <point x="182" y="671" type="line"/>
      <point x="233" y="671" type="line"/>
      <point x="233" y="605" type="line"/>
      <point x="285" y="654"/>
      <point x="339" y="687"/>
      <point x="421" y="687" type="curve" smooth="yes"/>
      <point x="539" y="687"/>
      <point x="600" y="595"/>
      <point x="600" y="507" type="curve" smooth="yes"/>
      <point x="600" y="299"/>
      <point x="393" y="126"/>
      <point x="233" y="15" type="curve"/>
      <point x="233" y="-145" type="line" smooth="yes"/>
      <point x="233" y="-158"/>
      <point x="242" y="-168"/>
      <point x="256" y="-168" type="curve"/>
      <point x="305" y="-171" type="line"/>
      <point x="305" y="-218" type="line"/>
      <point x="29" y="-218" type="line"/>
      <point x="29" y="-171" type="line"/>
      <point x="78" y="-168" type="line"/>
      <point x="90" y="-166"/>
      <point x="100" y="-158"/>
      <point x="100" y="-145" type="curve" smooth="yes"/>
      <point x="100" y="579" type="line"/>
    </contour>
    <contour>
      <point x="233" y="518" type="curve"/>
      <point x="233" y="108" type="line"/>
      <point x="369" y="209"/>
      <point x="445" y="382"/>
      <point x="445" y="469" type="curve" smooth="yes"/>
      <point x="445" y="529"/>
      <point x="421" y="583"/>
      <point x="371" y="583" type="curve" smooth="yes"/>
      <point x="320" y="583"/>
      <point x="270" y="553"/>
    </contour>
  </outline>
</glyph>
<glyph name="uni01F9" format="2">
  <advance width="625"/>
  <unicode hex="01F9"/>
  <outline>
    <contour>
      <point x="21" y="396" type="line"/>
      <point x="21" y="437" type="line"/>
      <point x="171" y="488" type="line"/>
      <point x="223" y="488" type="line"/>
      <point x="223" y="439" type="line"/>
      <point x="272" y="476"/>
      <point x="340" y="500"/>
      <point x="398" y="500" type="curve" smooth="yes"/>
      <point x="490" y="500"/>
      <point x="534" y="443"/>
      <point x="534" y="326" type="curve" smooth="yes"/>
      <point x="534" y="73" type="line" smooth="yes"/>
      <point x="534" y="61"/>
      <point x="545" y="51"/>
      <point x="557" y="50" type="curve" smooth="yes"/>
      <point x="588" y="47" type="line"/>
      <point x="588" y="0" type="line"/>
      <point x="342" y="0" type="line"/>
      <point x="342" y="47" type="line"/>
      <point x="379" y="50" type="line" smooth="yes"/>
      <point x="391" y="51"/>
      <point x="401" y="61"/>
      <point x="401" y="73" type="curve" smooth="yes"/>
      <point x="401" y="308" type="line" smooth="yes"/>
      <point x="401" y="370"/>
      <point x="370" y="408"/>
      <point x="319" y="408" type="curve" smooth="yes"/>
      <point x="264" y="408"/>
      <point x="223" y="395"/>
      <point x="223" y="395" type="curve"/>
      <point x="223" y="73" type="line" smooth="yes"/>
      <point x="223" y="61"/>
      <point x="234" y="51"/>
      <point x="246" y="50" type="curve" smooth="yes"/>
      <point x="276" y="47" type="line"/>
      <point x="276" y="0" type="line"/>
      <point x="32" y="0" type="line"/>
      <point x="32" y="47" type="line"/>
      <point x="68" y="50" type="line" smooth="yes"/>
      <point x="80" y="51"/>
      <point x="90" y="61"/>
      <point x="90" y="73" type="curve" smooth="yes"/>
      <point x="90" y="396" type="line"/>
    </contour>
    <contour>
      <point x="82" y="690" type="curve" smooth="yes"/>
      <point x="82" y="714"/>
      <point x="97" y="743"/>
      <point x="140" y="743" type="curve" smooth="yes"/>
      <point x="167" y="743"/>
      <point x="179" y="736"/>
      <point x="202" y="711" type="curve" smooth="yes"/>
      <point x="340" y="560" type="line"/>
      <point x="270" y="560" type="line"/>
      <point x="108" y="648" type="line" smooth="yes"/>
      <point x="94" y="656"/>
      <point x="82" y="677"/>
    </contour>
  </outline>
</glyph>
<glyph name="Aringacute" format="2">
  <advance width="686"/>
  <unicode hex="01FA"/>
  <outline>
    <contour>
      <point x="5" y="0" type="line"/>
      <point x="5" y="51" type="line"/>
      <point x="61" y="59" type="line"/>
      <point x="285" y="687" type="line"/>
      <point x="399" y="687" type="line"/>
      <point x="621" y="77" type="line"/>
      <point x="626" y="65"/>
      <point x="629" y="61"/>
      <point x="643" y="58" type="curve"/>
      <point x="681" y="51" type="line"/>
      <point x="681" y="0" type="line"/>
      <point x="405" y="0" type="line"/>
      <point x="405" y="51" type="line"/>
      <point x="464" y="58" type="line"/>
      <point x="469" y="59"/>
      <point x="474" y="65"/>
      <point x="474" y="71" type="curve"/>
      <point x="474" y="72"/>
      <point x="473.305" y="74.1034"/>
      <point x="473" y="75" type="curve"/>
      <point x="419" y="234" type="line"/>
      <point x="205" y="234" type="line"/>
      <point x="150" y="79" type="line"/>
      <point x="149.685" y="78.1123"/>
      <point x="149" y="76"/>
      <point x="149" y="75" type="curve"/>
      <point x="149" y="67"/>
      <point x="158" y="59"/>
      <point x="164" y="58" type="curve"/>
      <point x="220" y="51" type="line"/>
      <point x="220" y="0" type="line"/>
    </contour>
    <contour>
      <point x="216" y="799" type="curve" smooth="yes"/>
      <point x="216" y="869"/>
      <point x="273" y="925"/>
      <point x="342" y="925" type="curve" smooth="yes"/>
      <point x="412" y="925"/>
      <point x="468" y="869"/>
      <point x="468" y="799" type="curve" smooth="yes"/>
      <point x="468" y="729"/>
      <point x="412" y="673"/>
      <point x="342" y="673" type="curve" smooth="yes"/>
      <point x="273" y="673"/>
      <point x="216" y="729"/>
    </contour>
    <contour>
      <point x="224" y="293" type="line"/>
      <point x="394" y="293" type="line"/>
      <point x="308" y="533" type="line"/>
    </contour>
    <contour>
      <point x="278" y="799" type="curve" smooth="yes"/>
      <point x="278" y="764"/>
      <point x="308" y="736"/>
      <point x="342" y="736" type="curve" smooth="yes"/>
      <point x="377" y="736"/>
      <point x="404" y="764"/>
      <point x="404" y="799" type="curve" smooth="yes"/>
      <point x="404" y="834"/>
      <point x="377" y="862"/>
      <point x="342" y="862" type="curve" smooth="yes"/>
      <point x="308" y="862"/>
      <point x="278" y="834"/>
    </contour>
    <contour>
      <point x="272" y="971" type="line"/>
      <point x="409" y="1122" type="line" smooth="yes"/>
      <point x="432" y="1147"/>
      <point x="445" y="1154"/>
      <point x="472" y="1154" type="curve" smooth="yes"/>
      <point x="515" y="1154"/>
      <point x="530" y="1125"/>
      <point x="530" y="1101" type="curve" smooth="yes"/>
      <point x="530" y="1088"/>
      <point x="518" y="1067"/>
      <point x="504" y="1059" type="curve" smooth="yes"/>
      <point x="342" y="971" type="line"/>
    </contour>
  </outline>
</glyph>
<glyph name="aeacute" format="2">
  <advance width="770"/>
  <unicode hex="01FD"/>
  <outline>
    <contour>
      <point x="32" y="123" type="curve" smooth="yes"/>
      <point x="32" y="206"/>
      <point x="75" y="249"/>
      <point x="190" y="280" type="curve" smooth="yes"/>
      <point x="320" y="314" type="line"/>
      <point x="320" y="342" type="line" smooth="yes"/>
      <point x="320" y="413"/>
      <point x="291" y="446"/>
      <point x="227" y="446" type="curve" smooth="yes"/>
      <point x="215" y="446"/>
      <point x="192" y="442"/>
      <point x="192" y="442" type="curve"/>
      <point x="192" y="346" type="line"/>
      <point x="102" y="346" type="line" smooth="yes"/>
      <point x="63" y="346"/>
      <point x="53" y="355"/>
      <point x="53" y="384" type="curve" smooth="yes"/>
      <point x="53" y="458"/>
      <point x="166" y="501"/>
      <point x="264" y="501" type="curve" smooth="yes"/>
      <point x="369" y="501"/>
      <point x="413" y="447"/>
      <point x="413" y="447" type="curve"/>
      <point x="413" y="447"/>
      <point x="463" y="501"/>
      <point x="553" y="501" type="curve" smooth="yes"/>
      <point x="689" y="501"/>
      <point x="739" y="390"/>
      <point x="739" y="270" type="curve" smooth="yes"/>
      <point x="739" y="263"/>
      <point x="738" y="250"/>
      <point x="738" y="250" type="curve"/>
      <point x="448" y="250" type="line"/>
      <point x="448" y="135" type="line"/>
      <point x="455" y="121"/>
      <point x="495" y="75"/>
      <point x="596" y="75" type="curve" smooth="yes"/>
      <point x="675" y="75"/>
      <point x="738" y="129"/>
      <point x="738" y="129" type="curve"/>
      <point x="738" y="50" type="line"/>
      <point x="738" y="50"/>
      <point x="662" y="-8"/>
      <point x="552" y="-8" type="curve" smooth="yes"/>
      <point x="422" y="-8"/>
      <point x="353" y="65"/>
      <point x="353" y="65" type="curve"/>
      <point x="353" y="65"/>
      <point x="262" y="-8"/>
      <point x="160" y="-8" type="curve" smooth="yes"/>
      <point x="70" y="-8"/>
      <point x="32" y="56"/>
    </contour>
    <contour>
      <point x="170" y="148" type="curve" smooth="yes"/>
      <point x="170" y="108"/>
      <point x="192" y="73"/>
      <point x="234" y="73" type="curve" smooth="yes"/>
      <point x="274" y="73"/>
      <point x="294" y="83"/>
      <point x="320" y="100" type="curve"/>
      <point x="320" y="260" type="line"/>
      <point x="272" y="247"/>
      <point x="239" y="235"/>
      <point x="216" y="222" type="curve" smooth="yes"/>
      <point x="179" y="201"/>
      <point x="170" y="178"/>
    </contour>
    <contour>
      <point x="338" y="561" type="line"/>
      <point x="476" y="712" type="line" smooth="yes"/>
      <point x="499" y="737"/>
      <point x="511" y="744"/>
      <point x="538" y="744" type="curve" smooth="yes"/>
      <point x="581" y="744"/>
      <point x="596" y="715"/>
      <point x="596" y="691" type="curve" smooth="yes"/>
      <point x="596" y="678"/>
      <point x="584" y="657"/>
      <point x="570" y="649" type="curve" smooth="yes"/>
      <point x="408" y="561" type="line"/>
    </contour>
    <contour>
      <point x="445" y="306" type="curve"/>
      <point x="602" y="306" type="line"/>
      <point x="602" y="327" type="line" smooth="yes"/>
      <point x="602" y="367"/>
      <point x="597" y="446"/>
      <point x="530" y="446" type="curve" smooth="yes"/>
      <point x="446" y="446"/>
      <point x="445" y="339"/>
    </contour>
  </outline>
</glyph>
<glyph name="oslashacute" format="2">
  <advance width="583"/>
  <unicode hex="01FF"/>
  <outline>
    <contour>
      <point x="222" y="634" type="line"/>
      <point x="360" y="785" type="line" smooth="yes"/>
      <point x="383" y="810"/>
      <point x="395" y="817"/>
      <point x="422" y="817" type="curve" smooth="yes"/>
      <point x="465" y="817"/>
      <point x="480" y="788"/>
      <point x="480" y="764" type="curve" smooth="yes"/>
      <point x="480" y="751"/>
      <point x="468" y="730"/>
      <point x="454" y="722" type="curve" smooth="yes"/>
      <point x="292" y="634" type="line"/>
    </contour>
    <contour>
      <point x="32" y="242" type="curve" smooth="yes"/>
      <point x="32" y="406"/>
      <point x="141" y="500"/>
      <point x="296" y="500" type="curve" smooth="yes"/>
      <point x="332" y="500"/>
      <point x="364" y="495"/>
      <point x="392" y="485" type="curve"/>
      <point x="442" y="574" type="line"/>
      <point x="486" y="549" type="line"/>
      <point x="439" y="465" type="line"/>
      <point x="513" y="421"/>
      <point x="553" y="341"/>
      <point x="553" y="241" type="curve" smooth="yes"/>
      <point x="553" y="92"/>
      <point x="455" y="-12"/>
      <point x="289" y="-12" type="curve" smooth="yes"/>
      <point x="250" y="-12"/>
      <point x="215" y="-6"/>
      <point x="183" y="6" type="curve"/>
      <point x="134" y="-83" type="line"/>
      <point x="90" y="-55" type="line"/>
      <point x="137" y="29" type="line"/>
      <point x="71" y="72"/>
      <point x="32" y="145"/>
    </contour>
    <contour>
      <point x="182" y="246" type="curve" smooth="yes"/>
      <point x="182" y="210"/>
      <point x="185" y="169"/>
      <point x="195" y="134" type="curve"/>
      <point x="355" y="418" type="line"/>
      <point x="339" y="434"/>
      <point x="319" y="443"/>
      <point x="292" y="443" type="curve" smooth="yes"/>
      <point x="202" y="443"/>
      <point x="182" y="332"/>
    </contour>
    <contour>
      <point x="223" y="77" type="line"/>
      <point x="240" y="57"/>
      <point x="262" y="44"/>
      <point x="293" y="44" type="curve" smooth="yes"/>
      <point x="384" y="44"/>
      <point x="404" y="153"/>
      <point x="404" y="242" type="curve" smooth="yes"/>
      <point x="404" y="282"/>
      <point x="399" y="329"/>
      <point x="385" y="368" type="curve"/>
    </contour>
  </outline>
</glyph>
<glyph name="uni0206" format="2">
  <advance width="598"/>
  <unicode hex="0206"/>
  <outline>
    <contour>
      <point x="26" y="0" type="line"/>
      <point x="26" y="51" type="line"/>
      <point x="81" y="56" type="line" smooth="yes"/>
      <point x="93" y="57"/>
      <point x="104" y="65"/>
      <point x="104" y="78" type="curve" smooth="yes"/>
      <point x="104" y="593" type="line" smooth="yes"/>
      <point x="104" y="606"/>
      <point x="93" y="614"/>
      <point x="81" y="615" type="curve" smooth="yes"/>
      <point x="26" y="620" type="line"/>
      <point x="26" y="671" type="line"/>
      <point x="536" y="671" type="line"/>
      <point x="536" y="511" type="line"/>
      <point x="464" y="511" type="line"/>
      <point x="448" y="594" type="line" smooth="yes"/>
      <point x="446" y="604"/>
      <point x="439" y="613"/>
      <point x="430" y="613" type="curve" smooth="yes"/>
      <point x="244" y="613" type="line"/>
      <point x="244" y="378" type="line"/>
      <point x="363" y="378" type="line" smooth="yes"/>
      <point x="372" y="378"/>
      <point x="379" y="389"/>
      <point x="380" y="396" type="curve" smooth="yes"/>
      <point x="389" y="464" type="line"/>
      <point x="451" y="464" type="line"/>
      <point x="451" y="229" type="line"/>
      <point x="389" y="229" type="line"/>
      <point x="380" y="297" type="line" smooth="yes"/>
      <point x="379" y="304"/>
      <point x="372" y="315"/>
      <point x="363" y="315" type="curve" smooth="yes"/>
      <point x="244" y="315" type="line"/>
      <point x="244" y="60" type="line"/>
      <point x="462" y="60" type="line" smooth="yes"/>
      <point x="470" y="60"/>
      <point x="479" y="72"/>
      <point x="480" y="79" type="curve" smooth="yes"/>
      <point x="495" y="183" type="line"/>
      <point x="568" y="183" type="line"/>
      <point x="568" y="0" type="line"/>
    </contour>
    <contour>
      <point x="124" y="747" type="line"/>
      <point x="124" y="837"/>
      <point x="175" y="910"/>
      <point x="280" y="910" type="curve" smooth="yes"/>
      <point x="385" y="910"/>
      <point x="438" y="837"/>
      <point x="438" y="747" type="curve"/>
      <point x="384" y="747" type="line"/>
      <point x="371" y="807"/>
      <point x="325" y="828"/>
      <point x="280" y="828" type="curve" smooth="yes"/>
      <point x="236" y="828"/>
      <point x="189" y="807"/>
      <point x="176" y="747" type="curve"/>
    </contour>
  </outline>
</glyph>
<glyph name="uni0208" format="2">
  <advance width="358"/>
  <unicode hex="0208"/>
  <outline>
    <contour>
      <point x="-151" y="877" type="curve" smooth="yes"/>
      <point x="-151" y="909"/>
      <point x="-128" y="930"/>
      <point x="-94" y="930" type="curve" smooth="yes"/>
      <point x="-67" y="930"/>
      <point x="-53" y="923"/>
      <point x="-30" y="898" type="curve" smooth="yes"/>
      <point x="106" y="747" type="line"/>
      <point x="37" y="747" type="line"/>
      <point x="-125" y="835" type="line"/>
      <point x="-138" y="843"/>
      <point x="-151" y="863"/>
    </contour>
    <contour>
      <point x="23" y="0" type="line"/>
      <point x="23" y="51" type="line"/>
      <point x="85" y="56" type="line" smooth="yes"/>
      <point x="97" y="57"/>
      <point x="107" y="65"/>
      <point x="107" y="78" type="curve" smooth="yes"/>
      <point x="107" y="593" type="line" smooth="yes"/>
      <point x="107" y="606"/>
      <point x="97" y="614"/>
      <point x="85" y="615" type="curve" smooth="yes"/>
      <point x="23" y="620" type="line"/>
      <point x="23" y="671" type="line"/>
      <point x="335" y="671" type="line"/>
      <point x="335" y="620" type="line"/>
      <point x="273" y="615" type="line" smooth="yes"/>
      <point x="262" y="614"/>
      <point x="250" y="606"/>
      <point x="250" y="593" type="curve" smooth="yes"/>
      <point x="250" y="78" type="line" smooth="yes"/>
      <point x="250" y="65"/>
      <point x="262" y="57"/>
      <point x="273" y="56" type="curve" smooth="yes"/>
      <point x="335" y="51" type="line"/>
      <point x="335" y="0" type="line"/>
    </contour>
    <contour>
      <point x="64" y="877" type="curve" smooth="yes"/>
      <point x="64" y="909"/>
      <point x="87" y="930"/>
      <point x="121" y="930" type="curve" smooth="yes"/>
      <point x="148" y="930"/>
      <point x="162" y="923"/>
      <point x="184" y="898" type="curve" smooth="yes"/>
      <point x="321" y="747" type="line"/>
      <point x="251" y="747" type="line"/>
      <point x="90" y="835" type="line"/>
      <point x="76" y="842"/>
      <point x="64" y="862"/>
    </contour>
  </outline>
</glyph>
<glyph name="uni020A" format="2">
  <advance width="358"/>
  <unicode hex="020A"/>
  <outline>
    <contour>
      <point x="22" y="747" type="line"/>
      <point x="22" y="837"/>
      <point x="73" y="910"/>
      <point x="178" y="910" type="curve" smooth="yes"/>
      <point x="283" y="910"/>
      <point x="336" y="837"/>
      <point x="336" y="747" type="curve"/>
      <point x="282" y="747" type="line"/>
      <point x="269" y="807"/>
      <point x="223" y="828"/>
      <point x="178" y="828" type="curve" smooth="yes"/>
      <point x="134" y="828"/>
      <point x="87" y="807"/>
      <point x="74" y="747" type="curve"/>
    </contour>
    <contour>
      <point x="23" y="0" type="line"/>
      <point x="23" y="51" type="line"/>
      <point x="85" y="56" type="line" smooth="yes"/>
      <point x="97" y="57"/>
      <point x="107" y="65"/>
      <point x="107" y="78" type="curve" smooth="yes"/>
      <point x="107" y="593" type="line" smooth="yes"/>
      <point x="107" y="606"/>
      <point x="97" y="614"/>
      <point x="85" y="615" type="curve" smooth="yes"/>
      <point x="23" y="620" type="line"/>
      <point x="23" y="671" type="line"/>
      <point x="335" y="671" type="line"/>
      <point x="335" y="620" type="line"/>
      <point x="273" y="615" type="line" smooth="yes"/>
      <point x="262" y="614"/>
      <point x="250" y="606"/>
      <point x="250" y="593" type="curve" smooth="yes"/>
      <point x="250" y="78" type="line" smooth="yes"/>
      <point x="250" y="65"/>
      <point x="262" y="57"/>
      <point x="273" y="56" type="curve" smooth="yes"/>
      <point x="335" y="51" type="line"/>
      <point x="335" y="0" type="line"/>
    </contour>
  </outline>
</glyph>
<glyph name="uni0213" format="2">
  <advance width="432"/>
  <unicode hex="0213"/>
  <outline>
    <contour>
      <point x="17" y="408" type="line"/>
      <point x="17" y="449" type="line"/>
      <point x="172" y="500" type="line"/>
      <point x="224" y="500" type="line"/>
      <point x="224" y="394" type="line"/>
      <point x="249" y="426"/>
      <point x="313" y="500"/>
      <point x="359" y="500" type="curve" smooth="yes"/>
      <point x="382" y="500"/>
      <point x="410" y="491"/>
      <point x="422" y="482" type="curve"/>
      <point x="422" y="330" type="line"/>
      <point x="354" y="330" type="line"/>
      <point x="346" y="343"/>
      <point x="328" y="370"/>
      <point x="289" y="370" type="curve" smooth="yes"/>
      <point x="251" y="370"/>
      <point x="224" y="352"/>
      <point x="224" y="352" type="curve"/>
      <point x="224" y="72" type="line" smooth="yes"/>
      <point x="224" y="60"/>
      <point x="233" y="49"/>
      <point x="246" y="49" type="curve"/>
      <point x="310" y="46" type="line"/>
      <point x="310" y="-1" type="line"/>
      <point x="24" y="-1" type="line"/>
      <point x="24" y="46" type="line"/>
      <point x="68" y="49" type="line" smooth="yes"/>
      <point x="80" y="50"/>
      <point x="90" y="60"/>
      <point x="90" y="72" type="curve" smooth="yes"/>
      <point x="90" y="408" type="line"/>
    </contour>
    <contour>
      <point x="63" y="560" type="line"/>
      <point x="63" y="650"/>
      <point x="114" y="723"/>
      <point x="219" y="723" type="curve" smooth="yes"/>
      <point x="324" y="723"/>
      <point x="376" y="650"/>
      <point x="376" y="560" type="curve"/>
      <point x="323" y="560" type="line"/>
      <point x="310" y="620"/>
      <point x="264" y="641"/>
      <point x="219" y="641" type="curve" smooth="yes"/>
      <point x="175" y="641"/>
      <point x="128" y="620"/>
      <point x="115" y="560" type="curve"/>
    </contour>
  </outline>
</glyph>
<glyph name="Scommaaccent" format="2">
  <advance width="536"/>
  <unicode hex="0218"/>
  <outline>
    <contour>
      <point x="37" y="22" type="curve"/>
      <point x="37" y="205" type="line"/>
      <point x="116" y="205" type="line"/>
      <point x="133" y="84" type="line"/>
      <point x="135" y="65"/>
      <point x="173" y="52"/>
      <point x="223" y="52" type="curve" smooth="yes"/>
      <point x="298" y="52"/>
      <point x="352" y="91"/>
      <point x="352" y="146" type="curve" smooth="yes"/>
      <point x="352" y="203"/>
      <point x="310" y="248"/>
      <point x="213" y="294" type="curve" smooth="yes"/>
      <point x="187" y="306" type="line" smooth="yes"/>
      <point x="95" y="350"/>
      <point x="51" y="407"/>
      <point x="51" y="484" type="curve" smooth="yes"/>
      <point x="51" y="603"/>
      <point x="150" y="687"/>
      <point x="292" y="687" type="curve" smooth="yes"/>
      <point x="394" y="687"/>
      <point x="481" y="647"/>
      <point x="481" y="647" type="curve"/>
      <point x="481" y="483" type="line"/>
      <point x="404" y="483" type="line"/>
      <point x="387" y="590" type="line"/>
      <point x="383" y="609"/>
      <point x="356" y="620"/>
      <point x="313" y="620" type="curve" smooth="yes"/>
      <point x="240" y="620"/>
      <point x="190" y="584"/>
      <point x="190" y="530" type="curve" smooth="yes"/>
      <point x="190" y="476"/>
      <point x="225" y="440"/>
      <point x="325" y="391" type="curve" smooth="yes"/>
      <point x="350" y="379" type="line" smooth="yes"/>
      <point x="455" y="328"/>
      <point x="499" y="273"/>
      <point x="499" y="196" type="curve" smooth="yes"/>
      <point x="499" y="70"/>
      <point x="391" y="-16"/>
      <point x="232" y="-16" type="curve" smooth="yes"/>
      <point x="128" y="-16"/>
      <point x="37" y="22"/>
    </contour>
    <contour>
      <point x="155" y="-134" type="curve" smooth="yes"/>
      <point x="155" y="-95"/>
      <point x="188" y="-76"/>
      <point x="223" y="-76" type="curve" smooth="yes"/>
      <point x="274" y="-76"/>
      <point x="309" y="-114"/>
      <point x="309" y="-161" type="curve" smooth="yes"/>
      <point x="309" y="-229"/>
      <point x="245" y="-277"/>
      <point x="168" y="-292" type="curve"/>
      <point x="168" y="-252" type="line"/>
      <point x="207" y="-241"/>
      <point x="238" y="-210"/>
      <point x="238" y="-178" type="curve"/>
      <point x="175" y="-178" type="line"/>
      <point x="162" y="-166"/>
      <point x="155" y="-150"/>
    </contour>
  </outline>
</glyph>
<glyph name="uni021A" format="2">
  <advance width="608"/>
  <unicode hex="021A"/>
  <outline>
    <contour>
      <point x="16" y="488" type="line"/>
      <point x="16" y="671" type="line"/>
      <point x="593" y="671" type="line"/>
      <point x="593" y="488" type="line"/>
      <point x="520" y="488" type="line"/>
      <point x="502" y="599" type="line"/>
      <point x="501" y="607"/>
      <point x="496" y="611"/>
      <point x="488" y="611" type="curve" smooth="yes"/>
      <point x="376" y="611" type="line"/>
      <point x="376" y="78" type="line" smooth="yes"/>
      <point x="376" y="65"/>
      <point x="386" y="57"/>
      <point x="398" y="56" type="curve" smooth="yes"/>
      <point x="457" y="51" type="line"/>
      <point x="457" y="0" type="line"/>
      <point x="152" y="0" type="line"/>
      <point x="152" y="51" type="line"/>
      <point x="210" y="56" type="line" smooth="yes"/>
      <point x="222" y="57"/>
      <point x="233" y="65"/>
      <point x="233" y="78" type="curve" smooth="yes"/>
      <point x="233" y="611" type="line"/>
      <point x="121" y="611" type="line" smooth="yes"/>
      <point x="113" y="611"/>
      <point x="107" y="607"/>
      <point x="106" y="599" type="curve"/>
      <point x="88" y="488" type="line"/>
    </contour>
    <contour>
      <point x="228" y="-118" type="curve" smooth="yes"/>
      <point x="228" y="-79"/>
      <point x="261" y="-60"/>
      <point x="296" y="-60" type="curve" smooth="yes"/>
      <point x="347" y="-60"/>
      <point x="382" y="-98"/>
      <point x="382" y="-145" type="curve" smooth="yes"/>
      <point x="382" y="-213"/>
      <point x="317" y="-261"/>
      <point x="240" y="-276" type="curve"/>
      <point x="240" y="-236" type="line"/>
      <point x="279" y="-225"/>
      <point x="310" y="-194"/>
      <point x="310" y="-162" type="curve"/>
      <point x="248" y="-162" type="line"/>
      <point x="235" y="-150"/>
      <point x="228" y="-134"/>
    </contour>
  </outline>
</glyph>
<glyph name="uni0220" format="2">
  <advance width="777"/>
  <unicode hex="0220"/>
  <outline>
    <contour>
      <point x="29" y="620" type="line"/>
      <point x="29" y="671" type="line"/>
      <point x="248" y="671" type="line"/>
      <point x="248" y="609" type="line"/>
      <point x="306" y="656"/>
      <point x="391" y="687"/>
      <point x="460" y="687" type="curve" smooth="yes"/>
      <point x="594" y="687"/>
      <point x="668" y="609"/>
      <point x="668" y="467" type="curve" smooth="yes"/>
      <point x="668" y="-141" type="line" smooth="yes"/>
      <point x="668" y="-152"/>
      <point x="678" y="-162"/>
      <point x="691" y="-163" type="curve" smooth="yes"/>
      <point x="746" y="-168" type="line"/>
      <point x="746" y="-219" type="line"/>
      <point x="443" y="-219" type="line"/>
      <point x="443" y="-168" type="line"/>
      <point x="503" y="-163" type="line" smooth="yes"/>
      <point x="516" y="-162"/>
      <point x="525" y="-153"/>
      <point x="525" y="-141" type="curve" smooth="yes"/>
      <point x="525" y="462" type="line" smooth="yes"/>
      <point x="525" y="530"/>
      <point x="471" y="597"/>
      <point x="416" y="597" type="curve" smooth="yes"/>
      <point x="362" y="597"/>
      <point x="306" y="579"/>
      <point x="247" y="541" type="curve"/>
      <point x="247" y="83" type="line" smooth="yes"/>
      <point x="247" y="72"/>
      <point x="256" y="65"/>
      <point x="270" y="62" type="curve" smooth="yes"/>
      <point x="325" y="51" type="line"/>
      <point x="325" y="0" type="line"/>
      <point x="27" y="0" type="line"/>
      <point x="27" y="51" type="line"/>
      <point x="82" y="56" type="line" smooth="yes"/>
      <point x="93" y="57"/>
      <point x="104" y="70"/>
      <point x="104" y="83" type="curve" smooth="yes"/>
      <point x="104" y="602" type="line" smooth="yes"/>
      <point x="104" y="608"/>
      <point x="96" y="615"/>
      <point x="89" y="615" type="curve"/>
    </contour>
  </outline>
</glyph>
<glyph name="uni0223" format="2">
  <advance width="561"/>
  <unicode hex="0223"/>
  <outline>
    <contour>
      <point x="32" y="194" type="curve" smooth="yes"/>
      <point x="32" y="292"/>
      <point x="107" y="367"/>
      <point x="206" y="385" type="curve"/>
      <point x="134" y="395"/>
      <point x="53" y="455"/>
      <point x="53" y="553" type="curve" smooth="yes"/>
      <point x="53" y="666"/>
      <point x="158" y="740"/>
      <point x="281" y="740" type="curve" smooth="yes"/>
      <point x="406" y="740"/>
      <point x="509" y="657"/>
      <point x="509" y="553" type="curve" smooth="yes"/>
      <point x="509" y="459"/>
      <point x="428" y="398"/>
      <point x="354" y="385" type="curve"/>
      <point x="453" y="364"/>
      <point x="530" y="291"/>
      <point x="530" y="194" type="curve" smooth="yes"/>
      <point x="530" y="81"/>
      <point x="423" y="-12"/>
      <point x="281" y="-12" type="curve" smooth="yes"/>
      <point x="130" y="-12"/>
      <point x="32" y="80"/>
    </contour>
    <contour>
      <point x="182" y="203" type="curve" smooth="yes"/>
      <point x="182" y="120"/>
      <point x="198" y="41"/>
      <point x="281" y="41" type="curve" smooth="yes"/>
      <point x="360" y="41"/>
      <point x="380" y="123"/>
      <point x="380" y="203" type="curve" smooth="yes"/>
      <point x="380" y="292"/>
      <point x="352" y="353"/>
      <point x="280" y="353" type="curve" smooth="yes"/>
      <point x="209" y="353"/>
      <point x="182" y="290"/>
    </contour>
    <contour>
      <point x="200" y="555" type="curve" smooth="yes"/>
      <point x="200" y="480"/>
      <point x="218" y="417"/>
      <point x="280" y="417" type="curve" smooth="yes"/>
      <point x="343" y="417"/>
      <point x="361" y="481"/>
      <point x="361" y="555" type="curve" smooth="yes"/>
      <point x="361" y="633"/>
      <point x="339" y="690"/>
      <point x="281" y="690" type="curve" smooth="yes"/>
      <point x="213" y="690"/>
      <point x="200" y="622"/>
    </contour>
  </outline>
</glyph>
<glyph name="uni0229" format="2">
  <advance width="528"/>
  <unicode hex="0229"/>
  <outline>
    <contour>
      <point x="32" y="238" type="curve" smooth="yes"/>
      <point x="32" y="389"/>
      <point x="132" y="500"/>
      <point x="284" y="500" type="curve" smooth="yes"/>
      <point x="441" y="500"/>
      <point x="498" y="388"/>
      <point x="498" y="272" type="curve" smooth="yes"/>
      <point x="498" y="248" type="line"/>
      <point x="170" y="248" type="line"/>
      <point x="170" y="139"/>
      <point x="226" y="71"/>
      <point x="324" y="71" type="curve" smooth="yes"/>
      <point x="425" y="71"/>
      <point x="498" y="127"/>
      <point x="498" y="127" type="curve"/>
      <point x="498" y="47" type="line"/>
      <point x="498" y="47"/>
      <point x="414" y="-12"/>
      <point x="287" y="-12" type="curve" smooth="yes"/>
      <point x="117" y="-12"/>
      <point x="32" y="99"/>
    </contour>
    <contour>
      <point x="175" y="304" type="curve"/>
      <point x="355" y="304" type="line"/>
      <point x="355" y="326" type="line" smooth="yes"/>
      <point x="355" y="390"/>
      <point x="332" y="441"/>
      <point x="273" y="441" type="curve" smooth="yes"/>
      <point x="199" y="441"/>
      <point x="175" y="367"/>
    </contour>
    <contour>
      <point x="206" y="-248" type="curve"/>
      <point x="206" y="-198" type="line"/>
      <point x="206" y="-198"/>
      <point x="245" y="-206"/>
      <point x="269" y="-206" type="curve" smooth="yes"/>
      <point x="295" y="-206"/>
      <point x="328" y="-200"/>
      <point x="328" y="-172" type="curve" smooth="yes"/>
      <point x="328" y="-148"/>
      <point x="307" y="-138"/>
      <point x="284" y="-138" type="curve" smooth="yes"/>
      <point x="277" y="-138"/>
      <point x="262" y="-140"/>
      <point x="262" y="-140" type="curve"/>
      <point x="262" y="-3" type="line"/>
      <point x="312" y="-3" type="line"/>
      <point x="312" y="-85" type="line"/>
      <point x="315" y="-84"/>
      <point x="318" y="-83"/>
      <point x="326" y="-83" type="curve" smooth="yes"/>
      <point x="372" y="-83"/>
      <point x="410" y="-106"/>
      <point x="410" y="-159" type="curve" smooth="yes"/>
      <point x="410" y="-224"/>
      <point x="358" y="-259"/>
      <point x="287" y="-259" type="curve" smooth="yes"/>
      <point x="246" y="-259"/>
      <point x="206" y="-248"/>
    </contour>
  </outline>
</glyph>
